<svg id="Layer_1" data-name="Layer 1" xmlns="http://www.w3.org/2000/svg" viewBox="0 0 111 111"><defs><style>.cls-1{fill:#ef5355;}</style></defs><rect class="cls-1" width="111" height="111" rx="43"/><path d="M81.78,63c0,8.93-11.77,16.16-26.28,16.16S29.22,71.89,29.22,63,41,61.51,55.5,61.51,81.78,54,81.78,63Z"/><path d="M15.75,40.67a7,7,0,0,0,14,0Zm20.5,0a7,7,0,0,0,14,0Zm-6.5,0a2.12,2.12,0,0,1,.71-1.86A4.09,4.09,0,0,1,33,38a3.92,3.92,0,0,1,2.52.76,2.18,2.18,0,0,1,.7,1.91h14A16.15,16.15,0,0,0,44.54,28a18.46,18.46,0,0,0-23.09.07,16.08,16.08,0,0,0-5.7,12.58Z"/><path d="M60.75,40.67a7,7,0,0,0,14,0Zm20.5,0a7,7,0,1,0,14,0Zm-6.5,0a2.12,2.12,0,0,1,.71-1.86A4.09,4.09,0,0,1,78,38a3.92,3.92,0,0,1,2.52.76,2.18,2.18,0,0,1,.7,1.91h14A16.15,16.15,0,0,0,89.54,28a18.46,18.46,0,0,0-23.09.07,16.08,16.08,0,0,0-5.7,12.58Z"/></svg>