<svg width="111" height="111" viewBox="0 0 111 111" fill="none" xmlns="http://www.w3.org/2000/svg">
<rect width="111" height="111" rx="43" fill="#FFE44D"/>
<path d="M15 40.6743C15 44.5403 18.134 47.6743 22 47.6743C25.866 47.6743 29 44.5403 29 40.6743H15ZM35.5 40.6743C35.5 44.5403 38.634 47.6743 42.5 47.6743C46.366 47.6743 49.5 44.5403 49.5 40.6743H35.5ZM29 40.6743C29 39.5371 29.3713 39.0879 29.7073 38.8055C30.1981 38.393 31.1081 38.0059 32.2845 38.0001C33.4611 37.9943 34.3422 38.3715 34.803 38.7573C35.1037 39.0091 35.5 39.4529 35.5 40.6743H49.5C49.5 35.3957 47.3338 30.9899 43.7907 28.0232C40.4078 25.1906 36.1639 23.9808 32.2155 24.0002C28.2669 24.0197 24.0519 25.2702 20.6989 28.0888C17.1912 31.0374 15 35.4126 15 40.6743H29Z" fill="black"/>
<path d="M60 40.6743C60 44.5403 63.134 47.6743 67 47.6743C70.866 47.6743 74 44.5403 74 40.6743H60ZM80.5 40.6743C80.5 44.5403 83.634 47.6743 87.5 47.6743C91.366 47.6743 94.5 44.5403 94.5 40.6743H80.5ZM74 40.6743C74 39.5371 74.3713 39.0879 74.7073 38.8055C75.1981 38.393 76.1081 38.0059 77.2845 38.0001C78.4611 37.9943 79.3422 38.3715 79.803 38.7573C80.1037 39.0091 80.5 39.4529 80.5 40.6743H94.5C94.5 35.3957 92.3338 30.9899 88.7907 28.0232C85.4078 25.1906 81.1639 23.9808 77.2155 24.0002C73.2669 24.0197 69.0519 25.2702 65.6989 28.0888C62.1912 31.0374 60 35.4126 60 40.6743H74Z" fill="black"/>
<path d="M36 62.6743C41 67.6743 59 73.6743 74 62.6743" stroke="black" stroke-width="14" stroke-linecap="round" stroke-linejoin="round"/>
</svg>
