<?xml version="1.0" encoding="utf-8"?>
<!-- Generator: Adobe Illustrator 24.2.3, SVG Export Plug-In . SVG Version: 6.00 Build 0)  -->
<svg version="1.1" id="Layer_1" xmlns="http://www.w3.org/2000/svg" xmlns:xlink="http://www.w3.org/1999/xlink" x="0px" y="0px"
	 viewBox="0 0 191.5 107.1" style="enable-background:new 0 0 191.5 107.1;" xml:space="preserve">
<style type="text/css">
	.cloud-bg{fill:#FFE44D;}
	.st1{fill:none;stroke:#000000;stroke-width:14.5965;stroke-linecap:round;stroke-linejoin:round;stroke-miterlimit:10;}
</style>
<path class="cloud-bg" d="M158.2,40.3c-3.5,0-6.9,0.6-10.1,1.6C142.7,17.9,121.4,0,95.8,0C70.2,0,48.8,17.9,43.5,41.9
	c-3.2-1-6.6-1.6-10.2-1.6C14.9,40.3,0,55.3,0,73.7s14.9,33.4,33.4,33.4c11,0,48.8,0,62.4,0c13.6,0,51.4,0,62.4,0
	c18.4,0,33.4-14.9,33.4-33.4S176.6,40.3,158.2,40.3z"/>
<polyline class="st1" points="77.8,68.1 89.1,79.6 119.9,51.6 "/>
</svg>
