<?xml version="1.0" encoding="utf-8"?>
<!-- Generator: Adobe Illustrator 24.2.3, SVG Export Plug-In . SVG Version: 6.00 Build 0)  -->
<svg version="1.1" id="Layer_1" xmlns="http://www.w3.org/2000/svg" xmlns:xlink="http://www.w3.org/1999/xlink" x="0px" y="0px"
	 viewBox="0 0 191.5 107.1" style="enable-background:new 0 0 191.5 107.1;" xml:space="preserve">
<style type="text/css">
	.cloud-bg{fill:#FFE44D;}
</style>
<path class="cloud-bg" d="M158.2,40.3c-3.5,0-6.9,0.6-10.1,1.6C142.7,17.9,121.4,0,95.8,0C70.2,0,48.8,17.9,43.5,41.9
	c-3.2-1-6.6-1.6-10.2-1.6C14.9,40.3,0,55.3,0,73.7s14.9,33.4,33.4,33.4c11,0,48.8,0,62.4,0c13.6,0,51.4,0,62.4,0
	c18.4,0,33.4-14.9,33.4-33.4S176.6,40.3,158.2,40.3z"/>
<g>
	<path d="M84.8,41.2c-3.4-2.8-7.6-4-11.6-4c-3.9,0-8.2,1.3-11.5,4.1c-3.5,2.9-5.7,7.3-5.7,12.6c0,3.9,3.1,7,7,7c3.9,0,7-3.1,7-7
		c0-1.1,0.4-1.6,0.7-1.9c0.5-0.4,1.4-0.8,2.6-0.8c1.2,0,2.1,0.4,2.5,0.8c0.3,0.3,0.7,0.7,0.7,1.9c0,3.9,3.1,7,7,7s7-3.1,7-7
		C90.5,48.6,88.3,44.2,84.8,41.2z"/>
	<path d="M129.8,41.2c-3.4-2.8-7.6-4-11.6-4c-3.9,0-8.2,1.3-11.5,4.1c-3.5,2.9-5.7,7.3-5.7,12.6c0,3.9,3.1,7,7,7s7-3.1,7-7
		c0-1.1,0.4-1.6,0.7-1.9c0.5-0.4,1.4-0.8,2.6-0.8c1.2,0,2.1,0.4,2.5,0.8c0.3,0.3,0.7,0.7,0.7,1.9c0,3.9,3.1,7,7,7c3.9,0,7-3.1,7-7
		C135.5,48.6,133.3,44.2,129.8,41.2z"/>
</g>
<g>
	<path d="M96,89c-10.5,0-19.7-4-23.9-8.2c-2.7-2.7-2.7-7.2,0-9.9c2.7-2.7,7.2-2.7,9.9,0c2.9,2.9,17,8.1,28.9-0.7
		c3.1-2.3,7.5-1.6,9.8,1.5c2.3,3.1,1.6,7.5-1.5,9.8C111.7,87,103.5,89,96,89z"/>
</g>
</svg>
