<svg id="Layer_1" data-name="Layer 1" xmlns="http://www.w3.org/2000/svg" viewBox="0 0 111 111"><defs><style>.cls-1{fill:#70c9cb;}</style></defs><rect class="cls-1" width="111" height="111" rx="43"/><path d="M82.46,80.34a6.69,6.69,0,0,1-5.34,7.81c-3.63.68-9.44-1.27-10.13-4.9s4-7.56,7.66-8.24A6.69,6.69,0,0,1,82.46,80.34Z"/><path d="M50.25,54.19a7,7,0,0,0-14,0Zm-20.5,0a7,7,0,0,0-14,0Zm6.5,0a2.13,2.13,0,0,1-.71,1.87,4.1,4.1,0,0,1-2.57.8,4,4,0,0,1-2.52-.75,2.2,2.2,0,0,1-.7-1.92h-14a16.14,16.14,0,0,0,5.71,12.65,17.92,17.92,0,0,0,11.57,4,18.11,18.11,0,0,0,11.52-4.08,16.1,16.1,0,0,0,5.7-12.59Z"/><path d="M95.25,53.07a7,7,0,1,0-14,0Zm-20.5,0a7,7,0,1,0-14,0Zm6.5,0a2.13,2.13,0,0,1-.71,1.87,4.1,4.1,0,0,1-2.57.8A4,4,0,0,1,75.45,55a2.22,2.22,0,0,1-.7-1.92h-14a16.14,16.14,0,0,0,5.71,12.65,18.46,18.46,0,0,0,23.09-.07,16.06,16.06,0,0,0,5.7-12.58Z"/></svg>