<svg id="icon-add-local" xmlns="http://www.w3.org/2000/svg" width="20" height="20" viewBox="0 0 20 20">
  <path id="bg" d="M15.019,0H4.981A4.981,4.981,0,0,0,0,4.981V20H20V4.981A4.981,4.981,0,0,0,15.019,0" fill="#ffe44d"/>
  <rect id="street" width="20" height="1.439" transform="translate(0 18.561)" fill="#3ff0e1"/>
  <path id="hair-shadow" d="M31.177,37.289c-.855,0-1.582-.671-1.855-.431-.273-.24-1,.431-1.855.431-.831,0-1.542-.634-1.831-.449-.289-.185-1,.449-1.831.449-1.089,0-1.971-1.088-1.971,0a1.97,1.97,0,0,0,3.8.725,1.968,1.968,0,0,0,3.687-.066,1.97,1.97,0,0,0,3.826-.659c0-1.088-.882,0-1.971,0" transform="translate(-17.466 -29.445)" fill="#ff5252"/>
  <path id="hair" d="M30.1,25.028a.8.8,0,0,0-.8.8V26.5a1.055,1.055,0,0,1-2.111,0v-.674a.8.8,0,0,0-1.6,0V26.5a1.055,1.055,0,0,1-2.111,0v-.674a.8.8,0,0,0-1.6,0V26.5a1.055,1.055,0,0,1-2.111,0v-.674a.8.8,0,0,0-1.6,0V26.5a2.653,2.653,0,0,0,4.511,1.9,2.647,2.647,0,0,0,3.711,0A2.653,2.653,0,0,0,30.9,26.5v-.674a.8.8,0,0,0-.8-.8" transform="translate(-14.535 -20.022)"/>
  <path id="eye-shadow" d="M28.471,59.173a1.072,1.072,0,0,1-2.143,0c0-.592.48,0,1.072,0s1.071-.592,1.071,0" transform="translate(-21.062 -47.128)" fill="#ff5252"/>
  <path id="eye" d="M24.763,56.261a.8.8,0,0,1-.337-1.526,2.566,2.566,0,0,1,2.162,0,.8.8,0,0,1-.673,1.452.968.968,0,0,0-.817,0,.8.8,0,0,1-.336.074" transform="translate(-19.169 -43.597)"/>
  <path id="eye-shadow-2" data-name="eye-shadow" d="M65.338,59.173a1.072,1.072,0,0,1-2.143,0c0-.592.48,0,1.072,0s1.072-.592,1.072,0" transform="translate(-50.556 -47.128)" fill="#ff5252"/>
  <path id="eye-2" data-name="eye" d="M61.63,56.261a.8.8,0,0,1-.337-1.526,2.566,2.566,0,0,1,2.162,0,.8.8,0,0,1-.673,1.452.968.968,0,0,0-.817,0,.8.8,0,0,1-.336.074" transform="translate(-48.663 -43.597)"/>
  <path id="nose" d="M43.394,65.782h-.585V65.2a.8.8,0,1,0-1.6,0v.585h-.585a.8.8,0,0,0,0,1.6h.585v.585a.8.8,0,1,0,1.6,0v-.585h.585a.8.8,0,1,0,0-1.6" transform="translate(-31.859 -51.518)"/>
</svg>
