<svg id="icon-cats-products" xmlns="http://www.w3.org/2000/svg" width="20" height="19.832" viewBox="0 0 20 19.832">
  <path id="cat" d="M12.224,15.847h-8.6A3.624,3.624,0,0,1,0,12.223v-8.6A3.623,3.623,0,0,1,3.624,0h8.6a3.623,3.623,0,0,1,3.623,3.624v8.6a3.624,3.624,0,0,1-3.623,3.624" fill="#ff5252"/>
  <path id="item-check" d="M30.3,45.175h0m1.96,1.969H30.3v-1.96h1.96Zm.008-3.56H30.288A1.592,1.592,0,0,0,28.7,45.176v1.977a1.592,1.592,0,0,0,1.592,1.592h1.977a1.591,1.591,0,0,0,1.592-1.592V45.176a1.592,1.592,0,0,0-1.592-1.592" transform="translate(-22.957 -34.867)"/>
  <path id="item-description" d="M65.412,48.744H59.838a1.365,1.365,0,0,1-1.366-1.366V44.95a1.366,1.366,0,0,1,1.366-1.366h5.574a1.366,1.366,0,0,1,1.366,1.366v2.429a1.366,1.366,0,0,1-1.366,1.366" transform="translate(-46.778 -34.867)" fill="#3ff0e1"/>
  <path id="item-check-2" data-name="item-check" d="M30.3,74.951h0m1.96,1.969H30.3V74.96h1.96Zm.008-3.56H30.288A1.592,1.592,0,0,0,28.7,74.952v1.977a1.592,1.592,0,0,0,1.592,1.592h1.977a1.592,1.592,0,0,0,1.592-1.592V74.952a1.592,1.592,0,0,0-1.592-1.592" transform="translate(-22.957 -58.688)"/>
  <path id="item-description-2" data-name="item-description" d="M65.412,78.519H59.838a1.365,1.365,0,0,1-1.366-1.366V74.725a1.365,1.365,0,0,1,1.366-1.366h5.574a1.366,1.366,0,0,1,1.366,1.366v2.429a1.366,1.366,0,0,1-1.366,1.366" transform="translate(-46.778 -58.687)" fill="#ffe44d"/>
</svg>
