<svg id="icon-order-history" xmlns="http://www.w3.org/2000/svg" width="20" height="19.458" viewBox="0 0 20 19.458">
  <path id="item-check" d="M4.1,1.583a.453.453,0,0,1,.455.45V4.057a.453.453,0,0,1-.455.45H2.056a.453.453,0,0,1-.455-.45V2.033a.453.453,0,0,1,.455-.45H4.1M4.1,0H2.056A2.045,2.045,0,0,0,0,2.033V4.057A2.045,2.045,0,0,0,2.056,6.09H4.1A2.045,2.045,0,0,0,6.158,4.057V2.033A2.045,2.045,0,0,0,4.1,0" transform="translate(0 0)"/>
  <path id="item-description" d="M48.764,6.09H39.4a1.52,1.52,0,0,1-1.528-1.511V1.511A1.52,1.52,0,0,1,39.4,0h9.367a1.52,1.52,0,0,1,1.528,1.511V4.579A1.52,1.52,0,0,1,48.764,6.09" transform="translate(-30.292 0)" fill="#ffe44d"/>
  <path id="item-check-2" data-name="item-check" d="M4.1,35.361a.453.453,0,0,1,.455.45v2.024a.453.453,0,0,1-.455.45H2.056a.453.453,0,0,1-.455-.45V35.811a.453.453,0,0,1,.455-.45H4.1m0-1.583H2.056A2.045,2.045,0,0,0,0,35.811v2.024a2.045,2.045,0,0,0,2.056,2.033H4.1a2.045,2.045,0,0,0,2.056-2.033V35.811A2.045,2.045,0,0,0,4.1,33.778" transform="translate(0 -27.094)"/>
  <path id="item-description-2" data-name="item-description" d="M48.764,39.869H39.4a1.52,1.52,0,0,1-1.528-1.511V35.29A1.52,1.52,0,0,1,39.4,33.779h9.367a1.52,1.52,0,0,1,1.528,1.511v3.068a1.52,1.52,0,0,1-1.528,1.511" transform="translate(-30.292 -27.095)" fill="#ff5252"/>
  <path id="item-check-3" data-name="item-check" d="M4.1,69.141a.453.453,0,0,1,.455.45v2.024a.453.453,0,0,1-.455.45H2.056a.453.453,0,0,1-.455-.45V69.591a.453.453,0,0,1,.455-.45H4.1m0-1.583H2.056A2.045,2.045,0,0,0,0,69.591v2.024a2.045,2.045,0,0,0,2.056,2.033H4.1a2.045,2.045,0,0,0,2.056-2.033V69.591A2.045,2.045,0,0,0,4.1,67.558" transform="translate(0 -54.19)"/>
  <path id="item-description-3" data-name="item-description" d="M48.764,73.648H39.4a1.52,1.52,0,0,1-1.528-1.511V69.069A1.52,1.52,0,0,1,39.4,67.558h9.367a1.52,1.52,0,0,1,1.528,1.511v3.068a1.52,1.52,0,0,1-1.528,1.511" transform="translate(-30.292 -54.19)" fill="#3ff0e1"/>
</svg>
