<svg xmlns="http://www.w3.org/2000/svg" width="20" height="20.005" viewBox="0 0 20 20.005">
  <g id="icon-pending-orders" transform="translate(0)">
    <path id="clock-bg" d="M14.254,2.445a8.349,8.349,0,1,1-11.808,0,8.349,8.349,0,0,1,11.808,0" transform="translate(-0.001 0.001)" fill="#ffe44d"/>
    <path id="shadow" d="M2.445,14.255h0A8.349,8.349,0,0,1,14.253,2.448Z" transform="translate(0.001 -0.002)" fill="#ff5252"/>
    <path id="status-bar" d="M8.776,20.429A11.581,11.581,0,0,1,.534,17.015l1.687-1.687A9.271,9.271,0,1,0,15.332,2.218L17.018.531a11.656,11.656,0,0,1-8.242,19.9" transform="translate(-0.427 -0.425)" fill="#3ff0e1"/>
    <path id="clock-path" d="M8.392,1.6a6.727,6.727,0,0,1,5.34,2.619,6.64,6.64,0,0,1,1.361,3.313,6.737,6.737,0,0,1-2.534,6.126A6.648,6.648,0,0,1,9.2,15.05a6.737,6.737,0,0,1-6.124-2.541,6.639,6.639,0,0,1-1.38-3.3,6.751,6.751,0,0,1,6.7-7.6m0-1.6a8.349,8.349,0,1,0,6.2,2.76A8.328,8.328,0,0,0,8.392,0" transform="translate(-0.042 0)"/>
    <path id="clock" d="M40.165,27.655a.8.8,0,0,1-.655-.339l-1.65-2.34a.8.8,0,0,1-.147-.461v-3.5a.8.8,0,1,1,1.6,0v3.249l1.5,2.132a.8.8,0,0,1-.654,1.262" transform="translate(-30.164 -16.165)"/>
  </g>
</svg>
