<?xml version="1.0" encoding="utf-8"?>
<!-- Generator: Adobe Illustrator 24.2.3, SVG Export Plug-In . SVG Version: 6.00 Build 0)  -->
<svg version="1.1" id="Layer_1" xmlns="http://www.w3.org/2000/svg" xmlns:xlink="http://www.w3.org/1999/xlink" x="0px" y="0px"
	 viewBox="0 0 100 100" style="enable-background:new 0 0 100 100;" xml:space="preserve">
<style type="text/css">
	.st0{fill:#231F20;}
</style>
<path class="st0" d="M8.6,0h47.8c4.7,0,8.5,3.8,8.5,8.6v0c0,4.7-3.8,8.6-8.5,8.6H8.6C3.8,17.1,0,13.3,0,8.6v0C0,3.9,3.8,0,8.6,0z"/>
<path class="st0" d="M8.6,27.6h82.9c4.7,0,8.6,3.8,8.6,8.5v0c0,4.7-3.8,8.5-8.6,8.5H8.6c-4.7,0-8.6-3.8-8.6-8.5v0
	C0,31.5,3.8,27.6,8.6,27.6z"/>
<path class="st0" d="M8.6,55.2h47.7c4.7,0,8.6,3.8,8.6,8.5v0c0,4.7-3.8,8.5-8.6,8.5H8.6c-4.7,0-8.6-3.8-8.6-8.5v0
	C0,59.1,3.8,55.2,8.6,55.2z"/>
<path class="st0" d="M8.6,82.8h82.9c4.7,0,8.6,3.8,8.6,8.6v0c0,4.7-3.8,8.6-8.6,8.6H8.6C3.8,100,0,96.1,0,91.4v0
	C0,86.7,3.8,82.8,8.6,82.8z"/>
</svg>
