<?xml version="1.0" encoding="utf-8"?>
<!-- Generator: Adobe Illustrator 25.0.0, SVG Export Plug-In . SVG Version: 6.00 Build 0)  -->
<svg version="1.1" id="Layer_1" xmlns="http://www.w3.org/2000/svg" xmlns:xlink="http://www.w3.org/1999/xlink" x="0px" y="0px"
	 viewBox="0 0 100 100" style="enable-background:new 0 0 100 100;" xml:space="preserve">
<style type="text/css">
	.st0{fill:#EF5355;}
	.st1{fill:#70C9CB;}
	.st2{fill:#FFE44D;}
	.st3{fill:none;stroke:#000000;stroke-width:8;stroke-linecap:round;stroke-linejoin:round;stroke-miterlimit:10;}
	.st4{fill:none;stroke:#000000;stroke-width:8;stroke-linecap:round;stroke-miterlimit:10;}
</style>
<g>
	<path d="M81.1,70.1c6,0,10.9,4.9,10.9,10.9S87.1,92,81.1,92s-10.9-4.9-10.9-10.9S75,70.1,81.1,70.1 M81.1,62.1
		c-10.5,0-18.9,8.5-18.9,18.9S70.6,100,81.1,100S100,91.5,100,81.1S91.5,62.1,81.1,62.1L81.1,62.1z"/>
</g>
<g>
	<path d="M18.9,70.1c6,0,10.9,4.9,10.9,10.9S25,92,18.9,92C12.9,92,8,87.1,8,81.1S12.9,70.1,18.9,70.1 M18.9,62.1
		C8.5,62.1,0,70.6,0,81.1S8.5,100,18.9,100s18.9-8.5,18.9-18.9S29.4,62.1,18.9,62.1L18.9,62.1z"/>
</g>
<polyline class="st3" points="81.1,81.1 71.6,24.5 67.2,21.4 "/>
<path class="st3" d="M15.1,44.5h69.5v7.8l-9.6-7.8l-3.6,3.4C57.2,61.4,40.7,72.1,22.7,79.5l-3.8,1.6l11-45.6l14,9.1"/>
<line class="st3" x1="27.8" y1="44.5" x2="45.8" y2="67.7"/>
</svg>
