<svg id="Layer_1" data-name="Layer 1" xmlns="http://www.w3.org/2000/svg" viewBox="0 0 100 100"><defs><style>.cls-1{fill:#231f20;}</style></defs><path class="cls-1" d="M77.26,54.74c-.74,0-1.47,0-2.2.11l-3-8.87,5.09,2.3a2.06,2.06,0,0,0,2.91-1.88V33.63a2.06,2.06,0,0,0-2.88-1.89l-5.1,2.2A6.44,6.44,0,0,0,69,36.73l-3.48-10.4A6.94,6.94,0,0,0,61.27,22l-4.6-1.63a5,5,0,0,0-6.38,3h0a5,5,0,0,0,3,6.39,6.89,6.89,0,0,1,4.24,4.32L59,38.5H38.1c-3.48-2.81-16-3.71-16-3.71a1.83,1.83,0,0,0-2,1.81v1.9H3a1.7,1.7,0,0,0-1.36.69,1.68,1.68,0,0,0,1.17,2.65l7.53.89a12.93,12.93,0,0,1,11.47,12A22.63,22.63,0,1,0,45.47,77.37a27.58,27.58,0,0,0-.39-4.2l1.05-.26a7.63,7.63,0,0,0,5.27-4.86A27.56,27.56,0,0,1,61.59,54.9l1.77-3.51L65.56,58a22.74,22.74,0,1,0,11.7-3.24ZM31.33,60.25l5.3,6.16-6.93,2Zm4.14,17.12A12.74,12.74,0,1,1,20.18,65l-1.6,8a4.61,4.61,0,0,0,5.63,5.39L35.33,75.6A11.63,11.63,0,0,1,35.47,77.37ZM77.26,90A12.7,12.7,0,0,1,64.53,77.37a12.53,12.53,0,0,1,4.35-9.48l3,8.94a5,5,0,1,0,9.48-3.17l-3-8.86A12.62,12.62,0,0,1,77.26,90Z"/></svg>