<svg id="pending-glass" xmlns="http://www.w3.org/2000/svg" width="47.738" height="85.341" viewBox="0 0 47.738 85.341">
  <path id="Path_7" data-name="Path 7" d="M86.006,79.288l1.665,72.06c0,9.671,44.408,9.671,44.408,0l1.665-72.06C133.744,71.251,86.006,71.251,86.006,79.288Z" transform="translate(-86.006 -73.26)" fill="#fafafa"/>
  <ellipse id="Ellipse_28" data-name="Ellipse 28" cx="16" cy="4" rx="16" ry="4" transform="translate(8 74)" fill="#eee"/>
  <ellipse id="Ellipse_29" data-name="Ellipse 29" cx="21" cy="4.5" rx="21" ry="4.5" transform="translate(3 1)" fill="#eee"/>
  <path id="Path_5" data-name="Path 5" d="M130.331,133.133l-.231,11.95c0,1.211-3.635,5.966-20.225,5.966-16.105,0-19.606-4.786-19.644-5.935l-.812-16.268C130.257,126.273,130.331,133.133,130.331,133.133Z" transform="translate(-86.006 -73.26)" fill="#ffe44d"/>
  <circle id="Ellipse_1" data-name="Ellipse 1" cx="1.635" cy="1.635" r="1.635" transform="translate(20.218 68.409)" fill="#ffefa5"/>
  <circle id="Ellipse_2" data-name="Ellipse 2" cx="2.296" cy="2.296" r="2.296" transform="translate(8.828 59.33)" fill="#ffefa5"/>
  <circle id="Ellipse_3" data-name="Ellipse 3" cx="1" cy="1" r="1" transform="translate(38.327 65.187)" fill="#ffefa5"/>
  <circle id="Ellipse_4" data-name="Ellipse 4" cx="2.296" cy="2.296" r="2.296" transform="translate(10.32 49.144)" fill="#ffe44d"/>
  <circle id="Ellipse_5" data-name="Ellipse 5" cx="1.623" cy="1.623" r="1.623" transform="translate(34.431 43.919)" fill="#ffe44d"/>
  <circle id="Ellipse_6" data-name="Ellipse 6" cx="0.921" cy="0.921" r="0.921" transform="translate(22.948 42.671)" fill="#ffe44d"/>
  <path id="Path_8" data-name="Path 8" d="M130.331,133.133s.26-6.71-40.912-4.287C104.846,128.659,129.5,138.874,130.331,133.133Z" transform="translate(-86.006 -73.26)" fill="#ffefa5"/>
</svg>
