<svg id="Layer_1" data-name="Layer 1" xmlns="http://www.w3.org/2000/svg" viewBox="0 0 100 100"><defs><style>.cls-1{fill:#231f20;}</style></defs><path class="cls-1" d="M11.43,86.52c.83,1.4,2.47,4.22,4.44,7.18A.88.88,0,0,1,15.34,95,10.6,10.6,0,0,0,10,97.89l0,0a1.24,1.24,0,0,0,.91,2.09H42.43a3.24,3.24,0,0,0,1-6.33l-18-5.81a54.55,54.55,0,0,0-3.95-7.24c-6.88-10.79-5.49-21.87-.41-25,0,0,1.84,6,5.15,6a5.38,5.38,0,0,0,4-2,5.81,5.81,0,0,0,1.42-4.22c-1.79-25.88-1.37-44.68,7-44.68,7.25,0,7,11.22,7.36,32.91l0,1.28a5.75,5.75,0,0,0,5.8,5.64H52c5.3,0,5.49-8.64,7.94-9.19a8.34,8.34,0,0,1,3.48.63c8.27,3.67,10.34,13.5,12.29,14.64.92.53,2.15-1,3.25-2.52a9.44,9.44,0,0,1,3,3.31C85.24,63.87,81.47,75,78.44,84c-1.9,5.61-3.55,10.46-3.55,14.38h0A1.66,1.66,0,0,0,76.56,100H87.84c3,0,3.79-4.2,1-5.19a9.67,9.67,0,0,0-1.62-.44c1-2.66,1.74-5.21,2.24-6.68,3.74-11,8.4-24.8,2.72-35.66-2.69-5.13-7.34-8.84-13.84-11A18.84,18.84,0,0,0,66.8,30.89a24.87,24.87,0,0,0-7-1.07h0A21.09,21.09,0,0,0,57,30C55.82,16.69,52.9,8.29,47.89,3.71A13.48,13.48,0,0,0,38.54,0c-.36,0-.72,0-1.08,0-14,1-17.11,25.78-17.64,41.61-5.16,3.45-16,12.7-14.51,28.72C6,77.21,8.87,82.15,11.43,86.52Z"/></svg>