<svg id="preparation-glass" xmlns="http://www.w3.org/2000/svg" width="47.738" height="85.341" viewBox="0 0 47.738 85.341">
  <path id="Path_13" data-name="Path 13" d="M191.349,79.288l1.665,72.06c0,9.671,44.408,9.671,44.408,0l1.665-72.06C239.087,71.251,191.349,71.251,191.349,79.288Z" transform="translate(-191.349 -73.26)" fill="#fff"/>
  <ellipse id="Ellipse_30" data-name="Ellipse 30" cx="16" cy="4" rx="16" ry="4" transform="translate(7.657 74)" fill="#eee"/>
  <ellipse id="Ellipse_31" data-name="Ellipse 31" cx="21" cy="4.5" rx="21" ry="4.5" transform="translate(2.657 1)" fill="#eee"/>
  <path id="Path_11" data-name="Path 11" d="M219.505,118c-8-2.971-20.254-3.632-24.743.354l.811,26.764c.039,1.149,3.539,5.935,19.645,5.935,16.59,0,20.225-4.755,20.225-5.966l.23-22.445S235.632,118.949,219.505,118Z" transform="translate(-191.349 -73.26)" fill="#3ff0e1"/>
  <circle id="Ellipse_7" data-name="Ellipse 7" cx="1.635" cy="1.635" r="1.635" transform="translate(20.218 63.913)" fill="#9feee7"/>
  <circle id="Ellipse_8" data-name="Ellipse 8" cx="2.296" cy="2.296" r="2.296" transform="translate(9.372 46.594)" fill="#9feee7"/>
  <circle id="Ellipse_9" data-name="Ellipse 9" cx="1" cy="1" r="1" transform="translate(36.677 56.851)" fill="#9feee7"/>
  <circle id="Ellipse_10" data-name="Ellipse 10" cx="2.296" cy="2.296" r="2.296" transform="translate(8.821 32.798)" fill="#9feee7"/>
  <circle id="Ellipse_11" data-name="Ellipse 11" cx="1.623" cy="1.623" r="1.623" transform="translate(34.633 31.175)" fill="#9feee7"/>
  <circle id="Ellipse_12" data-name="Ellipse 12" cx="0.921" cy="0.921" r="0.921" transform="translate(22.948 20.603)" fill="#9feee7"/>
  <path id="Path_14" data-name="Path 14" d="M219.538,118v0c8.73,3.246,15.7,7.575,16.136,4.58C235.673,122.588,235.813,118.963,219.538,118Z" transform="translate(-191.349 -73.26)" fill="#9feee7"/>
  <path id="Path_15" data-name="Path 15" d="M219.525,118l.012.005v0Z" transform="translate(-191.349 -73.26)" fill="#ffdc33"/>
</svg>
