<?xml version="1.0" encoding="utf-8"?>
<!-- Generator: Adobe Illustrator 25.0.0, SVG Export Plug-In . SVG Version: 6.00 Build 0)  -->
<svg version="1.1" id="Layer_1" xmlns="http://www.w3.org/2000/svg" xmlns:xlink="http://www.w3.org/1999/xlink" x="0px" y="0px"
	 viewBox="0 0 100 100" style="enable-background:new 0 0 100 100;" xml:space="preserve">
<style type="text/css">
	.st0{fill:#EF5355;}
	.st1{fill:#70C9CB;}
	.st2{fill:#FFE44D;}
	.st3{fill:none;stroke:#000000;stroke-width:8;stroke-linecap:round;stroke-linejoin:round;stroke-miterlimit:10;}
	.st4{fill:none;stroke:#000000;stroke-width:8;stroke-linecap:round;stroke-miterlimit:10;}
</style>
<g>
	<path d="M75.8,8C84.7,8,92,15.3,92,24.2v51.6C92,84.7,84.7,92,75.8,92H24.2C15.3,92,8,84.7,8,75.8V24.2C8,15.3,15.3,8,24.2,8H75.8
		 M75.8,0H24.2C10.8,0,0,10.8,0,24.2v51.6C0,89.2,10.8,100,24.2,100h51.6c13.4,0,24.2-10.8,24.2-24.2V24.2C100,10.8,89.2,0,75.8,0
		L75.8,0z"/>
</g>
<polyline class="st3" points="19.9,33 24.3,59 43.8,59 47.8,79.3 "/>
<line class="st3" x1="21.4" y1="79.3" x2="24.3" y2="59"/>
<rect x="66.8" y="26.1" class="st3" width="6.4" height="6.4"/>
<rect x="38" y="32.5" class="st3" width="14.5" height="14.5"/>
<rect x="61.5" y="60.6" class="st3" width="17" height="17"/>
</svg>
