<svg id="served-glass" xmlns="http://www.w3.org/2000/svg" width="47.738" height="85.341" viewBox="0 0 47.738 85.341">
  <path id="Path_26" data-name="Path 26" d="M192.27,191.732l1.665,72.059c0,9.672,44.408,9.672,44.408,0l1.665-72.059C240.008,183.7,192.27,183.7,192.27,191.732Z" transform="translate(-192.27 -185.704)" fill="#fff"/>
  <ellipse id="Ellipse_34" data-name="Ellipse 34" cx="16" cy="4" rx="16" ry="4" transform="translate(7.736 74)" fill="#eee"/>
  <ellipse id="Ellipse_35" data-name="Ellipse 35" cx="21" cy="4.5" rx="21" ry="4.5" transform="translate(2.736 1)" fill="#eee"/>
  <path id="Path_25" data-name="Path 25" d="M195.683,196.259l.812,55.251c.038,1.045,3.539,5.4,19.644,5.4,16.59,0,20.225-4.324,20.225-5.424l.231-55.693C231.808,189.968,203.938,188.761,195.683,196.259Z" transform="translate(-192.27 -179.117)" fill="#7835cf"/>
  <circle id="Ellipse_19" data-name="Ellipse 19" cx="1.635" cy="1.635" r="1.635" transform="translate(22.234 49.366)" fill="#ad76f5"/>
  <circle id="Ellipse_20" data-name="Ellipse 20" cx="1.635" cy="1.635" r="1.635" transform="translate(10.034 68.489)" fill="#ad76f5"/>
  <circle id="Ellipse_21" data-name="Ellipse 21" cx="1.085" cy="1.085" r="1.085" transform="translate(11.946 34.087)" fill="#ad76f5"/>
  <circle id="Ellipse_22" data-name="Ellipse 22" cx="2.296" cy="2.296" r="2.296" transform="translate(32.338 26.421)" fill="#ad76f5"/>
  <circle id="Ellipse_23" data-name="Ellipse 23" cx="1" cy="1" r="1" transform="translate(35.256 38.879)" fill="#ad76f5"/>
  <circle id="Ellipse_24" data-name="Ellipse 24" cx="1" cy="1" r="1" transform="translate(34.604 66.58)" fill="#ad76f5"/>
  <path id="Path_27" data-name="Path 27" d="M220.446,230.447l.013,0v0Z" transform="translate(-192.27 -185.704)" fill="#ffdc33"/>
  <path id="Path_28" data-name="Path 28" d="M195.694,196.239s40.856,8.639,40.891-.435C231.571,188.055,201.521,188.786,195.694,196.239Z" transform="translate(-192.27 -179.117)" fill="#ad76f5"/>
  <circle id="Ellipse_26" data-name="Ellipse 26" cx="2.296" cy="2.296" r="2.296" transform="translate(7.085 11.319)" fill="#7835cf"/>
  <circle id="Ellipse_27" data-name="Ellipse 27" cx="1.623" cy="1.623" r="1.623" transform="translate(39.01 9.663)" fill="#7835cf"/>
  <circle id="Ellipse_25" data-name="Ellipse 25" cx="0.921" cy="0.921" r="0.921" transform="translate(24.153 14.992)" fill="#7835cf"/>
</svg>
