<svg id="serve-glass" xmlns="http://www.w3.org/2000/svg" width="47.738" height="85.341" viewBox="0 0 47.738 85.341">
  <path id="Path_20" data-name="Path 20" d="M86.006,191.732l1.665,72.059c0,9.672,44.408,9.672,44.408,0l1.665-72.059C133.744,183.7,86.006,183.7,86.006,191.732Z" transform="translate(-86.006 -185.704)" fill="#fff"/>
  <ellipse id="Ellipse_32" data-name="Ellipse 32" cx="16" cy="4" rx="16" ry="4" transform="translate(8 74)" fill="#eee"/>
  <ellipse id="Ellipse_33" data-name="Ellipse 33" cx="21" cy="4.5" rx="21" ry="4.5" transform="translate(3 1)" fill="#eee"/>
  <path id="Path_18" data-name="Path 18" d="M89.419,219.684l.812,37.873c.038,1.15,3.539,5.936,19.644,5.936,16.59,0,20.225-4.756,20.225-5.966l.231-38.359S111.345,202.611,89.419,219.684Z" transform="translate(-86.006 -185.704)" fill="#ff5252"/>
  <circle id="Ellipse_13" data-name="Ellipse 13" cx="1.635" cy="1.635" r="1.635" transform="translate(26.542 43.108)" fill="#f78e8e"/>
  <circle id="Ellipse_14" data-name="Ellipse 14" cx="2.296" cy="2.296" r="2.296" transform="translate(9.373 54.889)" fill="#f78e8e"/>
  <circle id="Ellipse_15" data-name="Ellipse 15" cx="1" cy="1" r="1" transform="translate(25.541 64.548)" fill="#f78e8e"/>
  <circle id="Ellipse_16" data-name="Ellipse 16" cx="2.296" cy="2.296" r="2.296" transform="translate(8.821 19.798)" fill="#ff5252"/>
  <circle id="Ellipse_17" data-name="Ellipse 17" cx="1.623" cy="1.623" r="1.623" transform="translate(34.633 15.174)" fill="#ff5252"/>
  <circle id="Ellipse_18" data-name="Ellipse 18" cx="0.921" cy="0.921" r="0.921" transform="translate(22.948 14.295)" fill="#ff5252"/>
  <path id="Path_21" data-name="Path 21" d="M114.182,230.447l.013,0v0Z" transform="translate(-86.006 -185.704)" fill="#ffdc33"/>
  <path id="Path_22" data-name="Path 22" d="M89.419,219.684s4.372,18.209,19.535,2.566c9.974-10.29,21.377-3.082,21.377-3.082S111.629,202.611,89.419,219.684Z" transform="translate(-86.006 -185.704)" fill="#f78e8e"/>
</svg>
