<?xml version="1.0" encoding="utf-8"?>
<!-- Generator: Adobe Illustrator 25.0.0, SVG Export Plug-In . SVG Version: 6.00 Build 0)  -->
<svg version="1.1" id="Layer_1" xmlns="http://www.w3.org/2000/svg" xmlns:xlink="http://www.w3.org/1999/xlink" x="0px" y="0px"
	 viewBox="0 0 100 100" style="enable-background:new 0 0 100 100;" xml:space="preserve">
<style type="text/css">
	.st0{fill:#EF5355;}
	.st1{fill:#70C9CB;}
	.st2{fill:#FFE44D;}
	.st3{fill:none;stroke:#000000;stroke-width:8;stroke-linecap:round;stroke-linejoin:round;stroke-miterlimit:10;}
	.st4{fill:none;stroke:#000000;stroke-width:8;stroke-linecap:round;stroke-miterlimit:10;}
</style>
<g>
	<path d="M75.1,8C84.5,8,92,15.6,92,24.9V92H8V24.9C8,15.6,15.6,8,25,8H75.1 M75.1,0H25C11.2,0,0,11.1,0,24.9V100h100V24.9
		C100,11.1,88.9,0,75.1,0L75.1,0z"/>
</g>
<path class="st3" d="M40.7,29v3.4c0,5.1-4.2,9.3-9.3,9.3h0c-5.1,0-9.3-4.2-9.3-9.3V29"/>
<path class="st3" d="M59.3,29v3.4c0,5.1-4.2,9.3-9.3,9.3h0c-5.1,0-9.3-4.2-9.3-9.3V29"/>
<path class="st3" d="M77.8,29v3.4c0,5.1-4.2,9.3-9.3,9.3h0c-5.1,0-9.3-4.2-9.3-9.3V29"/>
<line class="st3" x1="50" y1="92.4" x2="50" y2="73.7"/>
<path class="st3" d="M28,61.2L28,61.2c2.4-1.1,5.1-1.1,7.4,0l0,0"/>
<path class="st3" d="M64.8,61.2L64.8,61.2c2.4-1.1,5.1-1.1,7.4,0l0,0"/>
</svg>
