<?xml version="1.0" encoding="utf-8"?>
<!-- Generator: Adobe Illustrator 24.2.3, SVG Export Plug-In . SVG Version: 6.00 Build 0)  -->
<svg version="1.1" id="Layer_1" xmlns="http://www.w3.org/2000/svg" xmlns:xlink="http://www.w3.org/1999/xlink" x="0px" y="0px"
	 viewBox="0 0 100 100" style="enable-background:new 0 0 100 100;" xml:space="preserve">
<style type="text/css">
	.st0{fill:#231F20;}
</style>
<g>
	<g>
		<path class="st0" d="M32.5,53.3H21.8c-2.5,0-4.5,2-4.5,4.5v5.4c0,0.6,0.1,0.8,0.3,0.8c0.7,0,2.3-2.5,4.2-2.5h10.6
			c1.9,0,3.6,2.5,4.2,2.5c0.2,0,0.3-0.2,0.3-0.8v-5.4C37,55.3,35,53.3,32.5,53.3L32.5,53.3z"/>
	</g>
	<g>
		<path class="st0" d="M78.2,53.3H67.5c-2.5,0-4.5,2-4.5,4.5v5.4c0,0.6,0.1,0.8,0.3,0.8c0.7,0,2.3-2.5,4.2-2.5h10.6
			c1.9,0,3.6,2.5,4.2,2.5c0.2,0,0.3-0.2,0.3-0.8v-5.4C82.7,55.3,80.7,53.3,78.2,53.3L78.2,53.3z"/>
	</g>
	<g>
		<path class="st0" d="M84.7,10c2.9,0,5.3,2.4,5.3,5.3v4.1h-8.4H70.7h-0.1H59.8H49.5H39.1H28.8H18.4H10v-4.1c0-2.9,2.4-5.3,5.3-5.3
			H84.7 M84.7,0H15.3C6.9,0,0,6.9,0,15.3v77.4c0,4,3.3,7.3,7.3,7.3h32.8h19.7h32.8c4,0,7.3-3.3,7.3-7.3V15.3C100,6.9,93.1,0,84.7,0
			L84.7,0z M81.1,29.4c0,0.1,0,0.3,0,0.4c0,2.9,2.3,5.2,5.2,5.2c0,0,0,0,0,0c0,0,0,0,0,0c2,0,3.7,1.5,3.7,3.5v47.9
			c0,2-1.6,3.6-3.6,3.6H59.8V74.8c0-5.4-4.4-9.8-9.8-9.8c-5.4,0-9.8,4.4-9.8,9.8V90H13.6c-2,0-3.6-1.6-3.6-3.6V38.5
			c0-2,1.7-3.5,3.7-3.5c0,0,0,0,0,0c0,0,0,0,0,0c2.9,0,5.2-2.3,5.2-5.2c0-0.1,0-0.3,0-0.4H19c0,0.1,0,0.3,0,0.4
			c0,2.9,2.3,5.2,5.2,5.2c2.9,0,5.2-2.3,5.2-5.2c0-0.1,0-0.3,0-0.4h0.1c0,0.1,0,0.3,0,0.4c0,2.9,2.3,5.2,5.2,5.2
			c2.9,0,5.2-2.3,5.2-5.2c0-0.1,0-0.3,0-0.4h0.1c0,0.1,0,0.3,0,0.4c0,2.9,2.3,5.2,5.2,5.2c2.9,0,5.2-2.3,5.2-5.2c0-0.1,0-0.3,0-0.4
			H50c0,0.1,0,0.3,0,0.4c0,2.9,2.3,5.2,5.2,5.2c2.9,0,5.2-2.3,5.2-5.2c0-0.1,0-0.3,0-0.4h0.1c0,0.1,0,0.3,0,0.4
			c0,2.9,2.3,5.2,5.2,5.2c2.9,0,5.2-2.3,5.2-5.2c0-0.1,0-0.3,0-0.4h0.1c0,0.1,0,0.3,0,0.4c0,2.9,2.3,5.2,5.2,5.2
			c2.9,0,5.2-2.3,5.2-5.2C81.1,29.7,81,29.6,81.1,29.4L81.1,29.4L81.1,29.4z"/>
	</g>
</g>
</svg>
