<?xml version="1.0" encoding="utf-8"?>
<!-- Generator: Adobe Illustrator 24.2.3, SVG Export Plug-In . SVG Version: 6.00 Build 0)  -->
<svg version="1.1" id="Layer_1" xmlns="http://www.w3.org/2000/svg" xmlns:xlink="http://www.w3.org/1999/xlink" x="0px" y="0px"
	 viewBox="0 0 100 100" style="enable-background:new 0 0 100 100;" xml:space="preserve">
<style type="text/css">
	.st0{fill:#231F20;}
</style>
<path class="st0" d="M14.7,2.5l82.8,82.8c3.3,3.3,3.4,8.8,0,12.2l0,0c-3.3,3.3-8.8,3.4-12.2,0L2.5,14.7c-3.4-3.4-3.3-8.8,0-12.2l0,0
	C5.9-0.8,11.3-0.9,14.7,2.5z"/>
<path class="st0" d="M2.5,85.3L85.3,2.5c3.3-3.3,8.8-3.4,12.2,0l0,0c3.3,3.3,3.4,8.8,0,12.2L14.7,97.5c-3.4,3.4-8.8,3.3-12.2,0l0,0
	C-0.8,94.1-0.8,88.7,2.5,85.3z"/>
</svg>
