<?xml version="1.0" encoding="utf-8"?>
<!-- Generator: Adobe Illustrator 24.1.2, SVG Export Plug-In . SVG Version: 6.00 Build 0)  -->
<svg version="1.1" id="Layer_1" xmlns="http://www.w3.org/2000/svg" xmlns:xlink="http://www.w3.org/1999/xlink" x="0px" y="0px"
	 viewBox="0 0 1440 76" style="enable-background:new 0 0 1440 76;" xml:space="preserve">
<style type="text/css">
	.st0{fill:#FD3B3B;}
</style>
<path class="st0" d="M1402.1,0L1402.1,0c-20.9,0-37.9,17-37.9,37.9c0-20.9-17-37.9-37.9-37.9h0c-20.9,0-37.9,17-37.9,37.9
	c0-20.9-17-37.9-37.9-37.9l0,0c-20.9,0-37.9,17-37.9,37.9c0-20.9-17-37.9-37.9-37.9l0,0c-20.9,0-37.9,17-37.9,37.9
	c0-20.9-17-37.9-37.9-37.9h0c-20.9,0-37.9,17-37.9,37.9c0-20.9-17-37.9-37.9-37.9h0c-20.9,0-37.9,17-37.9,37.9
	c0-20.9-17-37.9-37.9-37.9h0c-20.9,0-37.9,17-37.9,37.9c0-20.9-17-37.9-37.9-37.9h0c-20.9,0-37.9,17-37.9,37.9
	c0-20.9-17-37.9-37.9-37.9h0c-20.9,0-37.9,17-37.9,37.9C757.9,17,740.9,0,720,0h0c-20.9,0-37.9,17-37.9,37.9
	c0-20.9-17-37.9-37.9-37.9h0c-20.9,0-37.9,17-37.9,37.9c0-20.9-17-37.9-37.9-37.9h0c-20.9,0-37.9,17-37.9,37.9
	c0-20.9-17-37.9-37.9-37.9h0c-20.9,0-37.9,17-37.9,37.9c0-20.9-17-37.9-37.9-37.9h0c-20.9,0-37.9,17-37.9,37.9
	C378.9,17,362,0,341.1,0h0c-20.9,0-37.9,17-37.9,37.9c0-20.9-17-37.9-37.9-37.9h0c-20.9,0-37.9,17-37.9,37.9
	c0-20.9-17-37.9-37.9-37.9h0c-20.9,0-37.9,17-37.9,37.9c0-20.9-17-37.9-37.9-37.9h0C92.8,0,75.8,17,75.8,37.9C75.8,17,58.8,0,37.9,0
	h0C17,0,0,17,0,37.9v37.9h75.8h75.8h75.8h75.8h75.8h75.8h75.8h75.8h75.8h75.8h75.8h75.8h75.8h75.8h75.8h75.8h75.8h75.8h75.8V37.9
	C1440,17,1423,0,1402.1,0z"/>
</svg>
