<svg width="105" height="24" viewBox="0 0 105 24" fill="none" xmlns="http://www.w3.org/2000/svg">
<g clip-path="url(#clip0)">
<path d="M49 6C50.6569 6 52 4.65685 52 3C52 1.34315 50.6569 0 49 0C47.3431 0 46 1.34315 46 3C46 4.65685 47.3431 6 49 6Z" fill="#7835CF"/>
<path d="M62.1 6C63.7569 6 65.1 4.65685 65.1 3C65.1 1.34315 63.7569 0 62.1 0C60.4431 0 59.1 1.34315 59.1 3C59.1 4.65685 60.4431 6 62.1 6Z" fill="#FFE44D"/>
<path d="M25.6 6C27.2569 6 28.6 4.65685 28.6 3C28.6 1.34315 27.2569 0 25.6 0C23.9431 0 22.6 1.34315 22.6 3C22.6 4.65685 23.9431 6 25.6 6Z" fill="#3FF0E1"/>
<path d="M38 6C39.6569 6 41 4.65685 41 3C41 1.34315 39.6569 0 38 0C36.3431 0 35 1.34315 35 3C35 4.65685 36.3431 6 38 6Z" fill="#FF5252"/>
<path d="M79.7 5.7H81.5C81.5 5.7 81.5 5.7 81.6 5.7C83 5.7 84.1 4.6 84.1 3.3C84.1 1.9 83 0.8 81.7 0.7H79.8C79.7 0.7 79.7 0.7 79.6 0.7C75.8 0.9 72.7 3.7 71.9 7.4C71.6 8.8 71.6 15.4 71.9 16.8C72.6 20.5 75.8 23.2 79.6 23.5C79.7 23.5 79.7 23.5 79.8 23.5H81.6C83 23.5 84.1 22.4 84.1 21C84.1 19.6 83 18.5 81.6 18.5H79.9C78.4 18.4 77.2 17.3 76.9 15.9C76.8 15 76.8 9.4 76.9 8.5C77 6.9 78.2 5.8 79.7 5.7Z" fill="#070707"/>
<path d="M103.8 19.4L99 13C98.9 12.8 98.9 12.6 99.1 12.4C101.1 10.5 102.9 7.3 102.2 2.8C102 1.5 100.9 0.4 99.5 0.5C98 0.6 97 2 97.2 3.4C97.8 7 95.5 8.9 94.4 9.6C94.2 9.7 93.9 9.6 93.9 9.3V3C93.9 1.6 92.8 0.5 91.4 0.5C90 0.5 88.9 1.6 88.9 3L89 21C89 22.4 90.1 23.5 91.5 23.5C92.9 23.5 94 22.4 94 21V15.6C94 15.3 94.4 15.2 94.6 15.4L99.9 22.5C100.4 23.2 101.1 23.5 101.9 23.5C102.4 23.5 103 23.3 103.4 23C104.5 22.2 104.6 20.5 103.8 19.4Z" fill="#070707"/>
<path d="M49 10.2C47.6 10.2 46.5 11.3 46.5 12.7V21C46.5 22.4 47.6 23.5 49 23.5C50.4 23.5 51.5 22.4 51.5 21V12.7C51.5 11.3 50.4 10.2 49 10.2Z" fill="#070707"/>
<path d="M62.1 10.2C60.7 10.2 59.6 11.3 59.6 12.7V21C59.6 22.4 60.7 23.5 62.1 23.5C63.5 23.5 64.6 22.4 64.6 21V12.7C64.6 11.3 63.4 10.2 62.1 10.2Z" fill="#070707"/>
<path d="M37.8 9.6C36.4 9.6 35.3 10.7 35.3 12.1V15.4C35.2 16.9 34.1 18.1 32.6 18.4C31.9 18.5 31.4 18.5 30.7 18.4C29.2 18.1 28.2 16.9 28 15.4V12.3C28 10.9 26.9 9.8 25.5 9.8C24.1 9.8 23 10.9 23 12.3V15.5C23 15.6 23 15.6 23 15.7C23.2 19.5 26 22.6 29.7 23.4C30.4 23.5 31 23.6 31.6 23.6C32.2 23.6 32.8 23.5 33.5 23.4C37.2 22.7 39.9 19.5 40.2 15.7C40.2 15.6 40.2 15.6 40.2 15.5V12.1C40.3 10.7 39.2 9.6 37.8 9.6Z" fill="#070707"/>
<path d="M17.6 8C16.9 4.3 13.7 1.6 9.9 1.3C9.8 1.3 9.8 1.3 9.7 1.3H8C7.9 1.3 7.9 1.3 7.8 1.3C4.1 1.5 0.899998 4.3 0.199998 8C-0.100002 9.4 -0.100002 16 0.199998 17.4C0.899998 21 4.1 23.8 7.9 24H8H9.8C9.9 24 9.9 24 10 24C11.2 23.9 12.4 23.6 13.4 23C13.5 23.1 13.6 23.2 13.6 23.2C14.1 23.7 14.7 23.9 15.4 23.9C16.1 23.9 16.8 23.6 17.3 23C18.2 22 18 20.5 17.1 19.5L15.1 17.4C15.4 16.4 17.6 18 17.8 17.2C17.9 16 17.9 9.3 17.6 8ZM8.1 19C6.6 18.9 5.4 17.8 5.1 16.4C5 15.4 5 9.9 5.1 9C5.4 7.5 6.6 6.5 8.1 6.3H9.7C11.2 6.4 12.4 7.5 12.7 8.9C12.8 9.8 12.8 14.9 12.7 16.2C12 16.1 11.3 16.4 10.7 16.9C10.1 17.5 9.9 18.2 10 19C9.9 19 8.1 19 8.1 19Z" fill="#070707"/>
</g>
<defs>
<clipPath id="clip0">
<rect width="104.3" height="24" fill="white"/>
</clipPath>
</defs>
</svg>
