<?xml version="1.0" encoding="utf-8"?>
<!-- Generator: Adobe Illustrator 24.2.3, SVG Export Plug-In . SVG Version: 6.00 Build 0)  -->
<svg version="1.1" id="Layer_1" xmlns="http://www.w3.org/2000/svg" xmlns:xlink="http://www.w3.org/1999/xlink" x="0px" y="0px"
	 viewBox="0 0 42.5 23.5" style="enable-background:new 0 0 42.5 23.5;" xml:space="preserve">
<style type="text/css">
	.st0{fill:#070707;}
</style>
<g>
	<path class="st0" d="M26.4,6c1.7,0,3-1.3,3-3s-1.3-3-3-3s-3,1.3-3,3S24.7,6,26.4,6z"/>
	<path class="st0" d="M39.5,6c1.7,0,3-1.3,3-3s-1.3-3-3-3c-1.7,0-3,1.3-3,3S37.8,6,39.5,6z"/>
	<path class="st0" d="M3,6c1.7,0,3-1.3,3-3S4.7,0,3,0S0,1.3,0,3S1.3,6,3,6z"/>
	<path class="st0" d="M15.4,6c1.7,0,3-1.3,3-3s-1.3-3-3-3s-3,1.3-3,3S13.7,6,15.4,6z"/>
	<path class="st0" d="M26.4,10.2c-1.4,0-2.5,1.1-2.5,2.5V21c0,1.4,1.1,2.5,2.5,2.5s2.5-1.1,2.5-2.5v-8.3
		C28.9,11.3,27.8,10.2,26.4,10.2z"/>
	<path class="st0" d="M39.5,10.2c-1.4,0-2.5,1.1-2.5,2.5V21c0,1.4,1.1,2.5,2.5,2.5c1.4,0,2.5-1.1,2.5-2.5v-8.3
		C42,11.3,40.8,10.2,39.5,10.2z"/>
	<path class="st0" d="M15.2,9.6c-1.4,0-2.5,1.1-2.5,2.5v3.3c-0.1,1.5-1.2,2.7-2.7,3c-0.7,0.1-1.2,0.1-1.9,0c-1.5-0.3-2.5-1.5-2.7-3
		v-3.1c0-1.4-1.1-2.5-2.5-2.5s-2.5,1.1-2.5,2.5v3.2c0,0.1,0,0.1,0,0.2c0.2,3.8,3,6.9,6.7,7.7c0.7,0.1,1.3,0.2,1.9,0.2
		s1.2-0.1,1.9-0.2c3.7-0.7,6.4-3.9,6.7-7.7c0-0.1,0-0.1,0-0.2v-3.4C17.7,10.7,16.6,9.6,15.2,9.6z"/>
</g>
</svg>
