<?xml version="1.0" encoding="utf-8"?>
<!-- Generator: Adobe Illustrator 24.1.2, SVG Export Plug-In . SVG Version: 6.00 Build 0)  -->
<svg version="1.1" id="Layer_1" xmlns="http://www.w3.org/2000/svg" xmlns:xlink="http://www.w3.org/1999/xlink" x="0px" y="0px"
	 viewBox="0 0 100.3 109.2" style="enable-background:new 0 0 100.3 109.2;" xml:space="preserve">
<style type="text/css">
	.st0{fill:#E82E2E;}
</style>
<g>
	<path class="st0" d="M74.7,8.6c0.2-0.9-0.3-2.2-1.1-3c-0.6-0.5-1.3-0.7-1.9-0.4c-0.3,0.1-0.8,0.6-1,0.9c-0.1,0.4-0.1,0.8,0.1,1
		c0.1,0.2,0.3,0.2,0.5,0.2c-0.1,0.1-0.2,0.1-0.3,0.2c-0.3,0.2-0.7,0.2-1,0.3C69.7,8,69.4,8,69.3,8.2c-0.1,0.2,0,0.4,0.2,0.8
		c0.2,0.4,0.4,0.6,0.6,0.6c0.3,0.1,0.5-0.2,0.8-0.4c0.2-0.2,0.4-0.4,0.8-0.6c0.1,0,0.2-0.1,0.3-0.1c-0.1,0.3,0,0.6,0.2,0.9
		C72.3,9.8,72.6,10,73,10C74,10,74.6,9.3,74.7,8.6z M71.8,7.4C71.8,7.4,71.8,7.3,71.8,7.4l-0.1,0c-0.2,0-0.4-0.1-0.6-0.2
		c-0.2-0.2-0.3-0.5-0.2-0.8c0.1-0.3,0.6-0.7,0.9-0.8c0.6-0.2,1.2-0.1,1.7,0.4c0.7,0.6,1.1,1.8,0.9,2.6c0,0.1-0.1,0.3-0.1,0.4
		c-0.2,0.4-0.7,0.8-1.3,0.8c-0.2,0-0.5-0.1-0.6-0.4c-0.2-0.3-0.3-0.7-0.2-1v0h0c-0.1,0-0.4,0.2-0.5,0.2c-0.3,0.1-0.5,0.3-0.7,0.5
		c-0.3,0.2-0.5,0.4-0.7,0.4c-0.1,0-0.3-0.2-0.4-0.4c-0.1-0.3-0.2-0.4-0.1-0.6c0.1-0.2,0.3-0.2,0.7-0.3C70.6,8,71,7.9,71.3,7.8
		c0.1-0.1,0.3-0.2,0.5-0.3l0,0C71.8,7.4,71.8,7.4,71.8,7.4z"/>
	<path class="st0" d="M71.8,8.1L71.8,8.1l0,0.1l0,0h0.1c0,0,0.5-0.2,1-0.1c0,0,0.1,0,0.1-0.1c0,0,0-0.1-0.1-0.1
		C72.4,7.8,71.9,8.1,71.8,8.1z"/>
	<path class="st0" d="M71.7,7.8L71.7,7.8l0.1,0c0,0,0.3-0.4,0.7-0.5l0,0V7.2l0,0h-0.1c-0.4,0.1-0.8,0.6-0.8,0.6l0,0
		C71.6,7.8,71.6,7.8,71.7,7.8z"/>
	<path class="st0" d="M71.8,8L71.8,8l0.1,0c0.2-0.2,0.9-0.4,0.9-0.4c0,0,0.1-0.1,0-0.1c0,0-0.1-0.1-0.1,0C72.7,7.5,72,7.7,71.8,8
		C71.8,7.9,71.8,8,71.8,8z"/>
</g>
<g>
	<path class="st0" d="M21.2,4c-1.2-1.1-2.6-1.7-2.9-1.2c-0.4,0.4,0.3,1.7,1.6,2.8c1.2,1.1,2.6,1.7,2.9,1.2C23.2,6.4,22.5,5.1,21.2,4
		z M20.1,5.5c-1-0.9-1.7-2-1.4-2.3c0.3-0.3,1.4,0.1,2.4,1.1c1,0.9,1.7,2,1.4,2.3C22.3,6.9,21.2,6.4,20.1,5.5z"/>
	<path class="st0" d="M22.8,6.8l-5.8,5.5l5.3-5.3L22.8,6.8z"/>
	<path class="st0" d="M17.1,12.1c-0.4,0.2-1.3-0.1-2.1-0.8c-0.8-0.7-1.2-1.4-1.1-1.9l4-6c0,0-4.3,5.7-4.4,5.9
		c-0.3,0.3,0.3,1.3,1.2,2.1c1,0.8,2,1.3,2.3,1C17.1,12.2,17.1,12.2,17.1,12.1z"/>
	<path class="st0" d="M24.8,3.8l-3.6,1.3c0,0-0.1,0.1,0,0.1c0,0,0.1,0.1,0.1,0c0,0,3.1-1.1,3.4-1.2c0,0.1,0,0.1,0,0.2
		c0,0,0,0.1,0,0.1c0,0.1,0.1,0.1,0.1,0.1c-0.4,0.1-3.1,1.1-3.1,1.1s0,0,0,0c0,0,0,0-0.1,0c-0.1,0-0.1,0-0.2-0.2c0,0-0.1,0-0.1,0
		c0,0,0,0.1,0,0.1c0.1,0.2,0.2,0.3,0.4,0.3c0.1,0,0.2,0,0.2-0.1c0,0,3.3-1.2,3.3-1.2c0,0,0.1,0,0.1-0.1l0,0c0,0,0-0.1-0.1-0.1
		c-0.1,0-0.2-0.1-0.2-0.1c0,0,0,0,0-0.1c0-0.1,0.1-0.2,0.1-0.2v0v0C24.8,3.8,24.8,3.8,24.8,3.8z"/>
	<path class="st0" d="M17.6,5.7c-0.6-0.2-1.7,0-1.8,0.5c0,0,0,0.1,0,0.1c0.1,0.2,0.8,0.7,1,0.6c0.1,0,0.1-0.1,0.1-0.1
		c0-0.1,0-0.1-0.1-0.1c0,0,0,0-0.1,0c0,0,0,0,0,0c-0.1,0-0.6-0.3-0.7-0.4c0.1-0.1,0.1-0.1,0.3-0.2c0.3-0.1,0.9-0.2,1.2-0.1
		c0.4,0.1,0.3,0.3,0.3,0.4s0,0.1,0.1,0.1c0.1,0,0.1,0,0.1-0.1C18.1,6.1,18,5.8,17.6,5.7z"/>
	<path class="st0" d="M18.2,7.1c-0.1-0.2-0.5-0.3-0.5-0.3s0,0-0.1,0s-0.1,0-0.1,0.1c-0.3,0-0.7,0.1-1,0.3c0,0-0.1,0-0.1,0.1
		c0,0,0,0.1,0,0.1c0.2,0.2,0.9,0.4,1.4,0.3c0.2,0,0.3-0.2,0.3-0.2C18.2,7.2,18.2,7.1,18.2,7.1z M18,7.2c0,0,0,0.1,0,0.1
		c0,0,0,0.1-0.1,0.1c0,0-0.1,0-0.1,0c-0.3,0.1-0.8-0.1-1-0.2c0.3-0.1,0.7-0.2,1-0.1C17.9,7.1,17.9,7.1,18,7.2L18,7.2
		C18,7.1,18,7.2,18,7.2z"/>
	<path class="st0" d="M18.9,7.5c0-0.1-0.1-0.1-0.1-0.1c-0.3,0.1-0.6,0.2-0.9,0.3C17.6,7.8,17.3,7.9,17,8c-0.1,0-0.1,0.1-0.1,0.1
		c0,0.1,0.1,0.1,0.1,0.1c0.3-0.1,0.6-0.2,0.8-0.3c0.3-0.1,0.6-0.2,0.9-0.3C18.9,7.6,19,7.5,18.9,7.5z"/>
	<path class="st0" d="M18.8,8.1C18.5,8.1,18.2,8,18,8c-0.1,0-0.3-0.1-0.4-0.1c-0.1,0-0.1,0-0.1,0.1c0,0.1,0,0.1,0.1,0.1
		c0.1,0,0.3,0,0.4,0.1c0.3,0.1,0.6,0.1,0.9,0.1C19,8.3,19,8.2,19,8.2C18.9,8.2,18.9,8.1,18.8,8.1z"/>
	<path class="st0" d="M17.9,8c-0.1,0-0.1,0-0.1,0.1c-0.1,0.1-0.1,0.3-0.2,0.4c0,0.1-0.1,0.2-0.1,0.3c0-0.1,0.1-0.1,0.1-0.1
		c0.1,0,0.1,0.1,0.1,0.1c0.1-0.1,0.1-0.2,0.1-0.3c0.1-0.1,0.1-0.3,0.2-0.4C17.9,8.1,17.9,8.1,17.9,8z"/>
	<path class="st0" d="M19.3,9c-0.1-0.3-0.4-0.6-0.9-0.5c-0.3,0.1-0.5,0.3-0.5,0.5c0,0.1,0.1,0.4,0.6,0.5c0.1,0,0.1,0,0.1-0.1
		c0-0.1,0-0.1-0.1-0.1c-0.2-0.1-0.3-0.1-0.3-0.2c0-0.1,0-0.1,0.1-0.2c0,0,0,0.1,0,0.1c0.3,0.3,0.7,0.3,1,0.2
		C19.3,9.1,19.3,9.1,19.3,9C19.3,9,19.3,9,19.3,9z M18.4,8.7c0.1,0,0.4,0,0.6,0.2C18.7,9,18.4,8.8,18.4,8.7
		C18.4,8.7,18.4,8.7,18.4,8.7z"/>
	<path class="st0" d="M18.4,4.7c0,0,0.6,2.2,2.1,4l-0.2,0.2C20.3,8.9,18.8,7.3,18.4,4.7z"/>
	<path class="st0" d="M15.8,6.8c0,0,1.2,2,3,3.3l-0.2,0.3C18.7,10.4,16.9,9.2,15.8,6.8z"/>
</g>
<path class="st0" d="M63.6,3.4c-0.1,0-0.4,0-0.6,0.1l-5.9,4.1C57.1,7.5,57,7.1,57,7.1c-0.1-0.2-0.2-0.4-0.4-0.4
	c-0.2,0-0.3,0-0.5,0.1l-3.1,2.5c-0.3,0.2-0.4,0.7-0.2,1c0,0,0,0,0.1,0c0,0,0,0,0.1,0c0,0,2.5-1.7,2.7-1.8c0,0.1,0.1,0.1,0.1,0.2
	c-0.1,0.1-2.7,1.7-2.7,1.7s0,0,0,0.1s0,0,0,0.1l0.3,0.5c0,0,0.1,0.1,0.1,0c0,0,2.6-1.6,2.7-1.6c0,0.1,0.1,0.2,0.1,0.2
	c-0.1,0.1-2.8,1.5-2.8,1.5s0,0,0,0.1s0,0,0,0.1c0.2,0.3,0.6,0.4,1,0.2l3.6-1.6c0.2-0.1,0.3-0.2,0.3-0.4s0-0.3-0.1-0.5
	c0,0-0.4-0.4-0.5-0.5L64,5.3c0.1-0.1,0.3-0.3,0.4-0.4c0-0.2-0.1-0.5-0.2-0.7L64,3.8C64,3.6,63.8,3.5,63.6,3.4z M57.1,7.8
	C57.2,7.8,57.2,7.8,57.1,7.8l0.1-0.1l6-4c0.1-0.1,0.2-0.1,0.3-0.1c0.1,0,0.3,0.1,0.3,0.3l0.2,0.3c0.1,0.1,0.1,0.3,0.1,0.4
	c0,0.1-0.1,0.2-0.2,0.3l-6.3,3.4l-0.1,0c0,0,0,0,0,0.1c0,0,0,0.1,0,0.1L58,9.1C58,9.2,58.1,9.3,58,9.5l0,0c0,0.1-0.1,0.2-0.2,0.3
	l-3.5,1.6c-0.2,0.1-0.5,0.1-0.7-0.1c0.2-0.1,2.8-1.5,2.8-1.5s0,0,0-0.1c0,0,0,0,0-0.1l-0.2-0.4c0,0,0,0-0.1,0c0,0,0,0-0.1,0
	c0,0-2.6,1.6-2.7,1.6c-0.1-0.1-0.1-0.3-0.2-0.3c0.1-0.1,2.7-1.7,2.7-1.7s0,0,0-0.1c0,0,0,0,0-0.1l-0.2-0.3c0,0,0,0-0.1,0
	c0,0,0,0-0.1,0c0,0-2.5,1.7-2.6,1.8c-0.1-0.1-0.1-0.2,0-0.4c0-0.1,0.1-0.2,0.2-0.3L56.1,7c0.1-0.1,0.2-0.1,0.4-0.1
	c0.1,0,0.2,0.1,0.3,0.2L57.1,7.8C57.1,7.8,57.1,7.8,57.1,7.8z"/>
<g>
	<path class="st0" d="M92.1,7.2C90.9,8,90.2,9,90.4,9.4c0.3,0.4,1.4,0.1,2.7-0.7C94.3,7.9,95,7,94.7,6.6C94.5,6.1,93.3,6.4,92.1,7.2
		z M93.1,8.5c-1,0.7-2,0.9-2.2,0.6s0.4-1.1,1.4-1.8c1-0.7,2-0.9,2.2-0.6C94.7,7,94.1,7.8,93.1,8.5z"/>
	<path class="st0" d="M91.6,6.4c-0.9,0.6-1.5,1.3-1.3,1.7c0.2,0.3,1.1,0.1,2-0.5c0.9-0.6,1.5-1.3,1.3-1.7
		C93.4,5.6,92.5,5.8,91.6,6.4z M92.4,7.4c-0.8,0.5-1.6,0.7-1.7,0.4C90.5,7.6,91,7,91.7,6.5C92.5,6,93.3,5.8,93.5,6
		C93.6,6.3,93.1,6.9,92.4,7.4z"/>
	<path class="st0" d="M94.7,6.6l2.8,5.3L94.8,7L94.7,6.6z"/>
	<path class="st0" d="M97.4,11.7c0.1,0.4-0.4,1.1-1.2,1.6c-0.7,0.5-1.4,0.7-1.9,0.5l-3.6-4c0,0,3.2,4.1,3.3,4.2
		c0.2,0.3,1.1,0.1,2.1-0.5s1.5-1.3,1.3-1.7C97.5,11.8,97.4,11.7,97.4,11.7z"/>
	<path class="st0" d="M90.3,8.1l1,0.8l-0.6-0.9L90.3,8.1z"/>
	<path class="st0" d="M93.6,5.9l0.6,1.2l-0.6-0.9V5.9z"/>
	<path class="st0" d="M91.3,8.9c0,0,1,0.1,1.9-0.8c0,0-1.1,0.8-2.1,0.6L91.3,8.9z"/>
	<path class="st0" d="M91.5,7.2c0,0.1,0,0.2-0.2,0.3C91.2,7.6,91,7.6,91,7.6c0-0.1,0-0.2,0.2-0.3C91.3,7.2,91.4,7.1,91.5,7.2z"/>
	<path class="st0" d="M92.9,6.2c0,0.1,0,0.2-0.2,0.3c-0.1,0.1-0.3,0.1-0.3,0.1c0-0.1,0-0.2,0.2-0.3C92.7,6.2,92.8,6.2,92.9,6.2z"/>
	<path class="st0" d="M92.4,6.9c0,0.1,0,0.2-0.2,0.3c-0.1,0.1-0.3,0.1-0.3,0.1c0-0.1,0-0.2,0.2-0.3C92.2,6.8,92.3,6.8,92.4,6.9z"/>
	<path class="st0" d="M92.2,6.6c0,0.1,0,0.2-0.2,0.3c-0.1,0.1-0.3,0.1-0.3,0.1c0-0.1,0-0.2,0.2-0.3S92.1,6.5,92.2,6.6z"/>
	<path class="st0" d="M91.7,4.4l0.4,0.2l0.1-0.3L91.9,4L91.7,4.4z"/>
	<path class="st0" d="M92.7,3.3l0.2,0.6c0.3-0.1,0.2-0.5,0.2-0.5L92.7,3.3z"/>
	<path class="st0" d="M93.7,2.4l0.1,0.5l0.3-0.2C94.1,2.4,93.7,2.4,93.7,2.4z"/>
	<path class="st0" d="M93.8,0.9v0.4c0.3,0,0.3,0,0.3,0l0.1-0.4L93.8,0.9z"/>
	<path class="st0" d="M95.3,3.2l-0.1,0.5c0.3,0.1,0.4-0.4,0.4-0.4L95.3,3.2z"/>
	<path class="st0" d="M95.1,1.6l0.4,0.5l0.3-0.3C95.5,1.5,95.1,1.6,95.1,1.6z"/>
</g>
<g>
	<path class="st0" d="M2.9,9.8C3.2,9.9,3.6,10,4,10c0.2,0.3,0.6,0.5,0.9,0.6c1.3,0.6,2.9-0.1,3.6-1.6C9,7.6,8.2,5.6,6.9,5
		C6.6,4.9,6.3,4.9,6.1,4.9C5.9,4.7,5.7,4.6,5.5,4.5c-1.3-0.6-3.3,0.2-4,1.7C0.9,7.6,1.5,9.2,2.9,9.8z M5.4,4.6C5.6,4.7,5.8,4.8,6,5
		c0.2,0,0.4,0,0.7,0.1C7.8,5.7,8.5,7.4,8,8.7c-0.6,1.3-2,1.9-3.1,1.4c-0.3-0.1-0.6-0.3-0.8-0.6c-0.3,0-0.7,0-1-0.2
		c-1.2-0.5-1.7-2-1.2-3.2S4.2,4.1,5.4,4.6z"/>
	<path class="st0" d="M2.7,8.4C2.9,9.1,3.6,9.3,4,9.3c0.6,1,1.7,0.6,1.7,0.6c-0.6,0-0.9-0.4-0.9-0.4s0.4,0.3,1.3-0.1
		c0,0-0.3,0.1-0.9-0.3c0,0,0.3-0.2,0.3-0.7L4.6,8.8c0,0-0.6-0.3-0.8-0.7c0,0-0.1,0.1,0,0.6C3.4,8.7,2.7,8.4,2.7,8.4z"/>
	<path class="st0" d="M6.9,5.9c0.4,0.4,0.9,1.1,1.1,2.4c0,0,0.2-1.6-0.9-2.5L6.9,5.9z"/>
	<path class="st0" d="M6.7,5.8l0.1-0.2C6.6,5.5,6.4,5.4,6.2,5.3L6.1,5.5C6.1,5.5,6.3,5.5,6.7,5.8z"/>
</g>
<g>
	<path class="st0" d="M47.5,6.4c-0.1-0.2-0.2-0.3-0.3-0.4c-0.3-1.8-1.4-1.5-1.9-1.2c-0.4-1.7-1.6-1.2-2-0.9c0.6-0.1,1.5-0.1,2,0.9
		c0,0-0.1,0-0.1,0.1c0,0,0.1,0,0.1,0c0,0.1,0.1,0.2,0.1,0.3c0-0.1,0-0.2-0.1-0.3c0.6-0.1,1.4,0,1.9,1c-0.7-0.7-1.7-0.6-2.1-0.5
		C44.9,5,44.2,3.8,42.8,4c0,0-1.4,0-1.6,1.8c0,0-0.1,1.6-0.2,2.2c0,0-0.9,1.6,0.2,2.1c0,0,0.4,0.4,1.2,0.2c0.3,0.8,0.9,0.9,0.9,0.9
		c1.1,0.6,1.9-1,1.9-1c0.5-0.5,1.7-1.5,1.7-1.5C48.4,7.6,47.5,6.4,47.5,6.4z M46.7,8.6c0,0-1.1,1-1.5,1.4c0,0-0.7,1.5-1.7,1
		c0,0-0.4-0.1-0.7-0.7c0.2,0.1,0.5,0.1,0.8-0.2c-0.4,0.2-0.9,0-0.9,0c-0.5-0.3-0.6-0.7-0.6-1c-0.1,0.3-0.1,0.7,0.3,1.1
		c-0.6,0.1-0.9-0.2-0.9-0.2c-1-0.5-0.2-2-0.2-2c0.1-0.6,0.3-2.1,0.3-2.1c0.2-1.7,1.4-1.7,1.4-1.7c1.2-0.2,1.8,0.7,1.9,1.1
		c-0.5-0.2-1,0-1.3,0.2c0.6-0.1,1.7,0,2.1,1.4c-0.1-0.9-0.4-1.3-0.7-1.5c0.4-0.1,1.5-0.2,2.1,0.9C47.2,6.5,47.9,7.6,46.7,8.6z"/>
	<path class="st0" d="M45.8,7.1l0.1,0.1l0,0L45.8,7.1z"/>
	<path class="st0" d="M45.3,5.2l0.1,0.1l0,0L45.3,5.2z"/>
	<path class="st0" d="M46.4,3.7c0,0-0.7,0.1-1.2,1.7c0,0,0.8-1.2,1.8-1.3C47,4.1,47,3.6,46.4,3.7z"/>
</g>
<g>
	<path class="st0" d="M30.7,6.6c0,0,1.9,1.7,3.4,1.9c0,0,0.4-0.1,0.6-1s0.6-1.7,0.7-2.2c0.1-0.4,0.3-1.7,0.3-1.7s0.5-1-0.5-0.4
		c0,0-1.1,0.7-2.1,1.3c-1,0.6-1.8,0.8-2.5,1.3C30.6,5.9,30.1,6.2,30.7,6.6z M30.9,5.9c0.6-0.5,1.3-0.7,2.2-1.1
		c0.9-0.5,1.9-1.1,1.9-1.1C35.8,3.1,35.3,4,35.3,4S35.1,5,35,5.4c-0.1,0.4-0.4,1-0.6,1.9c-0.1,0.8-0.6,0.9-0.6,0.9
		C32.6,7.9,31,6.6,31,6.6C30.6,6.1,30.9,5.9,30.9,5.9z"/>
	<path class="st0" d="M34.1,8.9c0,0,0.1,3.1-0.5,3.1c0,0-2.7-0.6-3.8-2.8l0.5-2.9c0,0,0.2,0.4,0,2.2c0,0-0.2,0.5,0,0.8
		c0,0,0.9,1.7,2.9,2.1c0,0,0.6,0,0.4-0.8C33.8,10.6,34.1,8.2,34.1,8.9z"/>
	<path class="st0" d="M35.8,3.6c0,0,0,2.9,0.1,3.5c0,0-1.2,3.6-1.9,4.8c0,0-0.1,0.1,0.4-1.6s1.1-2.9,1.1-2.9S35.5,4.4,35.8,3.6z"/>
</g>
<g>
	<path class="st0" d="M84.1,5c-0.1-0.9-0.9-2.2-2.3-2.2s-1.9-0.3-1.9-0.3s-0.7-0.8,0.2,1.2c1,2.3,2.5,2.2,3,2.2
		c0.8,0,1.3,0.2,1.3,0.2C84.2,5.8,84.1,5,84.1,5z M83,5.7c-0.5,0-1.7,0.1-2.6-1.8c-0.8-1.7-0.2-1-0.2-1s0.4,0.2,1.6,0.2
		s1.9,1.1,2,1.8c0,0,0.1,0.4,0.2,0.8c-0.1,0-0.3-0.1-0.6-0.3c-0.6-0.9-0.8-1.9-0.8-1.9c0.1,0.9,0.4,1.4,0.6,1.8
		C83,5.1,82.8,5,82.6,4.9c-0.5-0.7-0.7-1.4-0.7-1.4C82,4,82.2,4.5,82.3,4.7c-0.5-0.3-1.1-0.8-1.6-1.3c0,0,0.4,0.5,1.1,1.1l0,0
		c-0.6,0-1.1-0.3-1.1-0.3c0.3,0.3,1,0.4,1.3,0.4c0.2,0.1,0.4,0.3,0.6,0.5h0c-0.6,0.2-1.2-0.1-1.2-0.1c0.4,0.3,1.1,0.2,1.4,0.2
		c0.2,0.1,0.5,0.3,0.8,0.4C83.4,5.7,83.2,5.7,83,5.7z M84,5.9L84,5.9c0,0,0.1,0,0.1,0C84.1,5.9,84.1,5.9,84,5.9z"/>
	<path class="st0" d="M84.1,7.6C83.3,8,82.2,9,82.6,10.4c0.4,1.4,0.2,1.9,0.2,1.9s-0.6,0.9,1.1-0.5c1.9-1.6,1.4-3,1.3-3.5
		C85.1,7.5,85.2,7,85.2,7C84.8,7.3,84.1,7.6,84.1,7.6z M85,8.5c0.1,0.4,0.6,1.6-1.1,3c-1.4,1.2-1,0.4-1,0.4s0.1-0.4-0.2-1.6
		C82.5,9.1,83.3,8.2,84,8c0,0,0.4-0.2,0.7-0.4c0,0.1,0,0.3-0.1,0.6C83.9,9,83,9.5,83,9.5c0.8-0.3,1.3-0.7,1.6-1
		c0,0.2-0.1,0.4-0.2,0.6c-0.5,0.7-1.1,1.1-1.1,1.1c0.5-0.2,0.8-0.5,1-0.7c-0.2,0.6-0.4,1.2-0.8,1.9c0,0,0.4-0.6,0.8-1.4l0,0
		c0.2,0.6,0,1.1,0,1.1c0.2-0.4,0.1-1,0.1-1.3c0.1-0.2,0.2-0.5,0.3-0.7v0c0.3,0.6,0.2,1.2,0.2,1.2c0.2-0.5-0.1-1.1-0.2-1.4
		c0.1-0.3,0.2-0.6,0.2-0.8C84.9,8.2,85,8.4,85,8.5z M84.9,7.5L84.9,7.5c0-0.1,0-0.1,0-0.1C84.9,7.4,84.9,7.5,84.9,7.5z"/>
</g>
<g>
	<path class="st0" d="M59.9,22.9c0.2-0.9-0.3-2.2-1.1-3c-0.6-0.5-1.3-0.7-1.9-0.4c-0.3,0.1-0.8,0.6-1,0.9c-0.1,0.4-0.1,0.8,0.1,1
		c0.1,0.2,0.3,0.2,0.5,0.2c-0.1,0.1-0.2,0.1-0.3,0.2c-0.3,0.2-0.7,0.2-1,0.3c-0.4,0.1-0.7,0.1-0.8,0.3c-0.1,0.2,0,0.4,0.2,0.8
		c0.2,0.4,0.4,0.6,0.6,0.6c0.3,0.1,0.5-0.2,0.8-0.4c0.2-0.2,0.4-0.4,0.8-0.6c0.1,0,0.2-0.1,0.3-0.1c-0.1,0.3,0,0.6,0.2,0.9
		c0.2,0.3,0.5,0.4,0.8,0.5C59.2,24.3,59.8,23.6,59.9,22.9z M57,21.6C57,21.6,57,21.6,57,21.6l-0.1,0c-0.2,0-0.4-0.1-0.6-0.2
		c-0.2-0.2-0.3-0.5-0.2-0.8c0.1-0.3,0.6-0.7,0.9-0.8c0.6-0.2,1.2-0.1,1.7,0.4c0.7,0.6,1.1,1.8,0.9,2.6c0,0.1-0.1,0.3-0.1,0.4
		c-0.2,0.4-0.7,0.8-1.3,0.8c-0.2,0-0.5-0.1-0.6-0.4c-0.2-0.3-0.3-0.7-0.2-1v0h0c-0.1,0-0.4,0.2-0.5,0.2c-0.3,0.1-0.5,0.3-0.7,0.5
		c-0.3,0.2-0.5,0.4-0.7,0.4c-0.1,0-0.3-0.2-0.4-0.4c-0.1-0.3-0.2-0.4-0.1-0.6c0.1-0.2,0.3-0.2,0.7-0.3c0.3-0.1,0.6-0.1,0.9-0.3
		c0.1-0.1,0.3-0.2,0.5-0.3l0,0C57,21.7,57,21.7,57,21.6z"/>
	<path class="st0" d="M57,22.4L57,22.4l0,0.1l0,0h0.1c0,0,0.5-0.2,1-0.1c0,0,0.1,0,0.1-0.1c0,0,0-0.1-0.1-0.1
		C57.5,22.1,57,22.4,57,22.4z"/>
	<path class="st0" d="M56.9,22.1L56.9,22.1l0.1,0c0,0,0.3-0.4,0.7-0.5l0,0v-0.1l0,0h-0.1c-0.4,0.1-0.8,0.6-0.8,0.6l0,0
		C56.8,22,56.8,22.1,56.9,22.1z"/>
	<path class="st0" d="M57,22.3L57,22.3l0.1,0c0.2-0.2,0.9-0.4,0.9-0.4c0,0,0.1-0.1,0-0.1c0,0-0.1-0.1-0.1,0
		C57.9,21.8,57.2,22,57,22.3C57,22.2,57,22.2,57,22.3z"/>
</g>
<g>
	<path class="st0" d="M4.4,18.9c-1.2,1.2-1.8,2.5-1.4,2.9s1.7-0.3,2.8-1.4c1.1-1.2,1.8-2.5,1.4-2.9C6.8,17,5.6,17.7,4.4,18.9z
		 M5.8,20c-1,1-2,1.6-2.3,1.3c-0.3-0.3,0.2-1.4,1.2-2.4c1-1,2-1.6,2.3-1.3C7.3,17.9,6.8,19,5.8,20z"/>
	<path class="st0" d="M7.2,17.4l5.2,6l-5.1-5.5L7.2,17.4z"/>
	<path class="st0" d="M12.3,23.3c0.2,0.4-0.2,1.3-0.9,2.1c-0.7,0.7-1.5,1.1-2,1l-5.8-4.3c0,0,5.5,4.5,5.7,4.6
		c0.3,0.3,1.3-0.2,2.2-1.1c0.9-0.9,1.3-1.9,1.1-2.2C12.4,23.3,12.4,23.3,12.3,23.3z"/>
	<path class="st0" d="M4.3,15.3L5.5,19c0,0,0.1,0.1,0.1,0c0,0,0.1-0.1,0-0.1c0,0-1-3.1-1.1-3.5c0.1,0,0.1,0,0.2,0c0,0,0.1,0,0.1,0
		c0.1,0,0.1-0.1,0.1-0.1c0.1,0.4,1,3.2,1,3.2s0,0,0,0c0,0,0,0,0,0.1c0,0.1,0,0.1-0.2,0.2c0,0,0,0.1,0,0.1c0,0,0.1,0,0.1,0
		c0.2-0.1,0.3-0.2,0.3-0.3c0-0.1,0-0.2-0.1-0.2c0,0-1-3.4-1-3.4C5,15.1,5,15,5,15l0,0c0,0-0.1,0-0.1,0.1c0,0.1-0.1,0.2-0.1,0.2
		c0,0,0,0-0.1,0c-0.1,0-0.2-0.1-0.2-0.1L4.3,15.3L4.3,15.3C4.3,15.2,4.3,15.3,4.3,15.3z"/>
	<path class="st0" d="M5.9,22.6c-0.2,0.6-0.1,1.7,0.4,1.9c0,0,0.1,0,0.1,0c0.2-0.1,0.7-0.8,0.7-1c0-0.1-0.1-0.1-0.1-0.1
		c-0.1,0-0.1,0-0.1,0.1c0,0,0,0,0,0.1c0,0,0,0,0,0c0,0.1-0.3,0.6-0.5,0.7c-0.1-0.1-0.1-0.1-0.2-0.3c-0.1-0.3-0.2-0.9,0-1.2
		c0.1-0.4,0.3-0.3,0.4-0.3c0.1,0,0.1,0,0.1-0.1c0-0.1,0-0.1-0.1-0.1C6.3,22,6.1,22.2,5.9,22.6z"/>
	<path class="st0" d="M7.3,22C7.1,22.1,7,22.5,7,22.6c0,0,0,0,0,0.1s0,0.1,0.1,0.1c0,0.3,0.1,0.7,0.2,1c0,0,0,0.1,0.1,0.1
		s0.1,0,0.1,0c0.2-0.1,0.4-0.9,0.4-1.4c0-0.2-0.1-0.3-0.2-0.4C7.5,22,7.4,22,7.3,22z M7.4,22.2c0,0,0.1,0,0.1,0c0,0,0.1,0,0.1,0.1
		c0,0,0,0.1,0,0.1c0,0.3-0.1,0.8-0.2,1c-0.1-0.3-0.2-0.7,0-1C7.4,22.4,7.4,22.4,7.4,22.2L7.4,22.2C7.4,22.3,7.4,22.2,7.4,22.2z"/>
	<path class="st0" d="M7.7,21.3c-0.1,0-0.1,0.1-0.1,0.1c0.1,0.3,0.2,0.6,0.3,0.9c0.1,0.3,0.1,0.6,0.3,0.9c0,0.1,0.1,0.1,0.1,0.1
		c0.1,0,0.1-0.1,0.1-0.1c-0.1-0.3-0.2-0.6-0.2-0.9C8.1,22,8,21.7,7.9,21.4C7.9,21.3,7.8,21.3,7.7,21.3z"/>
	<path class="st0" d="M8.4,21.5c0,0.3-0.1,0.6-0.1,0.9c0,0.1-0.1,0.3-0.1,0.4c0,0.1,0,0.1,0.1,0.1s0.1,0,0.1-0.1
		c0-0.1,0.1-0.3,0.1-0.4c0.1-0.3,0.1-0.6,0.1-0.9c0-0.1-0.1-0.1-0.1-0.1C8.5,21.4,8.4,21.4,8.4,21.5z"/>
	<path class="st0" d="M8.3,22.4c0,0.1,0,0.1,0.1,0.1c0.1,0.1,0.3,0.1,0.4,0.2c0.1,0,0.2,0.1,0.3,0.2C9,22.9,9,22.8,9,22.8
		c0-0.1,0.1-0.1,0.1-0.1c-0.1-0.1-0.2-0.1-0.3-0.2c-0.1-0.1-0.3-0.1-0.4-0.2C8.3,22.4,8.3,22.4,8.3,22.4z"/>
	<path class="st0" d="M9.3,21c-0.3,0.1-0.6,0.4-0.5,0.9c0.1,0.3,0.3,0.5,0.5,0.6c0.1,0,0.4-0.1,0.5-0.5c0-0.1,0-0.1-0.1-0.1
		c-0.1,0-0.1,0-0.1,0.1c-0.1,0.2-0.2,0.3-0.3,0.3c-0.1,0-0.1,0-0.2-0.1c0,0,0.1,0,0.1,0c0.3-0.3,0.4-0.7,0.3-1c0,0,0-0.1-0.1-0.1
		C9.3,21,9.3,21,9.3,21z M9,21.9c0-0.1,0-0.4,0.3-0.6C9.3,21.6,9.1,21.9,9,21.9C9,21.9,9,21.9,9,21.9z"/>
	<path class="st0" d="M5,21.7c0,0,2.3-0.6,4.1-2L9.3,20C9.2,20,7.6,21.4,5,21.7z"/>
	<path class="st0" d="M6.9,24.4c0,0,2.1-1.1,3.4-2.9l0.3,0.2C10.7,21.7,9.3,23.5,6.9,24.4z"/>
</g>
<path class="st0" d="M64.6,17.8c0,0.1,0.1,0.4,0.2,0.5l5.3,4.8c-0.1,0.1-0.4,0.3-0.4,0.3c-0.1,0.1-0.3,0.3-0.3,0.5s0.1,0.3,0.2,0.5
	l3.2,2.4c0.3,0.2,0.7,0.2,1,0c0,0,0,0,0-0.1s0,0,0-0.1c0,0-2.2-2.1-2.3-2.2c0.1-0.1,0.1-0.1,0.2-0.2c0.1,0.1,2.2,2.3,2.2,2.3
	c0,0,0,0,0.1,0s0,0,0.1,0l0.4-0.4c0,0,0-0.1,0-0.1c0,0-2.1-2.2-2.2-2.3c0.1-0.1,0.1-0.1,0.2-0.2c0.1,0.1,2.1,2.4,2.1,2.4
	c0,0,0,0,0.1,0c0,0,0,0,0.1,0c0.2-0.3,0.2-0.7,0-1l-2.4-3.2c-0.1-0.1-0.3-0.2-0.5-0.2c-0.2,0-0.3,0.1-0.5,0.2c0,0-0.3,0.5-0.4,0.6
	l-4.7-5.4c-0.1-0.1-0.4-0.3-0.5-0.2c-0.2,0-0.5,0.2-0.6,0.3L65,17.4C64.7,17.5,64.6,17.6,64.6,17.8z M70.4,23.1
	C70.4,23.1,70.4,23,70.4,23.1L70.3,23L65,18.1c-0.1-0.1-0.1-0.2-0.1-0.3c0-0.1,0-0.3,0.2-0.4l0.2-0.2c0.1-0.1,0.3-0.2,0.4-0.2
	S66,17,66,17.1l4.8,5.4l0.1,0.1c0,0,0,0,0.1,0c0,0,0.1,0,0.1,0l0.4-0.6c0.1-0.1,0.2-0.1,0.3-0.1l0,0c0.1,0,0.3,0.1,0.3,0.2l2.4,3
	c0.2,0.2,0.2,0.5,0,0.7c-0.1-0.1-2.1-2.4-2.1-2.4c0,0,0,0-0.1,0c0,0,0,0-0.1,0L72,23.7c0,0,0,0,0,0.1c0,0,0,0,0,0.1
	c0,0,2.1,2.2,2.2,2.3c-0.1,0.1-0.2,0.2-0.3,0.3c-0.1-0.1-2.2-2.3-2.2-2.3c0,0,0,0-0.1,0c0,0,0,0-0.1,0l-0.3,0.3c0,0,0,0,0,0.1
	s0,0,0,0.1c0,0,2.2,2,2.3,2.2c-0.1,0.1-0.2,0.1-0.3,0.1c-0.1,0-0.3-0.1-0.4-0.1l-3-2.4c-0.1-0.1-0.2-0.2-0.2-0.3
	c0-0.1,0.1-0.3,0.1-0.4L70.4,23.1C70.4,23.2,70.4,23.1,70.4,23.1z"/>
<g>
	<path class="st0" d="M79.2,22.8c0,1.4,0.3,2.6,0.8,2.6c0.5,0,0.9-1.1,1-2.6c0-1.4-0.3-2.6-0.8-2.6C79.7,20.2,79.3,21.4,79.2,22.8z
		 M80.9,22.7c0,1.2-0.4,2.2-0.8,2.2c-0.4,0-0.7-1-0.7-2.2c0-1.2,0.4-2.2,0.8-2.2C80.6,20.5,80.9,21.5,80.9,22.7z"/>
	<path class="st0" d="M78.3,22.7c0,1.1,0.3,2,0.7,2c0.4,0,0.7-0.9,0.8-2s-0.3-2-0.7-2C78.7,20.8,78.4,21.7,78.3,22.7z M79.6,22.7
		c0,0.9-0.3,1.7-0.6,1.7c-0.3,0-0.5-0.8-0.5-1.7c0-0.9,0.3-1.7,0.6-1.7C79.4,21,79.6,21.8,79.6,22.7z"/>
	<path class="st0" d="M80.2,20.2l5.9,0.8l-5.5-0.6L80.2,20.2z"/>
	<path class="st0" d="M86,21c0.4,0.1,0.7,0.9,0.7,1.9c0,0.9-0.3,1.6-0.7,1.8l-5.3,0.7c0,0,5.2-0.3,5.3-0.3c0.4,0,0.7-0.9,0.8-2
		c0-1.1-0.2-2-0.7-2C86.1,21,86,21,86,21z"/>
	<path class="st0" d="M79,24.7l1.2-0.3l-1.1,0L79,24.7z"/>
	<path class="st0" d="M79.1,20.8l1.4,0.2l-1.1,0L79.1,20.8z"/>
	<path class="st0" d="M80.2,24.4c0,0,0.6-0.8,0.4-2c0,0,0.1,1.4-0.8,2.1L80.2,24.4z"/>
	<path class="st0" d="M78.9,23.3c0.1,0,0.1,0.1,0.1,0.3c0,0.1-0.1,0.3-0.1,0.3c-0.1,0-0.1-0.1-0.1-0.3
		C78.8,23.4,78.9,23.3,78.9,23.3z"/>
	<path class="st0" d="M78.9,21.6c0.1,0,0.1,0.1,0.1,0.3c0,0.1-0.1,0.3-0.1,0.3c-0.1,0-0.1-0.1-0.1-0.3
		C78.8,21.7,78.9,21.6,78.9,21.6z"/>
	<path class="st0" d="M79.1,22.4c0.1,0,0.1,0.1,0.1,0.3c0,0.1-0.1,0.3-0.1,0.3c-0.1,0-0.1-0.1-0.1-0.3C79,22.5,79.1,22.4,79.1,22.4z
		"/>
	<path class="st0" d="M78.7,22.4c0.1,0,0.1,0.1,0.1,0.3c0,0.1-0.1,0.3-0.1,0.3c-0.1,0-0.1-0.1-0.1-0.3
		C78.6,22.5,78.7,22.3,78.7,22.4z"/>
	<path class="st0" d="M76.7,21.4l0.4-0.2L77,21L76.6,21L76.7,21.4z"/>
	<path class="st0" d="M76.3,20l0.6,0.1c0.1-0.3-0.3-0.5-0.3-0.5L76.3,20z"/>
	<path class="st0" d="M76.3,18.7l0.5,0.2l0-0.4C76.4,18.4,76.3,18.7,76.3,18.7z"/>
	<path class="st0" d="M75,17.8l0.3,0.2c0.2-0.3,0.2-0.3,0.2-0.3l-0.2-0.3L75,17.8z"/>
	<path class="st0" d="M77.7,17.9l0.4,0.4c0.3-0.2-0.1-0.5-0.1-0.5L77.7,17.9z"/>
	<path class="st0" d="M76.4,17.1L77,17l-0.1-0.4C76.5,16.7,76.4,17.1,76.4,17.1z"/>
</g>
<g>
	<path class="st0" d="M23.3,20.1c-0.4-0.1-0.8,0-1.1,0c-0.3-0.2-0.7-0.4-1-0.4c-1.4-0.3-2.9,0.8-3.1,2.3c-0.3,1.6,0.9,3.3,2.3,3.6
		c0.3,0.1,0.5,0,0.8,0c0.2,0.1,0.4,0.2,0.7,0.3c1.4,0.3,3.2-0.9,3.5-2.5C25.7,21.9,24.8,20.4,23.3,20.1z M21.9,25.7
		c-0.2-0.1-0.4-0.1-0.6-0.2c-0.2,0-0.4,0-0.7,0c-1.3-0.2-2.3-1.8-2.1-3.2c0.3-1.4,1.5-2.3,2.8-2.1c0.3,0,0.6,0.2,0.9,0.4
		c0.3-0.1,0.7-0.1,1,0c1.3,0.2,2.1,1.6,1.9,2.9C24.8,24.8,23.2,26,21.9,25.7z"/>
	<path class="st0" d="M23.8,21.5c-0.3-0.7-1.1-0.7-1.5-0.7c-0.8-0.9-1.8-0.2-1.8-0.2c0.6-0.1,1,0.2,1,0.2s-0.5-0.2-1.2,0.4
		c0,0,0.3-0.1,1,0.1c0,0-0.2,0.2-0.2,0.7l0.8-0.5c0,0,0.6,0.2,0.9,0.5c0,0,0.1-0.1-0.1-0.6C23,21.3,23.8,21.5,23.8,21.5z"/>
	<path class="st0" d="M20.2,24.7c-0.5-0.3-1.2-0.9-1.6-2.1c0,0,0.1,1.6,1.4,2.3L20.2,24.7z"/>
	<path class="st0" d="M20.5,24.9l-0.1,0.2c0.2,0.1,0.4,0.1,0.6,0.2l0.1-0.2C21.1,25,20.9,25,20.5,24.9z"/>
</g>
<g>
	<path class="st0" d="M33.7,18.4c-0.2,0-0.3,0.1-0.5,0.2c-1.9-0.2-1.8,1-1.6,1.6c-1.8,0-1.6,1.2-1.4,1.8c0-0.6,0.2-1.4,1.4-1.7
		c0,0,0,0.1,0,0.1c0,0,0-0.1,0-0.1c0.1,0,0.2,0,0.3,0c-0.1,0-0.2,0-0.3,0c0-0.6,0.3-1.4,1.5-1.5c-0.9,0.5-1,1.5-1,1.9
		c-0.4,0.1-1.7,0.4-1.9,1.9c0,0-0.3,1.4,1.3,2c0,0,1.5,0.5,2.1,0.8c0,0,1.3,1.2,2.1,0.3c0,0,0.5-0.3,0.5-1.2
		c0.8-0.1,1.1-0.7,1.1-0.7c0.8-0.9-0.6-2.1-0.6-2.1c-0.4-0.6-1.1-2-1.1-2C35,17.8,33.7,18.4,33.7,18.4z M35.7,19.8
		c0,0,0.7,1.3,1,1.8c0,0,1.3,1.1,0.6,1.9c0,0-0.2,0.4-0.8,0.6c0.1-0.2,0.2-0.5,0-0.9c0.1,0.5-0.2,0.8-0.2,0.8
		c-0.4,0.4-0.8,0.4-1.1,0.3c0.2,0.1,0.7,0.3,1.1-0.1c-0.1,0.6-0.4,0.9-0.4,0.9c-0.7,0.8-2-0.3-2-0.3c-0.6-0.3-2-0.8-2-0.8
		c-1.6-0.6-1.3-1.8-1.3-1.8c0.1-1.2,1.1-1.5,1.6-1.6c-0.3,0.4-0.2,1-0.2,1.3c0.1-0.7,0.4-1.7,1.9-1.7c-0.9-0.1-1.3,0.1-1.6,0.3
		c0-0.4,0.2-1.5,1.4-1.8C33.7,18.8,34.9,18.3,35.7,19.8z"/>
	<path class="st0" d="M34,20.3l0.1-0.1l0,0L34,20.3z"/>
	<path class="st0" d="M32,20.2l0.1-0.1l0,0L32,20.2z"/>
	<path class="st0" d="M30.8,18.8c0,0-0.1,0.7,1.3,1.7c0,0-1-1.1-0.8-2.1C31.3,18.4,30.8,18.2,30.8,18.8z"/>
</g>
<g>
	<path class="st0" d="M48.7,21.5c0,0-2.5-0.5-3.9,0.1c0,0-0.4,0.3,0,1.2s0.3,1.8,0.5,2.2c0.1,0.4,0.5,1.6,0.5,1.6s0.1,1.1,0.7,0.1
		c0,0,0.7-1.2,1.2-2.2c0.6-1,1.2-1.6,1.5-2.4C49.2,22.1,49.4,21.6,48.7,21.5z M48.9,22.2c-0.3,0.7-0.8,1.2-1.3,2.1
		c-0.5,0.9-1.1,1.9-1.1,1.9C46,27.1,46,26.1,46,26.1s-0.3-1-0.4-1.4c-0.1-0.4-0.1-1.1-0.4-1.9c-0.3-0.8,0.1-1,0.1-1
		c1.2-0.5,3.3-0.1,3.3-0.1C49.1,21.9,48.9,22.2,48.9,22.2z"/>
	<path class="st0" d="M44.6,21.2c0,0-1.6-2.6-1.1-2.9c0,0,2.7-0.8,4.7,0.6l1,2.8c0,0-0.4-0.3-1.1-2c0,0,0-0.6-0.4-0.7
		c0,0-1.6-1-3.6-0.3c0,0-0.5,0.3,0.1,0.9C44.1,19.6,45,21.8,44.6,21.2z"/>
	<path class="st0" d="M45.8,26.7c0,0-1.4-2.5-1.8-3c0,0-0.8-3.7-0.7-5.1c0,0,0.1-0.2,0.4,1.6c0.3,1.8,0.5,3.1,0.5,3.1
		S45.6,25.9,45.8,26.7z"/>
</g>
<g>
	<path class="st0" d="M91.5,22.1c-0.8,0.4-1.7,1.6-1.2,2.9c0.5,1.3,0.4,1.9,0.4,1.9s-0.4,0.9,1.1-0.7c1.8-1.8,1.1-3.1,0.9-3.6
		c-0.3-0.8-0.2-1.3-0.2-1.3C92.2,21.7,91.5,22.1,91.5,22.1z M92.5,22.9c0.2,0.4,0.7,1.6-0.8,3.1c-1.3,1.3-0.9,0.6-0.9,0.6
		s0.1-0.4-0.4-1.6c-0.4-1.2,0.3-2.2,1-2.5c0,0,0.4-0.2,0.7-0.4c0,0.1,0,0.3,0,0.6c-0.7,0.9-1.5,1.4-1.5,1.4c0.8-0.4,1.2-0.9,1.4-1.2
		c0,0.2-0.1,0.4-0.1,0.7c-0.4,0.7-1,1.2-1,1.2c0.4-0.3,0.8-0.6,1-0.8c-0.1,0.6-0.3,1.3-0.6,2c0,0,0.3-0.6,0.7-1.4l0,0
		c0.2,0.6,0.1,1.1,0.1,1.1c0.2-0.4,0-1.1,0-1.3c0.1-0.2,0.2-0.5,0.2-0.8v0c0.4,0.5,0.4,1.1,0.4,1.1c0.1-0.5-0.2-1.1-0.3-1.4
		c0.1-0.3,0.1-0.6,0.1-0.9C92.4,22.5,92.4,22.7,92.5,22.9z M92.3,21.9L92.3,21.9c0-0.1,0-0.1,0-0.1C92.3,21.8,92.3,21.8,92.3,21.9z"
		/>
	<path class="st0" d="M94,21.1c0.6,0.6,2,1.2,3.1,0.4c1.2-0.9,1.7-0.9,1.7-0.9s1,0.2-0.9-0.9c-2.2-1.2-3.3-0.3-3.7,0
		c-0.7,0.5-1.2,0.6-1.2,0.6C93.4,20.6,94,21.1,94,21.1z M94.4,19.9c0.4-0.3,1.3-1.1,3.2-0.1c1.6,0.9,0.8,0.7,0.8,0.7s-0.4,0-1.4,0.8
		c-1,0.7-2.2,0.2-2.7-0.3c0,0-0.3-0.3-0.6-0.5c0.1,0,0.3-0.1,0.6-0.1c1,0.4,1.8,1.1,1.8,1.1c-0.6-0.6-1.2-0.9-1.5-1.1
		c0.2,0,0.4,0,0.7-0.1c0.8,0.2,1.4,0.7,1.4,0.7c-0.4-0.4-0.8-0.6-1-0.7c0.6,0,1.3,0,2.1,0.1c0,0-0.7-0.2-1.6-0.2l0,0
		c0.5-0.3,1-0.4,1-0.4c-0.5,0-1,0.2-1.3,0.4c-0.2,0-0.5,0-0.8,0h0c0.4-0.5,1-0.7,1-0.7c-0.6,0-1,0.4-1.3,0.7c-0.3,0-0.6,0-0.9,0.1
		C94.1,20.1,94.3,20,94.4,19.9z M93.5,20.4L93.5,20.4c0,0.1-0.1,0-0.1,0C93.4,20.5,93.5,20.5,93.5,20.4z"/>
</g>
<g>
	<path class="st0" d="M74.7,36c0.2-0.9-0.3-2.2-1.1-3c-0.6-0.5-1.3-0.7-1.9-0.4c-0.3,0.1-0.8,0.6-1,0.9c-0.1,0.4-0.1,0.8,0.1,1
		c0.1,0.2,0.3,0.2,0.5,0.2c-0.1,0.1-0.2,0.1-0.3,0.2c-0.3,0.2-0.7,0.2-1,0.3c-0.4,0.1-0.7,0.1-0.8,0.3c-0.1,0.2,0,0.4,0.2,0.8
		c0.2,0.4,0.4,0.6,0.6,0.6c0.3,0.1,0.5-0.2,0.8-0.4c0.2-0.2,0.4-0.4,0.8-0.6c0.1,0,0.2-0.1,0.3-0.1c-0.1,0.3,0,0.6,0.2,0.9
		c0.2,0.3,0.5,0.4,0.8,0.5C74,37.5,74.6,36.7,74.7,36z M71.8,34.8C71.8,34.8,71.8,34.7,71.8,34.8l-0.1,0c-0.2,0-0.4-0.1-0.6-0.2
		c-0.2-0.2-0.3-0.5-0.2-0.8c0.1-0.3,0.6-0.7,0.9-0.8c0.6-0.2,1.2-0.1,1.7,0.4c0.7,0.6,1.1,1.8,0.9,2.6c0,0.1-0.1,0.3-0.1,0.4
		c-0.2,0.4-0.7,0.8-1.3,0.8c-0.2,0-0.5-0.1-0.6-0.4c-0.2-0.3-0.3-0.7-0.2-1v0h0c-0.1,0-0.4,0.2-0.5,0.2c-0.3,0.1-0.5,0.3-0.7,0.5
		c-0.3,0.2-0.5,0.4-0.7,0.4c-0.1,0-0.3-0.2-0.4-0.4c-0.1-0.3-0.2-0.4-0.1-0.6c0.1-0.2,0.3-0.2,0.7-0.3c0.3-0.1,0.6-0.1,0.9-0.3
		c0.1-0.1,0.3-0.2,0.5-0.3l0,0C71.8,34.8,71.8,34.8,71.8,34.8z"/>
	<path class="st0" d="M71.8,35.5L71.8,35.5l0,0.1l0,0h0.1c0,0,0.5-0.2,1-0.1c0,0,0.1,0,0.1-0.1c0,0,0-0.1-0.1-0.1
		C72.4,35.2,71.9,35.5,71.8,35.5z"/>
	<path class="st0" d="M71.7,35.2L71.7,35.2l0.1,0c0,0,0.3-0.4,0.7-0.5l0,0v-0.1l0,0h-0.1c-0.4,0.1-0.8,0.6-0.8,0.6l0,0
		C71.6,35.2,71.6,35.2,71.7,35.2z"/>
	<path class="st0" d="M71.8,35.4L71.8,35.4l0.1,0c0.2-0.2,0.9-0.4,0.9-0.4c0,0,0.1-0.1,0-0.1c0,0-0.1-0.1-0.1,0
		C72.7,34.9,72,35.1,71.8,35.4C71.8,35.3,71.8,35.4,71.8,35.4z"/>
</g>
<g>
	<path class="st0" d="M49.8,31.6c-1.2-1.1-2.6-1.7-2.9-1.2c-0.4,0.4,0.3,1.7,1.6,2.8s2.6,1.7,2.9,1.2C51.7,34,51,32.8,49.8,31.6z
		 M48.7,33.1c-1-0.9-1.7-2-1.4-2.3c0.3-0.3,1.4,0.1,2.4,1.1c1,0.9,1.7,2,1.4,2.3C50.9,34.6,49.8,34,48.7,33.1z"/>
	<path class="st0" d="M51.4,34.4l-5.8,5.5l5.3-5.3L51.4,34.4z"/>
	<path class="st0" d="M45.7,39.7c-0.4,0.2-1.3-0.1-2.1-0.8c-0.8-0.7-1.2-1.4-1.1-1.9l4-6c0,0-4.3,5.7-4.4,5.9
		c-0.3,0.3,0.3,1.3,1.2,2.1c1,0.8,2,1.3,2.3,1C45.7,39.8,45.7,39.8,45.7,39.7z"/>
	<path class="st0" d="M53.3,31.4l-3.6,1.3c0,0-0.1,0.1,0,0.1c0,0,0.1,0.1,0.1,0c0,0,3.1-1.1,3.4-1.2c0,0.1,0,0.1,0,0.2
		c0,0,0,0.1,0,0.1c0,0.1,0.1,0.1,0.1,0.1c-0.4,0.1-3.1,1.1-3.1,1.1s0,0,0,0c0,0,0,0-0.1,0s-0.1,0-0.2-0.2c0,0-0.1,0-0.1,0
		c0,0,0,0.1,0,0.1c0.1,0.2,0.2,0.3,0.4,0.3c0.1,0,0.2,0,0.2-0.1c0,0,3.3-1.2,3.3-1.2c0,0,0.1,0,0.1-0.1l0,0c0,0,0-0.1-0.1-0.1
		c-0.1,0-0.2-0.1-0.2-0.1c0,0,0,0,0-0.1c0-0.1,0.1-0.2,0.1-0.2v0v0C53.4,31.4,53.3,31.4,53.3,31.4z"/>
	<path class="st0" d="M46.1,33.3c-0.6-0.2-1.7,0-1.8,0.5c0,0,0,0.1,0,0.1c0.1,0.2,0.8,0.7,1,0.6c0.1,0,0.1-0.1,0.1-0.1
		c0-0.1,0-0.1-0.1-0.1c0,0,0,0-0.1,0c0,0,0,0,0,0c-0.1,0-0.6-0.3-0.7-0.4c0.1-0.1,0.1-0.1,0.3-0.2c0.3-0.1,0.9-0.2,1.2-0.1
		c0.4,0.1,0.3,0.3,0.3,0.4s0,0.1,0.1,0.1c0.1,0,0.1,0,0.1-0.1C46.7,33.7,46.5,33.5,46.1,33.3z"/>
	<path class="st0" d="M46.7,34.7c-0.1-0.2-0.5-0.3-0.5-0.3s0,0-0.1,0s-0.1,0-0.1,0.1c-0.3,0-0.7,0.1-1,0.3c0,0-0.1,0-0.1,0.1
		c0,0,0,0.1,0,0.1c0.2,0.2,0.9,0.4,1.4,0.3c0.2,0,0.3-0.2,0.3-0.2C46.8,34.9,46.8,34.8,46.7,34.7z M46.5,34.8c0,0,0,0.1,0,0.1
		c0,0,0,0.1-0.1,0.1c0,0-0.1,0-0.1,0c-0.3,0.1-0.8-0.1-1-0.2c0.3-0.1,0.7-0.2,1-0.1C46.4,34.7,46.4,34.7,46.5,34.8L46.5,34.8
		C46.5,34.8,46.5,34.8,46.5,34.8z"/>
	<path class="st0" d="M47.5,35.1c0-0.1-0.1-0.1-0.1-0.1c-0.3,0.1-0.6,0.2-0.9,0.3c-0.3,0.1-0.6,0.2-0.9,0.3c-0.1,0-0.1,0.1-0.1,0.1
		c0,0.1,0.1,0.1,0.1,0.1c0.3-0.1,0.6-0.2,0.8-0.3c0.3-0.1,0.6-0.2,0.9-0.3C47.5,35.2,47.5,35.1,47.5,35.1z"/>
	<path class="st0" d="M47.4,35.7c-0.3,0-0.6-0.1-0.9-0.1c-0.1,0-0.3-0.1-0.4-0.1c-0.1,0-0.1,0-0.1,0.1s0,0.1,0.1,0.1
		c0.1,0,0.3,0,0.4,0.1c0.3,0.1,0.6,0.1,0.9,0.1c0.1,0,0.1-0.1,0.1-0.1C47.5,35.8,47.4,35.7,47.4,35.7z"/>
	<path class="st0" d="M46.4,35.7c-0.1,0-0.1,0-0.1,0.1c-0.1,0.1-0.1,0.3-0.2,0.4c0,0.1-0.1,0.2-0.1,0.3c0-0.1,0.1-0.1,0.1-0.1
		c0.1,0,0.1,0.1,0.1,0.1c0.1-0.1,0.1-0.2,0.1-0.3c0.1-0.1,0.1-0.3,0.2-0.4C46.5,35.8,46.4,35.7,46.4,35.7z"/>
	<path class="st0" d="M47.8,36.6c-0.1-0.3-0.4-0.6-0.9-0.5c-0.3,0.1-0.5,0.3-0.5,0.5c0,0.1,0.1,0.4,0.6,0.5c0.1,0,0.1,0,0.1-0.1
		c0-0.1,0-0.1-0.1-0.1c-0.2-0.1-0.3-0.1-0.3-0.2c0-0.1,0-0.1,0.1-0.2c0,0,0,0.1,0,0.1c0.3,0.3,0.7,0.3,1,0.2
		C47.8,36.8,47.9,36.7,47.8,36.6C47.8,36.7,47.8,36.6,47.8,36.6z M47,36.3c0.1,0,0.4,0,0.6,0.2C47.2,36.6,47,36.5,47,36.3
		C46.9,36.3,46.9,36.3,47,36.3z"/>
	<path class="st0" d="M46.9,32.3c0,0,0.6,2.2,2.1,4l-0.2,0.2C48.8,36.5,47.3,34.9,46.9,32.3z"/>
	<path class="st0" d="M44.4,34.4c0,0,1.2,2,3,3.3L47.2,38C47.2,38,45.4,36.8,44.4,34.4z"/>
</g>
<path class="st0" d="M91.6,41.1c0.1,0,0.3-0.2,0.4-0.3l3.6-6.2c0.1,0.1,0.4,0.3,0.4,0.3c0.2,0.1,0.4,0.3,0.6,0.2
	c0.2,0,0.3-0.1,0.4-0.3l1.8-3.6c0.2-0.3,0.1-0.8-0.2-1c0,0,0,0-0.1,0s0,0-0.1,0c0,0-1.6,2.6-1.7,2.7c-0.1,0-0.2-0.1-0.2-0.1
	c0.1-0.1,1.8-2.7,1.8-2.7c0,0,0,0,0-0.1s0,0,0,0l-0.5-0.3c0,0-0.1,0-0.1,0c0,0-1.7,2.5-1.8,2.6c-0.1,0-0.2-0.1-0.2-0.2
	c0.1-0.1,1.9-2.5,1.9-2.5c0,0,0,0,0-0.1s0,0,0-0.1c-0.3-0.2-0.8-0.1-1,0.2l-2.6,3c-0.1,0.2-0.2,0.3-0.1,0.5c0,0.2,0.1,0.3,0.3,0.4
	c0,0,0.6,0.2,0.7,0.2l-4.3,5.6c-0.1,0.1-0.2,0.4-0.1,0.6c0,0.2,0.3,0.4,0.4,0.6l0.3,0.2C91.2,41.1,91.4,41.1,91.6,41.1z M95.6,34.4
	C95.6,34.4,95.5,34.4,95.6,34.4l-0.1,0.1l-3.7,6.1c-0.1,0.1-0.1,0.2-0.3,0.2s-0.3,0-0.4-0.1l-0.3-0.2c-0.1-0.1-0.2-0.2-0.3-0.4
	c0-0.1,0-0.2,0.1-0.3l4.3-5.8L95,34c0,0,0,0,0-0.1c0,0,0-0.1,0-0.1l-0.7-0.3c-0.1-0.1-0.2-0.2-0.2-0.3l0,0c0-0.1,0-0.3,0.1-0.4
	l2.5-2.9c0.2-0.2,0.4-0.3,0.7-0.2c-0.1,0.2-1.9,2.5-1.9,2.5c0,0,0,0,0,0.1l0,0l0.3,0.2c0,0,0,0,0.1,0l0,0c0,0,1.7-2.5,1.8-2.6
	c0.1,0.1,0.2,0.2,0.3,0.2c-0.1,0.1-1.8,2.7-1.8,2.7c0,0,0,0,0,0.1c0,0,0,0,0,0l0.4,0.2c0,0,0,0,0.1,0s0,0,0,0s1.6-2.5,1.7-2.7
	c0.1,0.1,0.2,0.2,0.2,0.3c0,0.1,0,0.3-0.1,0.4l-1.8,3.4c-0.1,0.1-0.2,0.2-0.3,0.2c-0.1,0-0.3,0-0.4-0.1L95.6,34.4
	C95.7,34.3,95.6,34.3,95.6,34.4z"/>
<g>
	<path class="st0" d="M64,35.1c0.6-1.3,0.7-2.5,0.2-2.7c-0.4-0.2-1.3,0.7-1.9,2c-0.6,1.3-0.7,2.5-0.2,2.7
		C62.5,37.3,63.4,36.4,64,35.1z M62.4,34.6c0.5-1.1,1.2-1.9,1.6-1.7c0.4,0.2,0.3,1.2-0.2,2.3c-0.5,1.1-1.2,1.9-1.6,1.7
		C61.8,36.7,61.9,35.7,62.4,34.6z"/>
	<path class="st0" d="M64.8,35.5c0.4-1,0.5-1.9,0.2-2.1c-0.3-0.2-1,0.5-1.4,1.5c-0.4,1-0.5,1.9-0.2,2.1
		C63.7,37.1,64.4,36.5,64.8,35.5z M63.6,35c0.4-0.9,0.9-1.4,1.2-1.3c0.3,0.1,0.2,0.9-0.2,1.8c-0.4,0.9-0.9,1.4-1.2,1.3
		C63.2,36.7,63.3,35.9,63.6,35z"/>
	<path class="st0" d="M62.1,37.1l-5.2-2.9l4.9,2.6L62.1,37.1z"/>
	<path class="st0" d="M57.1,34.2c-0.3-0.3-0.3-1.1,0.1-2c0.3-0.8,0.9-1.3,1.3-1.4l5.1,1.4c0,0-4.9-1.7-5.1-1.7
		c-0.3-0.2-1,0.5-1.4,1.6c-0.4,1-0.5,2-0.2,2.1C57,34.2,57,34.2,57.1,34.2z"/>
	<path class="st0" d="M65,33.3l-1.3-0.2l1,0.4L65,33.3z"/>
	<path class="st0" d="M63.4,37l-1.2-0.7l1,0.4L63.4,37z"/>
	<path class="st0" d="M63.7,33.2c0,0-0.9,0.5-1.1,1.7c0,0,0.4-1.3,1.5-1.7L63.7,33.2z"/>
	<path class="st0" d="M64.5,34.8c-0.1,0,0-0.2,0-0.3c0-0.1,0.2-0.2,0.2-0.2c0.1,0,0,0.2,0,0.3C64.6,34.7,64.5,34.8,64.5,34.8z"/>
	<path class="st0" d="M63.8,36.3c-0.1,0,0-0.2,0-0.3c0-0.1,0.2-0.2,0.2-0.2c0.1,0,0,0.2,0,0.3C64,36.2,63.9,36.3,63.8,36.3z"/>
	<path class="st0" d="M63.9,35.5c-0.1,0,0-0.2,0-0.3s0.2-0.2,0.2-0.2c0.1,0,0,0.2,0,0.3C64.1,35.4,64,35.5,63.9,35.5z"/>
	<path class="st0" d="M64.3,35.7c-0.1,0,0-0.2,0-0.3c0-0.1,0.2-0.2,0.2-0.2c0.1,0,0,0.2,0,0.3C64.4,35.6,64.3,35.7,64.3,35.7z"/>
	<path class="st0" d="M65.8,37.3l-0.5,0l0.1,0.3l0.4,0.1L65.8,37.3z"/>
	<path class="st0" d="M65.6,38.7l-0.5-0.3c-0.2,0.3,0.1,0.6,0.1,0.6L65.6,38.7z"/>
	<path class="st0" d="M65.2,40l-0.4-0.4L64.6,40C64.9,40.2,65.2,40,65.2,40z"/>
	<path class="st0" d="M66,41.3L65.8,41c-0.3,0.2-0.3,0.2-0.3,0.2l0.1,0.4L66,41.3z"/>
	<path class="st0" d="M63.5,40.2l-0.2-0.5c-0.3,0.1-0.1,0.5-0.1,0.5L63.5,40.2z"/>
	<path class="st0" d="M64.5,41.4l-0.6-0.2l-0.1,0.4C64.2,41.8,64.5,41.4,64.5,41.4z"/>
</g>
<g>
	<path class="st0" d="M29.9,37c0.3,0.1,0.7,0.2,1.1,0.2c0.2,0.3,0.6,0.5,0.9,0.6c1.3,0.6,2.9-0.1,3.6-1.6c0.6-1.4-0.2-3.4-1.6-4
		c-0.2-0.1-0.5-0.1-0.8-0.1c-0.2-0.2-0.4-0.3-0.6-0.4c-1.3-0.6-3.3,0.2-4,1.7C27.9,34.8,28.6,36.4,29.9,37z M32.4,31.8
		c0.2,0.1,0.4,0.2,0.6,0.4c0.2,0,0.4,0,0.7,0.1c1.2,0.5,1.9,2.3,1.4,3.6c-0.6,1.3-2,1.9-3.1,1.4c-0.3-0.1-0.6-0.3-0.8-0.6
		c-0.3,0-0.7,0-1-0.2c-1.2-0.5-1.7-2-1.2-3.2S31.3,31.3,32.4,31.8z"/>
	<path class="st0" d="M29.8,35.5c0.1,0.7,0.9,0.9,1.3,0.9c0.6,1,1.7,0.6,1.7,0.6c-0.6,0-0.9-0.4-0.9-0.4s0.4,0.3,1.3-0.1
		c0,0-0.3,0.1-0.9-0.3c0,0,0.3-0.2,0.3-0.7l-0.9,0.3c0,0-0.6-0.3-0.8-0.7c0,0-0.1,0.1,0,0.6C30.4,35.9,29.8,35.5,29.8,35.5z"/>
	<path class="st0" d="M33.9,33.1c0.4,0.4,0.9,1.1,1.1,2.4c0,0,0.2-1.6-0.9-2.5L33.9,33.1z"/>
	<path class="st0" d="M33.7,32.9l0.1-0.2c-0.2-0.1-0.3-0.2-0.6-0.3l-0.1,0.2C33.1,32.6,33.4,32.7,33.7,32.9z"/>
</g>
<g>
	<path class="st0" d="M86.5,33.8c-0.1-0.2-0.2-0.3-0.3-0.4c-0.3-1.8-1.4-1.5-1.9-1.2c-0.4-1.7-1.6-1.2-2-0.9c0.6-0.1,1.5-0.1,2,0.9
		c0,0-0.1,0-0.1,0.1c0,0,0.1,0,0.1,0c0,0.1,0.1,0.2,0.1,0.3c0-0.1,0-0.2-0.1-0.3c0.6-0.1,1.4,0,1.9,1c-0.7-0.7-1.7-0.6-2.1-0.5
		c-0.2-0.4-0.8-1.6-2.2-1.3c0,0-1.4,0-1.6,1.8c0,0-0.1,1.6-0.2,2.2c0,0-0.9,1.6,0.2,2.1c0,0,0.4,0.4,1.2,0.2
		c0.3,0.8,0.9,0.9,0.9,0.9c1.1,0.6,1.9-1,1.9-1c0.5-0.5,1.7-1.5,1.7-1.5C87.3,35,86.5,33.8,86.5,33.8z M85.6,36c0,0-1.1,1-1.5,1.4
		c0,0-0.7,1.5-1.7,1c0,0-0.4-0.1-0.7-0.7c0.2,0.1,0.5,0.1,0.8-0.2c-0.4,0.2-0.9,0-0.9,0c-0.5-0.3-0.6-0.7-0.6-1
		c-0.1,0.3-0.1,0.7,0.3,1.1c-0.6,0.1-0.9-0.2-0.9-0.2c-1-0.5-0.2-2-0.2-2c0.1-0.6,0.3-2.1,0.3-2.1c0.2-1.7,1.4-1.7,1.4-1.7
		c1.2-0.2,1.8,0.7,1.9,1.1c-0.5-0.2-1,0-1.3,0.2c0.6-0.1,1.7,0,2.1,1.4c-0.1-0.9-0.4-1.3-0.7-1.5c0.4-0.1,1.5-0.2,2.1,0.9
		C86.1,33.9,86.8,35,85.6,36z"/>
	<path class="st0" d="M84.7,34.5l0.1,0.1l0,0L84.7,34.5z"/>
	<path class="st0" d="M84.2,32.6l0.1,0.1l0,0L84.2,32.6z"/>
	<path class="st0" d="M85.4,31.1c0,0-0.7,0.1-1.2,1.7c0,0,0.8-1.2,1.8-1.3C85.9,31.5,85.9,31,85.4,31.1z"/>
</g>
<g>
	<path class="st0" d="M3.6,37.4c0,0,2.1-1.3,2.8-2.7c0,0,0.1-0.4-0.8-0.9c-0.9-0.4-1.4-1-1.9-1.2c-0.4-0.2-1.5-0.8-1.5-0.8
		S1.3,31,1.7,32.1c0,0,0.3,1.3,0.6,2.4s0.2,2,0.6,2.8C2.8,37.3,2.9,37.7,3.6,37.4z M2.9,36.9c-0.3-0.7-0.3-1.4-0.5-2.4
		c-0.2-0.9-0.5-2.1-0.5-2.1c-0.3-1,0.4-0.3,0.4-0.3s0.9,0.5,1.3,0.7c0.3,0.2,0.9,0.7,1.6,1.1s0.7,0.8,0.7,0.8
		C5.4,35.8,3.6,37,3.6,37C3,37.3,2.9,36.9,2.9,36.9z"/>
	<path class="st0" d="M6.7,34.7c0,0,3,0.8,2.8,1.3c0,0-1.3,2.4-3.8,2.8l-2.7-1.3c0,0,0.5-0.1,2.1,0.7c0,0,0.4,0.4,0.8,0.2
		c0,0,1.9-0.4,2.8-2.2c0,0,0.2-0.6-0.7-0.6C8.2,35.5,6,34.6,6.7,34.7z"/>
	<path class="st0" d="M2.1,31.6c0,0,2.7,0.8,3.4,0.9c0,0,3.1,2.2,4,3.2c0,0,0.1,0.2-1.4-0.9c-1.5-1.1-2.5-1.9-2.5-1.9
		S2.8,32,2.1,31.6z"/>
</g>
<g>
	<path class="st0" d="M15.8,34.2c-0.8,0.2-2,1.1-1.8,2.6c0.2,1.4,0,1.9,0,1.9s-0.7,0.8,1.2-0.4c2.1-1.3,1.8-2.8,1.7-3.3
		c-0.1-0.8,0-1.3,0-1.3C16.6,34,15.8,34.2,15.8,34.2z M16.6,35.2c0.1,0.5,0.3,1.7-1.4,2.8c-1.6,1-1,0.3-1,0.3s0.2-0.4,0-1.7
		c-0.2-1.2,0.8-2,1.5-2.2c0,0,0.4-0.1,0.8-0.3c0,0.1-0.1,0.3-0.2,0.6c-0.8,0.7-1.8,1.1-1.8,1.1c0.9-0.2,1.4-0.6,1.7-0.8
		c-0.1,0.2-0.2,0.4-0.3,0.6c-0.6,0.6-1.3,0.9-1.3,0.9c0.5-0.2,0.9-0.4,1.1-0.6c-0.3,0.6-0.6,1.2-1,1.8c0,0,0.5-0.5,1-1.3l0,0
		c0.1,0.6-0.1,1.1-0.1,1.1c0.3-0.4,0.3-1,0.3-1.3c0.1-0.2,0.3-0.4,0.4-0.7v0c0.2,0.6,0.1,1.2,0.1,1.2c0.2-0.5,0.1-1.1,0-1.4
		c0.1-0.2,0.2-0.5,0.3-0.8C16.6,34.9,16.6,35,16.6,35.2z M16.7,34.2L16.7,34.2c0-0.1,0-0.1,0-0.1C16.7,34.1,16.7,34.1,16.7,34.2z"/>
	<path class="st0" d="M18.4,33.9c0.4,0.8,1.6,1.7,3,1.1c1.3-0.6,1.9-0.5,1.9-0.5s0.9,0.4-0.7-1.1c-1.9-1.7-3.1-1-3.6-0.8
		C18.2,33,17.7,33,17.7,33C18,33.2,18.4,33.9,18.4,33.9z M19.2,32.8c0.4-0.2,1.5-0.8,3.1,0.7c1.4,1.2,0.6,0.9,0.6,0.9
		s-0.4-0.1-1.6,0.4c-1.2,0.5-2.2-0.3-2.6-0.9c0,0-0.2-0.4-0.4-0.6c0.1,0,0.3,0,0.7,0c0.9,0.6,1.5,1.4,1.5,1.4
		c-0.4-0.8-0.9-1.2-1.2-1.4c0.2,0,0.4,0,0.7,0.1c0.7,0.4,1.2,1,1.2,1c-0.3-0.4-0.6-0.7-0.9-0.9c0.6,0.1,1.3,0.3,2,0.6
		c0,0-0.6-0.3-1.5-0.6l0,0c0.6-0.2,1.1-0.1,1.1-0.1c-0.4-0.1-1.1,0-1.3,0.1c-0.2-0.1-0.5-0.1-0.8-0.2h0c0.5-0.4,1.1-0.4,1.1-0.4
		c-0.6-0.1-1.1,0.2-1.4,0.3c-0.3,0-0.6-0.1-0.9-0.1C18.8,33,19,32.9,19.2,32.8z M18.2,33.1L18.2,33.1c-0.1,0-0.1,0-0.1,0
		S18.1,33.1,18.2,33.1z"/>
</g>
<g>
	<path class="st0" d="M74.7,49.2c0.2-0.9-0.3-2.2-1.1-3c-0.6-0.5-1.3-0.7-1.9-0.4c-0.3,0.1-0.8,0.6-1,0.9c-0.1,0.4-0.1,0.8,0.1,1
		c0.1,0.2,0.3,0.2,0.5,0.2c-0.1,0.1-0.2,0.1-0.3,0.2c-0.3,0.2-0.7,0.2-1,0.3c-0.4,0.1-0.7,0.1-0.8,0.3c-0.1,0.2,0,0.4,0.2,0.8
		c0.2,0.4,0.4,0.6,0.6,0.6c0.3,0.1,0.5-0.2,0.8-0.4c0.2-0.2,0.4-0.4,0.8-0.6c0.1,0,0.2-0.1,0.3-0.1c-0.1,0.3,0,0.6,0.2,0.9
		c0.2,0.3,0.5,0.4,0.8,0.5C74,50.6,74.6,49.9,74.7,49.2z M71.8,47.9C71.8,47.9,71.8,47.9,71.8,47.9l-0.1,0c-0.2,0-0.4-0.1-0.6-0.2
		c-0.2-0.2-0.3-0.5-0.2-0.8c0.1-0.3,0.6-0.7,0.9-0.8c0.6-0.2,1.2-0.1,1.7,0.4c0.7,0.6,1.1,1.8,0.9,2.6c0,0.1-0.1,0.3-0.1,0.4
		c-0.2,0.4-0.7,0.8-1.3,0.8c-0.2,0-0.5-0.1-0.6-0.4c-0.2-0.3-0.3-0.7-0.2-1v0h0c-0.1,0-0.4,0.2-0.5,0.2c-0.3,0.1-0.5,0.3-0.7,0.5
		c-0.3,0.2-0.5,0.4-0.7,0.4c-0.1,0-0.3-0.2-0.4-0.4c-0.1-0.3-0.2-0.4-0.1-0.6c0.1-0.2,0.3-0.2,0.7-0.3c0.3-0.1,0.6-0.1,0.9-0.3
		c0.1-0.1,0.3-0.2,0.5-0.3l0,0C71.8,48,71.8,48,71.8,47.9z"/>
	<path class="st0" d="M71.8,48.7L71.8,48.7l0,0.1l0,0h0.1c0,0,0.5-0.2,1-0.1c0,0,0.1,0,0.1-0.1c0,0,0-0.1-0.1-0.1
		C72.4,48.4,71.9,48.7,71.8,48.7z"/>
	<path class="st0" d="M71.7,48.4L71.7,48.4l0.1,0c0,0,0.3-0.4,0.7-0.5l0,0v-0.1l0,0h-0.1c-0.4,0.1-0.8,0.6-0.8,0.6l0,0
		C71.6,48.3,71.6,48.4,71.7,48.4z"/>
	<path class="st0" d="M71.8,48.6L71.8,48.6l0.1,0c0.2-0.2,0.9-0.4,0.9-0.4c0,0,0.1-0.1,0-0.1c0,0-0.1-0.1-0.1,0
		C72.7,48.1,72,48.3,71.8,48.6C71.8,48.5,71.8,48.6,71.8,48.6z"/>
</g>
<g>
	<path class="st0" d="M21.2,44.6c-1.2-1.1-2.6-1.7-2.9-1.2c-0.4,0.4,0.3,1.7,1.6,2.8c1.2,1.1,2.6,1.7,2.9,1.2
		C23.2,46.9,22.5,45.7,21.2,44.6z M20.1,46.1c-1-0.9-1.7-2-1.4-2.3c0.3-0.3,1.4,0.1,2.4,1.1c1,0.9,1.7,2,1.4,2.3
		C22.3,47.5,21.2,47,20.1,46.1z"/>
	<path class="st0" d="M22.8,47.3l-5.8,5.5l5.3-5.3L22.8,47.3z"/>
	<path class="st0" d="M17.1,52.7c-0.4,0.2-1.3-0.1-2.1-0.8c-0.8-0.7-1.2-1.4-1.1-1.9l4-6c0,0-4.3,5.7-4.4,5.9
		c-0.3,0.3,0.3,1.3,1.2,2.1c1,0.8,2,1.3,2.3,1C17.1,52.8,17.1,52.8,17.1,52.7z"/>
	<path class="st0" d="M24.8,44.4l-3.6,1.3c0,0-0.1,0.1,0,0.1c0,0,0.1,0.1,0.1,0c0,0,3.1-1.1,3.4-1.2c0,0.1,0,0.1,0,0.2
		c0,0,0,0.1,0,0.1c0,0.1,0.1,0.1,0.1,0.1c-0.4,0.1-3.1,1.1-3.1,1.1s0,0,0,0c0,0,0,0-0.1,0c-0.1,0-0.1,0-0.2-0.2c0,0-0.1,0-0.1,0
		s0,0.1,0,0.1c0.1,0.2,0.2,0.3,0.4,0.3c0.1,0,0.2,0,0.2-0.1c0,0,3.3-1.2,3.3-1.2c0,0,0.1,0,0.1-0.1l0,0c0,0,0-0.1-0.1-0.1
		c-0.1,0-0.2-0.1-0.2-0.1c0,0,0,0,0-0.1c0-0.1,0.1-0.2,0.1-0.2v0v0C24.8,44.4,24.8,44.4,24.8,44.4z"/>
	<path class="st0" d="M17.6,46.3c-0.6-0.2-1.7,0-1.8,0.5c0,0,0,0.1,0,0.1c0.1,0.2,0.8,0.7,1,0.6c0.1,0,0.1-0.1,0.1-0.1
		c0-0.1,0-0.1-0.1-0.1c0,0,0,0-0.1,0c0,0,0,0,0,0c-0.1,0-0.6-0.3-0.7-0.4c0.1-0.1,0.1-0.1,0.3-0.2c0.3-0.1,0.9-0.2,1.2-0.1
		c0.4,0.1,0.3,0.3,0.3,0.4s0,0.1,0.1,0.1c0.1,0,0.1,0,0.1-0.1C18.1,46.7,18,46.4,17.6,46.3z"/>
	<path class="st0" d="M18.2,47.7c-0.1-0.2-0.5-0.3-0.5-0.3s0,0-0.1,0c0,0-0.1,0-0.1,0.1c-0.3,0-0.7,0.1-1,0.3c0,0-0.1,0-0.1,0.1
		c0,0,0,0.1,0,0.1c0.2,0.2,0.9,0.4,1.4,0.3c0.2,0,0.3-0.2,0.3-0.2C18.2,47.8,18.2,47.7,18.2,47.7z M18,47.8c0,0,0,0.1,0,0.1
		s0,0.1-0.1,0.1c0,0-0.1,0-0.1,0c-0.3,0.1-0.8-0.1-1-0.2c0.3-0.1,0.7-0.2,1-0.1C17.9,47.7,17.9,47.7,18,47.8L18,47.8
		C18,47.7,18,47.8,18,47.8z"/>
	<path class="st0" d="M18.9,48c0-0.1-0.1-0.1-0.1-0.1c-0.3,0.1-0.6,0.2-0.9,0.3c-0.3,0.1-0.6,0.2-0.9,0.3c-0.1,0-0.1,0.1-0.1,0.1
		c0,0.1,0.1,0.1,0.1,0.1c0.3-0.1,0.6-0.2,0.8-0.3c0.3-0.1,0.6-0.2,0.9-0.3C18.9,48.2,19,48.1,18.9,48z"/>
	<path class="st0" d="M18.8,48.7c-0.3,0-0.6-0.1-0.9-0.1c-0.1,0-0.3-0.1-0.4-0.1c-0.1,0-0.1,0-0.1,0.1s0,0.1,0.1,0.1
		c0.1,0,0.3,0,0.4,0.1c0.3,0.1,0.6,0.1,0.9,0.1c0.1,0,0.1-0.1,0.1-0.1C18.9,48.8,18.9,48.7,18.8,48.7z"/>
	<path class="st0" d="M17.9,48.6c-0.1,0-0.1,0-0.1,0.1c-0.1,0.1-0.1,0.3-0.2,0.4c0,0.1-0.1,0.2-0.1,0.3c0-0.1,0.1-0.1,0.1-0.1
		c0.1,0,0.1,0.1,0.1,0.1c0.1-0.1,0.1-0.2,0.1-0.3c0.1-0.1,0.1-0.3,0.2-0.4C17.9,48.7,17.9,48.7,17.9,48.6z"/>
	<path class="st0" d="M19.3,49.6c-0.1-0.3-0.4-0.6-0.9-0.5c-0.3,0.1-0.5,0.3-0.5,0.5c0,0.1,0.1,0.4,0.6,0.5c0.1,0,0.1,0,0.1-0.1
		c0-0.1,0-0.1-0.1-0.1c-0.2-0.1-0.3-0.1-0.3-0.2c0-0.1,0-0.1,0.1-0.2c0,0,0,0.1,0,0.1c0.3,0.3,0.7,0.3,1,0.2
		C19.3,49.7,19.3,49.7,19.3,49.6C19.3,49.6,19.3,49.6,19.3,49.6z M18.4,49.3c0.1,0,0.4,0,0.6,0.2C18.7,49.6,18.4,49.4,18.4,49.3
		C18.4,49.3,18.4,49.3,18.4,49.3z"/>
	<path class="st0" d="M18.4,45.3c0,0,0.6,2.2,2.1,4l-0.2,0.2C20.3,49.5,18.8,47.9,18.4,45.3z"/>
	<path class="st0" d="M15.8,47.4c0,0,1.2,2,3,3.3L18.7,51C18.7,51,16.9,49.8,15.8,47.4z"/>
</g>
<path class="st0" d="M63.6,44c-0.1,0-0.4,0-0.6,0.1l-5.9,4.1C57.1,48,57,47.7,57,47.7c-0.1-0.2-0.2-0.4-0.4-0.4
	c-0.2,0-0.3,0-0.5,0.1l-3.1,2.5c-0.3,0.2-0.4,0.7-0.2,1c0,0,0,0,0.1,0c0,0,0,0,0.1,0c0,0,2.5-1.7,2.7-1.8c0,0.1,0.1,0.1,0.1,0.2
	c-0.1,0.1-2.7,1.7-2.7,1.7s0,0,0,0.1c0,0,0,0,0,0.1l0.3,0.5c0,0,0.1,0.1,0.1,0c0,0,2.6-1.6,2.7-1.6c0,0.1,0.1,0.2,0.1,0.2
	c-0.1,0.1-2.8,1.5-2.8,1.5s0,0,0,0.1c0,0,0,0,0,0.1c0.2,0.3,0.6,0.4,1,0.2l3.6-1.6c0.2-0.1,0.3-0.2,0.3-0.4s0-0.3-0.1-0.5
	c0,0-0.4-0.4-0.5-0.5l6.3-3.3c0.1-0.1,0.3-0.3,0.4-0.4c0-0.2-0.1-0.5-0.2-0.7L64,44.4C64,44.2,63.8,44,63.6,44z M57.1,48.4
	C57.2,48.4,57.2,48.4,57.1,48.4l0.1-0.1l6-4c0.1-0.1,0.2-0.1,0.3-0.1c0.1,0,0.3,0.1,0.3,0.3l0.2,0.3c0.1,0.1,0.1,0.3,0.1,0.4
	c0,0.1-0.1,0.2-0.2,0.3L57.6,49l-0.1,0c0,0,0,0,0,0.1c0,0,0,0.1,0,0.1l0.4,0.6c0.1,0.1,0.1,0.2,0.1,0.4l0,0c0,0.1-0.1,0.2-0.2,0.3
	L54.2,52c-0.2,0.1-0.5,0.1-0.7-0.1c0.2-0.1,2.8-1.5,2.8-1.5s0,0,0-0.1c0,0,0,0,0-0.1l-0.2-0.4c0,0,0,0-0.1,0c0,0,0,0-0.1,0
	c0,0-2.6,1.6-2.7,1.6c-0.1-0.1-0.1-0.3-0.2-0.3c0.1-0.1,2.7-1.7,2.7-1.7s0,0,0-0.1c0,0,0,0,0-0.1L55.6,49c0,0,0,0-0.1,0
	c0,0,0,0-0.1,0c0,0-2.5,1.7-2.6,1.8c-0.1-0.1-0.1-0.2,0-0.4c0-0.1,0.1-0.2,0.2-0.3l3.1-2.4c0.1-0.1,0.2-0.1,0.4-0.1
	c0.1,0,0.2,0.1,0.3,0.2L57.1,48.4C57.1,48.4,57.1,48.4,57.1,48.4z"/>
<g>
	<path class="st0" d="M92.1,47.8c-1.2,0.8-1.9,1.8-1.7,2.2c0.3,0.4,1.4,0.1,2.7-0.7c1.2-0.8,1.9-1.8,1.7-2.2
		C94.5,46.7,93.3,47,92.1,47.8z M93.1,49.1c-1,0.7-2,0.9-2.2,0.6c-0.2-0.3,0.4-1.1,1.4-1.8c1-0.7,2-0.9,2.2-0.6
		C94.7,47.6,94.1,48.4,93.1,49.1z"/>
	<path class="st0" d="M91.6,47c-0.9,0.6-1.5,1.3-1.3,1.7c0.2,0.3,1.1,0.1,2-0.5c0.9-0.6,1.5-1.3,1.3-1.7
		C93.4,46.2,92.5,46.4,91.6,47z M92.4,48c-0.8,0.5-1.6,0.7-1.7,0.4c-0.2-0.3,0.3-0.9,1.1-1.4c0.8-0.5,1.6-0.7,1.7-0.4
		C93.6,46.9,93.1,47.5,92.4,48z"/>
	<path class="st0" d="M94.7,47.1l2.8,5.3l-2.7-4.9L94.7,47.1z"/>
	<path class="st0" d="M97.4,52.3c0.1,0.4-0.4,1.1-1.2,1.6c-0.7,0.5-1.4,0.7-1.9,0.5l-3.6-4c0,0,3.2,4.1,3.3,4.2
		c0.2,0.3,1.1,0.1,2.1-0.5c0.9-0.6,1.5-1.3,1.3-1.7C97.5,52.4,97.4,52.3,97.4,52.3z"/>
	<path class="st0" d="M90.3,48.7l1,0.8l-0.6-0.9L90.3,48.7z"/>
	<path class="st0" d="M93.6,46.5l0.6,1.2l-0.6-0.9V46.5z"/>
	<path class="st0" d="M91.3,49.5c0,0,1,0.1,1.9-0.8c0,0-1.1,0.8-2.1,0.6L91.3,49.5z"/>
	<path class="st0" d="M91.5,47.8c0,0.1,0,0.2-0.2,0.3c-0.1,0.1-0.3,0.1-0.3,0.1c0-0.1,0-0.2,0.2-0.3C91.3,47.8,91.4,47.7,91.5,47.8z
		"/>
	<path class="st0" d="M92.9,46.8c0,0.1,0,0.2-0.2,0.3c-0.1,0.1-0.3,0.1-0.3,0.1c0-0.1,0-0.2,0.2-0.3S92.8,46.8,92.9,46.8z"/>
	<path class="st0" d="M92.4,47.4c0,0.1,0,0.2-0.2,0.3c-0.1,0.1-0.3,0.1-0.3,0.1c0-0.1,0-0.2,0.2-0.3C92.2,47.4,92.3,47.4,92.4,47.4z
		"/>
	<path class="st0" d="M92.2,47.1c0,0.1,0,0.2-0.2,0.3c-0.1,0.1-0.3,0.1-0.3,0.1c0-0.1,0-0.2,0.2-0.3S92.1,47.1,92.2,47.1z"/>
	<path class="st0" d="M91.7,45l0.4,0.2l0.1-0.3l-0.3-0.3L91.7,45z"/>
	<path class="st0" d="M92.7,43.9l0.2,0.6c0.3-0.1,0.2-0.5,0.2-0.5L92.7,43.9z"/>
	<path class="st0" d="M93.7,43l0.1,0.5l0.3-0.2C94.1,43,93.7,43,93.7,43z"/>
	<path class="st0" d="M93.8,41.4v0.4c0.3,0,0.3,0,0.3,0l0.1-0.4L93.8,41.4z"/>
	<path class="st0" d="M95.3,43.8l-0.1,0.5c0.3,0.1,0.4-0.4,0.4-0.4L95.3,43.8z"/>
	<path class="st0" d="M95.1,42.2l0.4,0.5l0.3-0.3C95.5,42.1,95.1,42.2,95.1,42.2z"/>
</g>
<g>
	<path class="st0" d="M2.9,50.4c0.3,0.1,0.7,0.2,1.1,0.2c0.2,0.3,0.6,0.5,0.9,0.6c1.3,0.6,2.9-0.1,3.6-1.6c0.6-1.4-0.2-3.4-1.6-4
		c-0.2-0.1-0.5-0.1-0.8-0.1c-0.2-0.2-0.4-0.3-0.6-0.4c-1.3-0.6-3.3,0.2-4,1.7C0.9,48.2,1.5,49.8,2.9,50.4z M5.4,45.2
		c0.2,0.1,0.4,0.2,0.6,0.4c0.2,0,0.4,0,0.7,0.1C7.8,46.2,8.5,48,8,49.3c-0.6,1.3-2,1.9-3.1,1.4c-0.3-0.1-0.6-0.3-0.8-0.6
		c-0.3,0-0.7,0-1-0.2c-1.2-0.5-1.7-2-1.2-3.2C2.5,45.4,4.2,44.7,5.4,45.2z"/>
	<path class="st0" d="M2.7,49c0.1,0.7,0.9,0.9,1.3,0.9c0.6,1,1.7,0.6,1.7,0.6c-0.6,0-0.9-0.4-0.9-0.4s0.4,0.3,1.3-0.1
		c0,0-0.3,0.1-0.9-0.3c0,0,0.3-0.2,0.3-0.7l-0.9,0.3c0,0-0.6-0.3-0.8-0.7c0,0-0.1,0.1,0,0.6C3.4,49.3,2.7,49,2.7,49z"/>
	<path class="st0" d="M6.9,46.6c0.4,0.4,0.9,1.1,1.1,2.4c0,0,0.2-1.6-0.9-2.5L6.9,46.6z"/>
	<path class="st0" d="M6.7,46.3l0.1-0.2c-0.2-0.1-0.3-0.2-0.6-0.3L6.1,46C6.1,46,6.3,46.1,6.7,46.3z"/>
</g>
<g>
	<path class="st0" d="M47.5,47c-0.1-0.2-0.2-0.3-0.3-0.4c-0.3-1.8-1.4-1.5-1.9-1.2c-0.4-1.7-1.6-1.2-2-0.9c0.6-0.1,1.5-0.1,2,0.9
		c0,0-0.1,0-0.1,0.1c0,0,0.1,0,0.1,0c0,0.1,0.1,0.2,0.1,0.3c0-0.1,0-0.2-0.1-0.3c0.6-0.1,1.4,0,1.9,1c-0.7-0.7-1.7-0.6-2.1-0.5
		c-0.2-0.4-0.8-1.6-2.2-1.3c0,0-1.4,0-1.6,1.8c0,0-0.1,1.6-0.2,2.2c0,0-0.9,1.6,0.2,2.1c0,0,0.4,0.4,1.2,0.2
		c0.3,0.8,0.9,0.9,0.9,0.9c1.1,0.6,1.9-1,1.9-1c0.5-0.5,1.7-1.5,1.7-1.5C48.4,48.1,47.5,47,47.5,47z M46.7,49.2c0,0-1.1,1-1.5,1.4
		c0,0-0.7,1.5-1.7,1c0,0-0.4-0.1-0.7-0.7c0.2,0.1,0.5,0.1,0.8-0.2c-0.4,0.2-0.9,0-0.9,0c-0.5-0.3-0.6-0.7-0.6-1
		c-0.1,0.3-0.1,0.7,0.3,1.1c-0.6,0.1-0.9-0.2-0.9-0.2c-1-0.5-0.2-2-0.2-2c0.1-0.6,0.3-2.1,0.3-2.1c0.2-1.7,1.4-1.7,1.4-1.7
		c1.2-0.2,1.8,0.7,1.9,1.1c-0.5-0.2-1,0-1.3,0.2c0.6-0.1,1.7,0,2.1,1.4c-0.1-0.9-0.4-1.3-0.7-1.5c0.4-0.1,1.5-0.2,2.1,0.9
		C47.2,47.1,47.9,48.1,46.7,49.2z"/>
	<path class="st0" d="M45.8,47.7l0.1,0.1l0,0L45.8,47.7z"/>
	<path class="st0" d="M45.3,45.8l0.1,0.1l0,0L45.3,45.8z"/>
	<path class="st0" d="M46.4,44.3c0,0-0.7,0.1-1.2,1.7c0,0,0.8-1.2,1.8-1.3C47,44.7,47,44.1,46.4,44.3z"/>
</g>
<g>
	<path class="st0" d="M30.7,47.2c0,0,1.9,1.7,3.4,1.9c0,0,0.4-0.1,0.6-1s0.6-1.7,0.7-2.2c0.1-0.4,0.3-1.7,0.3-1.7s0.5-1-0.5-0.4
		c0,0-1.1,0.7-2.1,1.3c-1,0.6-1.8,0.8-2.5,1.3C30.6,46.5,30.1,46.8,30.7,47.2z M30.9,46.5c0.6-0.5,1.3-0.7,2.2-1.1
		c0.9-0.5,1.9-1.1,1.9-1.1c0.9-0.6,0.4,0.3,0.4,0.3s-0.2,1-0.3,1.4c-0.1,0.4-0.4,1-0.6,1.9c-0.1,0.8-0.6,0.9-0.6,0.9
		c-1.3-0.2-2.9-1.6-2.9-1.6C30.6,46.7,30.9,46.5,30.9,46.5z"/>
	<path class="st0" d="M34.1,49.5c0,0,0.1,3.1-0.5,3.1c0,0-2.7-0.6-3.8-2.8l0.5-2.9c0,0,0.2,0.4,0,2.2c0,0-0.2,0.5,0,0.8
		c0,0,0.9,1.7,2.9,2.1c0,0,0.6,0,0.4-0.8C33.8,51.2,34.1,48.8,34.1,49.5z"/>
	<path class="st0" d="M35.8,44.1c0,0,0,2.9,0.1,3.5c0,0-1.2,3.6-1.9,4.8c0,0-0.1,0.1,0.4-1.6c0.6-1.7,1.1-2.9,1.1-2.9
		S35.5,45,35.8,44.1z"/>
</g>
<g>
	<path class="st0" d="M84.1,45.6c-0.1-0.9-0.9-2.2-2.3-2.2s-1.9-0.3-1.9-0.3s-0.7-0.8,0.2,1.2c1,2.3,2.5,2.2,3,2.2
		c0.8,0,1.3,0.2,1.3,0.2C84.2,46.4,84.1,45.6,84.1,45.6z M83,46.3c-0.5,0-1.7,0.1-2.6-1.8c-0.8-1.7-0.2-1-0.2-1s0.4,0.2,1.6,0.2
		s1.9,1.1,2,1.8c0,0,0.1,0.4,0.2,0.8c-0.1,0-0.3-0.1-0.6-0.3c-0.6-0.9-0.8-1.9-0.8-1.9c0.1,0.9,0.4,1.4,0.6,1.8
		c-0.2-0.1-0.3-0.2-0.6-0.3c-0.5-0.7-0.7-1.4-0.7-1.4c0.1,0.5,0.3,0.9,0.4,1.2c-0.5-0.3-1.1-0.8-1.6-1.3c0,0,0.4,0.5,1.1,1.1l0,0
		c-0.6,0-1.1-0.3-1.1-0.3c0.3,0.3,1,0.4,1.3,0.4c0.2,0.1,0.4,0.3,0.6,0.5h0c-0.6,0.2-1.2-0.1-1.2-0.1c0.4,0.3,1.1,0.2,1.4,0.2
		c0.2,0.1,0.5,0.3,0.8,0.4C83.4,46.3,83.2,46.3,83,46.3z M84,46.4L84,46.4c0,0,0.1,0,0.1,0C84.1,46.5,84.1,46.4,84,46.4z"/>
	<path class="st0" d="M84.1,48.2c-0.8,0.3-1.9,1.4-1.5,2.8c0.4,1.4,0.2,1.9,0.2,1.9s-0.6,0.9,1.1-0.5c1.9-1.6,1.4-3,1.3-3.5
		c-0.2-0.8-0.1-1.3-0.1-1.3C84.8,47.9,84.1,48.2,84.1,48.2z M85,49.1c0.1,0.4,0.6,1.6-1.1,3c-1.4,1.2-1,0.4-1,0.4s0.1-0.4-0.2-1.6
		c-0.3-1.2,0.6-2.1,1.2-2.4c0,0,0.4-0.2,0.7-0.4c0,0.1,0,0.3-0.1,0.6c-0.7,0.8-1.6,1.3-1.6,1.3c0.8-0.3,1.3-0.7,1.6-1
		c0,0.2-0.1,0.4-0.2,0.6c-0.5,0.7-1.1,1.1-1.1,1.1c0.5-0.2,0.8-0.5,1-0.7c-0.2,0.6-0.4,1.2-0.8,1.9c0,0,0.4-0.6,0.8-1.4l0,0
		c0.2,0.6,0,1.1,0,1.1c0.2-0.4,0.1-1,0.1-1.3c0.1-0.2,0.2-0.5,0.3-0.7v0c0.3,0.6,0.2,1.2,0.2,1.2c0.2-0.5-0.1-1.1-0.2-1.4
		c0.1-0.3,0.2-0.6,0.2-0.8C84.9,48.8,85,48.9,85,49.1z M84.9,48.1L84.9,48.1c0-0.1,0-0.1,0-0.1C84.9,48,84.9,48,84.9,48.1z"/>
</g>
<g>
	<path class="st0" d="M59.9,63.5c0.2-0.9-0.3-2.2-1.1-3c-0.6-0.5-1.3-0.7-1.9-0.4c-0.3,0.1-0.8,0.6-1,0.9c-0.1,0.4-0.1,0.8,0.1,1
		c0.1,0.2,0.3,0.2,0.5,0.2c-0.1,0.1-0.2,0.1-0.3,0.2c-0.3,0.2-0.7,0.2-1,0.3c-0.4,0.1-0.7,0.1-0.8,0.3c-0.1,0.2,0,0.4,0.2,0.8
		c0.2,0.4,0.4,0.6,0.6,0.6c0.3,0.1,0.5-0.2,0.8-0.4c0.2-0.2,0.4-0.4,0.8-0.6c0.1,0,0.2-0.1,0.3-0.1c-0.1,0.3,0,0.6,0.2,0.9
		c0.2,0.3,0.5,0.4,0.8,0.5C59.2,64.9,59.8,64.2,59.9,63.5z M57,62.2C57,62.2,57,62.2,57,62.2l-0.1,0c-0.2,0-0.4-0.1-0.6-0.2
		c-0.2-0.2-0.3-0.5-0.2-0.8c0.1-0.3,0.6-0.7,0.9-0.8c0.6-0.2,1.2-0.1,1.7,0.4c0.7,0.6,1.1,1.8,0.9,2.6c0,0.1-0.1,0.3-0.1,0.4
		c-0.2,0.4-0.7,0.8-1.3,0.8c-0.2,0-0.5-0.1-0.6-0.4c-0.2-0.3-0.3-0.7-0.2-1v0h0c-0.1,0-0.4,0.2-0.5,0.2c-0.3,0.1-0.5,0.3-0.7,0.5
		c-0.3,0.2-0.5,0.4-0.7,0.4c-0.1,0-0.3-0.2-0.4-0.4c-0.1-0.3-0.2-0.4-0.1-0.6c0.1-0.2,0.3-0.2,0.7-0.3c0.3-0.1,0.6-0.1,0.9-0.3
		c0.1-0.1,0.3-0.2,0.5-0.3l0,0C57,62.2,57,62.2,57,62.2z"/>
	<path class="st0" d="M57,63L57,63l0,0.1l0,0h0.1c0,0,0.5-0.2,1-0.1c0,0,0.1,0,0.1-0.1c0,0,0-0.1-0.1-0.1C57.5,62.7,57,63,57,63z"/>
	<path class="st0" d="M56.9,62.7L56.9,62.7l0.1,0c0,0,0.3-0.4,0.7-0.5l0,0V62l0,0h-0.1c-0.4,0.1-0.8,0.6-0.8,0.6l0,0
		C56.8,62.7,56.8,62.7,56.9,62.7z"/>
	<path class="st0" d="M57,62.9L57,62.9l0.1,0c0.2-0.2,0.9-0.4,0.9-0.4c0,0,0.1-0.1,0-0.1c0,0-0.1-0.1-0.1,0
		C57.9,62.4,57.2,62.6,57,62.9C57,62.8,57,62.8,57,62.9z"/>
</g>
<g>
	<path class="st0" d="M4.4,59.4c-1.1,1.2-1.8,2.5-1.3,2.9c0.4,0.4,1.7-0.3,2.8-1.4C7,59.7,7.7,58.4,7.3,58
		C6.8,57.6,5.6,58.2,4.4,59.4z M5.8,60.6c-1,1-2,1.6-2.3,1.3c-0.3-0.3,0.2-1.4,1.2-2.4c1-1,2-1.6,2.3-1.3
		C7.3,58.5,6.8,59.6,5.8,60.6z"/>
	<path class="st0" d="M7.2,58l5.2,6l-5.1-5.5L7.2,58z"/>
	<path class="st0" d="M12.3,63.9c0.2,0.4-0.2,1.3-0.9,2.1c-0.7,0.7-1.5,1.1-2,1l-5.8-4.3c0,0,5.5,4.5,5.7,4.6
		c0.3,0.3,1.3-0.2,2.2-1.1c0.9-0.9,1.3-1.9,1.1-2.2C12.4,63.9,12.4,63.9,12.3,63.9z"/>
	<path class="st0" d="M4.3,55.9l1.1,3.7c0,0,0.1,0.1,0.1,0c0,0,0.1-0.1,0-0.1c0,0-1-3.1-1.1-3.5c0.1,0,0.1,0,0.2,0c0,0,0.1,0,0.1,0
		C4.9,56,4.9,56,4.9,56c0.1,0.4,1,3.2,1,3.2s0,0,0,0c0,0,0,0,0,0.1s0,0.1-0.2,0.2c0,0,0,0.1,0,0.1c0,0,0.1,0,0.1,0
		c0.2-0.1,0.3-0.2,0.3-0.3c0-0.1,0-0.2-0.1-0.2c0,0-1-3.4-1-3.4c0,0,0-0.1-0.1-0.1l0,0c0,0-0.1,0-0.1,0.1c0,0.1-0.1,0.2-0.1,0.2
		c0,0,0,0-0.1,0c-0.1,0-0.2-0.1-0.2-0.1L4.3,55.9L4.3,55.9C4.3,55.8,4.3,55.9,4.3,55.9z"/>
	<path class="st0" d="M5.9,63.1c-0.2,0.6-0.1,1.7,0.4,1.9c0,0,0.1,0,0.1,0c0.2-0.1,0.7-0.8,0.7-1c0-0.1-0.1-0.1-0.1-0.1
		c-0.1,0-0.1,0-0.1,0.1c0,0,0,0,0,0.1c0,0,0,0,0,0c0,0.1-0.3,0.6-0.5,0.7c-0.1-0.1-0.1-0.1-0.2-0.3c-0.1-0.3-0.2-0.9,0-1.2
		C6.3,62.9,6.5,63,6.6,63c0.1,0,0.1,0,0.1-0.1c0-0.1,0-0.1-0.1-0.1C6.3,62.6,6.1,62.8,5.9,63.1z"/>
	<path class="st0" d="M7.3,62.6C7.1,62.7,7,63.1,7,63.1c0,0,0,0,0,0.1c0,0,0,0.1,0.1,0.1c0,0.3,0.1,0.7,0.2,1c0,0,0,0.1,0.1,0.1
		s0.1,0,0.1,0c0.2-0.1,0.4-0.9,0.4-1.4c0-0.2-0.1-0.3-0.2-0.4C7.5,62.6,7.4,62.5,7.3,62.6z M7.4,62.8c0,0,0.1,0,0.1,0
		c0,0,0.1,0,0.1,0.1c0,0,0,0.1,0,0.1c0,0.3-0.1,0.8-0.2,1c-0.1-0.3-0.2-0.7,0-1C7.4,63,7.4,62.9,7.4,62.8L7.4,62.8
		C7.4,62.9,7.4,62.8,7.4,62.8z"/>
	<path class="st0" d="M7.7,61.9c-0.1,0-0.1,0.1-0.1,0.1c0.1,0.3,0.2,0.6,0.3,0.9c0.1,0.3,0.1,0.6,0.3,0.9c0,0.1,0.1,0.1,0.1,0.1
		c0.1,0,0.1-0.1,0.1-0.1c-0.1-0.3-0.2-0.6-0.2-0.9C8.1,62.6,8,62.3,7.9,62C7.9,61.9,7.8,61.9,7.7,61.9z"/>
	<path class="st0" d="M8.4,62c0,0.3-0.1,0.6-0.1,0.9c0,0.1-0.1,0.3-0.1,0.4c0,0.1,0,0.1,0.1,0.1c0.1,0,0.1,0,0.1-0.1
		c0-0.1,0.1-0.3,0.1-0.4c0.1-0.3,0.1-0.6,0.1-0.9c0-0.1-0.1-0.1-0.1-0.1C8.5,61.9,8.4,62,8.4,62z"/>
	<path class="st0" d="M8.3,63c0,0.1,0,0.1,0.1,0.1c0.1,0.1,0.3,0.1,0.4,0.2c0.1,0,0.2,0.1,0.3,0.2C9,63.5,9,63.4,9,63.4
		c0-0.1,0.1-0.1,0.1-0.1c-0.1-0.1-0.2-0.1-0.3-0.2C8.7,63.1,8.5,63,8.4,63C8.3,62.9,8.3,63,8.3,63z"/>
	<path class="st0" d="M9.3,61.6c-0.3,0.1-0.6,0.4-0.5,0.9C8.8,62.8,9,63,9.2,63c0.1,0,0.4-0.1,0.5-0.5c0-0.1,0-0.1-0.1-0.1
		c-0.1,0-0.1,0-0.1,0.1c-0.1,0.2-0.2,0.3-0.3,0.3c-0.1,0-0.1,0-0.2-0.1c0,0,0.1,0,0.1,0c0.3-0.3,0.4-0.7,0.3-1c0,0,0-0.1-0.1-0.1
		C9.3,61.6,9.3,61.6,9.3,61.6z M9,62.5c0-0.1,0-0.4,0.3-0.6C9.3,62.2,9.1,62.4,9,62.5C9,62.5,9,62.5,9,62.5z"/>
	<path class="st0" d="M5,62.3c0,0,2.3-0.6,4.1-2l0.2,0.3C9.2,60.6,7.6,62,5,62.3z"/>
	<path class="st0" d="M6.9,65c0,0,2.1-1.1,3.4-2.9l0.3,0.2C10.7,62.3,9.3,64,6.9,65z"/>
</g>
<path class="st0" d="M64.6,58.4c0,0.1,0.1,0.4,0.2,0.5l5.3,4.8c-0.1,0.1-0.4,0.3-0.4,0.3c-0.1,0.1-0.3,0.3-0.3,0.5s0.1,0.3,0.2,0.5
	l3.2,2.4c0.3,0.2,0.7,0.2,1,0c0,0,0,0,0-0.1s0,0,0-0.1c0,0-2.2-2.1-2.3-2.2c0.1-0.1,0.1-0.1,0.2-0.2c0.1,0.1,2.2,2.3,2.2,2.3
	c0,0,0,0,0.1,0s0,0,0.1,0l0.4-0.4c0,0,0-0.1,0-0.1c0,0-2.1-2.2-2.2-2.3c0.1-0.1,0.1-0.1,0.2-0.2c0.1,0.1,2.1,2.4,2.1,2.4
	c0,0,0,0,0.1,0c0,0,0,0,0.1,0c0.2-0.3,0.2-0.7,0-1l-2.4-3.2c-0.1-0.1-0.3-0.2-0.5-0.2c-0.2,0-0.3,0.1-0.5,0.2c0,0-0.3,0.5-0.4,0.6
	l-4.7-5.4c-0.1-0.1-0.4-0.3-0.5-0.2c-0.2,0-0.5,0.2-0.6,0.3L65,58C64.7,58,64.6,58.2,64.6,58.4z M70.4,63.7
	C70.4,63.7,70.4,63.6,70.4,63.7l-0.1-0.1L65,58.7c-0.1-0.1-0.1-0.2-0.1-0.3s0-0.3,0.2-0.4l0.2-0.2c0.1-0.1,0.3-0.2,0.4-0.2
	s0.2,0.1,0.3,0.1l4.8,5.4l0.1,0.1c0,0,0,0,0.1,0c0,0,0.1,0,0.1,0l0.4-0.6c0.1-0.1,0.2-0.1,0.3-0.1l0,0c0.1,0,0.3,0.1,0.3,0.2l2.4,3
	c0.2,0.2,0.2,0.5,0,0.7c-0.1-0.1-2.1-2.4-2.1-2.4c0,0,0,0-0.1,0c0,0,0,0-0.1,0L72,64.3c0,0,0,0,0,0.1c0,0,0,0,0,0.1
	c0,0,2.1,2.2,2.2,2.3C74.2,66.8,74,66.9,74,67c-0.1-0.1-2.2-2.3-2.2-2.3c0,0,0,0-0.1,0c0,0,0,0-0.1,0L71.3,65c0,0,0,0,0,0.1
	s0,0,0,0.1c0,0,2.2,2,2.3,2.2c-0.1,0.1-0.2,0.1-0.3,0.1c-0.1,0-0.3-0.1-0.4-0.1l-3-2.4c-0.1-0.1-0.2-0.2-0.2-0.3s0.1-0.3,0.1-0.4
	L70.4,63.7C70.4,63.8,70.4,63.7,70.4,63.7z"/>
<g>
	<path class="st0" d="M79.2,63.3c0,1.4,0.3,2.6,0.8,2.6c0.5,0,0.9-1.1,1-2.6c0-1.4-0.3-2.6-0.8-2.6C79.7,60.8,79.3,61.9,79.2,63.3z
		 M80.9,63.3c0,1.2-0.4,2.2-0.8,2.2c-0.4,0-0.7-1-0.7-2.2c0-1.2,0.4-2.2,0.8-2.2C80.6,61.1,80.9,62.1,80.9,63.3z"/>
	<path class="st0" d="M78.3,63.3c0,1.1,0.3,2,0.7,2c0.4,0,0.7-0.9,0.8-2s-0.3-2-0.7-2S78.4,62.2,78.3,63.3z M79.6,63.3
		c0,0.9-0.3,1.7-0.6,1.7c-0.3,0-0.5-0.8-0.5-1.7c0-0.9,0.3-1.7,0.6-1.7C79.4,61.6,79.6,62.3,79.6,63.3z"/>
	<path class="st0" d="M80.2,60.8l5.9,0.8L80.6,61L80.2,60.8z"/>
	<path class="st0" d="M86,61.6c0.4,0.1,0.7,0.9,0.7,1.9c0,0.9-0.3,1.6-0.7,1.8l-5.3,0.7c0,0,5.2-0.3,5.3-0.3c0.4,0,0.7-0.9,0.8-2
		c0-1.1-0.2-2-0.7-2C86.1,61.5,86,61.5,86,61.6z"/>
	<path class="st0" d="M79,65.3l1.2-0.3l-1.1,0L79,65.3z"/>
	<path class="st0" d="M79.1,61.4l1.4,0.2l-1.1,0L79.1,61.4z"/>
	<path class="st0" d="M80.2,65c0,0,0.6-0.8,0.4-2c0,0,0.1,1.4-0.8,2.1L80.2,65z"/>
	<path class="st0" d="M78.9,63.9c0.1,0,0.1,0.1,0.1,0.3c0,0.1-0.1,0.3-0.1,0.3c-0.1,0-0.1-0.1-0.1-0.3C78.8,64,78.9,63.9,78.9,63.9z
		"/>
	<path class="st0" d="M78.9,62.2c0.1,0,0.1,0.1,0.1,0.3c0,0.1-0.1,0.3-0.1,0.3c-0.1,0-0.1-0.1-0.1-0.3
		C78.8,62.3,78.9,62.1,78.9,62.2z"/>
	<path class="st0" d="M79.1,62.9c0.1,0,0.1,0.1,0.1,0.3c0,0.1-0.1,0.3-0.1,0.3c-0.1,0-0.1-0.1-0.1-0.3C79,63.1,79.1,63,79.1,62.9z"
		/>
	<path class="st0" d="M78.7,62.9c0.1,0,0.1,0.1,0.1,0.3c0,0.1-0.1,0.3-0.1,0.3c-0.1,0-0.1-0.1-0.1-0.3
		C78.6,63.1,78.7,62.9,78.7,62.9z"/>
	<path class="st0" d="M76.7,62l0.4-0.2L77,61.5l-0.4,0.1L76.7,62z"/>
	<path class="st0" d="M76.3,60.6l0.6,0.1c0.1-0.3-0.3-0.5-0.3-0.5L76.3,60.6z"/>
	<path class="st0" d="M76.3,59.3l0.5,0.2l0-0.4C76.4,58.9,76.3,59.3,76.3,59.3z"/>
	<path class="st0" d="M75,58.3l0.3,0.2c0.2-0.3,0.2-0.3,0.2-0.3L75.3,58L75,58.3z"/>
	<path class="st0" d="M77.7,58.5l0.4,0.4c0.3-0.2-0.1-0.5-0.1-0.5L77.7,58.5z"/>
	<path class="st0" d="M76.4,57.7l0.6-0.1l-0.1-0.4C76.5,57.3,76.4,57.7,76.4,57.7z"/>
</g>
<g>
	<path class="st0" d="M23.3,60.7c-0.4-0.1-0.8,0-1.1,0c-0.3-0.2-0.7-0.4-1-0.4c-1.4-0.3-2.9,0.8-3.1,2.3c-0.3,1.6,0.9,3.3,2.3,3.6
		c0.3,0.1,0.5,0,0.8,0c0.2,0.1,0.4,0.2,0.7,0.3c1.4,0.3,3.2-0.9,3.5-2.5C25.7,62.4,24.8,61,23.3,60.7z M21.9,66.3
		c-0.2-0.1-0.4-0.1-0.6-0.2c-0.2,0-0.4,0-0.7,0c-1.3-0.2-2.3-1.8-2.1-3.2c0.3-1.4,1.5-2.3,2.8-2.1c0.3,0,0.6,0.2,0.9,0.4
		c0.3-0.1,0.7-0.1,1,0c1.3,0.2,2.1,1.6,1.9,2.9C24.8,65.4,23.2,66.5,21.9,66.3z"/>
	<path class="st0" d="M23.8,62.1c-0.3-0.7-1.1-0.7-1.5-0.7c-0.8-0.9-1.8-0.2-1.8-0.2c0.6-0.1,1,0.2,1,0.2s-0.5-0.2-1.2,0.4
		c0,0,0.3-0.1,1,0.1c0,0-0.2,0.2-0.2,0.7l0.8-0.5c0,0,0.6,0.2,0.9,0.5c0,0,0.1-0.1-0.1-0.6C23,61.9,23.8,62.1,23.8,62.1z"/>
	<path class="st0" d="M20.2,65.3c-0.5-0.3-1.2-0.9-1.6-2.1c0,0,0.1,1.6,1.4,2.3L20.2,65.3z"/>
	<path class="st0" d="M20.5,65.4l-0.1,0.2c0.2,0.1,0.4,0.1,0.6,0.2l0.1-0.2C21.1,65.6,20.9,65.6,20.5,65.4z"/>
</g>
<g>
	<path class="st0" d="M33.7,59c-0.2,0-0.3,0.1-0.5,0.2c-1.9-0.2-1.8,1-1.6,1.6c-1.8,0-1.6,1.2-1.4,1.8c0-0.6,0.2-1.4,1.4-1.7
		c0,0,0,0.1,0,0.1c0,0,0-0.1,0-0.1c0.1,0,0.2,0,0.3,0c-0.1,0-0.2,0-0.3,0c0-0.6,0.3-1.4,1.5-1.5c-0.9,0.5-1,1.5-1,1.9
		c-0.4,0.1-1.7,0.4-1.9,1.9c0,0-0.3,1.4,1.3,2c0,0,1.5,0.5,2.1,0.8c0,0,1.3,1.2,2.1,0.3c0,0,0.5-0.3,0.5-1.2
		c0.8-0.1,1.1-0.7,1.1-0.7c0.8-0.9-0.6-2.1-0.6-2.1c-0.4-0.6-1.1-2-1.1-2C35,58.4,33.7,59,33.7,59z M35.7,60.3c0,0,0.7,1.3,1,1.8
		c0,0,1.3,1.1,0.6,1.9c0,0-0.2,0.4-0.8,0.6c0.1-0.2,0.2-0.5,0-0.9c0.1,0.5-0.2,0.8-0.2,0.8c-0.4,0.4-0.8,0.4-1.1,0.3
		c0.2,0.1,0.7,0.3,1.1-0.1c-0.1,0.6-0.4,0.9-0.4,0.9c-0.7,0.8-2-0.3-2-0.3c-0.6-0.3-2-0.8-2-0.8c-1.6-0.6-1.3-1.8-1.3-1.8
		c0.1-1.2,1.1-1.5,1.6-1.6c-0.3,0.4-0.2,1-0.2,1.3c0.1-0.7,0.4-1.7,1.9-1.7c-0.9-0.1-1.3,0.1-1.6,0.3c0-0.4,0.2-1.5,1.4-1.8
		C33.7,59.3,34.9,58.9,35.7,60.3z"/>
	<path class="st0" d="M34,60.9l0.1-0.1l0,0L34,60.9z"/>
	<path class="st0" d="M32,60.8l0.1-0.1l0,0L32,60.8z"/>
	<path class="st0" d="M30.8,59.3c0,0-0.1,0.7,1.3,1.7c0,0-1-1.1-0.8-2.1C31.3,58.9,30.8,58.8,30.8,59.3z"/>
</g>
<g>
	<path class="st0" d="M48.7,62.1c0,0-2.5-0.5-3.9,0.1c0,0-0.4,0.3,0,1.2s0.3,1.8,0.5,2.2c0.1,0.4,0.5,1.6,0.5,1.6s0.1,1.1,0.7,0.1
		c0,0,0.7-1.2,1.2-2.2c0.6-1,1.2-1.6,1.5-2.4C49.2,62.7,49.4,62.2,48.7,62.1z M48.9,62.8c-0.3,0.7-0.8,1.2-1.3,2.1
		c-0.5,0.9-1.1,1.9-1.1,1.9C46,67.7,46,66.7,46,66.7s-0.3-1-0.4-1.4c-0.1-0.4-0.1-1.1-0.4-1.9c-0.3-0.8,0.1-1,0.1-1
		c1.2-0.5,3.3-0.1,3.3-0.1C49.1,62.4,48.9,62.8,48.9,62.8z"/>
	<path class="st0" d="M44.6,61.8c0,0-1.6-2.6-1.1-2.9c0,0,2.7-0.8,4.7,0.6l1,2.8c0,0-0.4-0.3-1.1-2c0,0,0-0.6-0.4-0.7
		c0,0-1.6-1-3.6-0.3c0,0-0.5,0.3,0.1,0.9C44.1,60.2,45,62.4,44.6,61.8z"/>
	<path class="st0" d="M45.8,67.3c0,0-1.4-2.5-1.8-3c0,0-0.8-3.7-0.7-5.1c0,0,0.1-0.2,0.4,1.6s0.5,3.1,0.5,3.1S45.6,66.4,45.8,67.3z"
		/>
</g>
<g>
	<path class="st0" d="M91.5,62.7c-0.8,0.4-1.7,1.6-1.2,2.9c0.5,1.3,0.4,1.9,0.4,1.9s-0.4,0.9,1.1-0.7c1.8-1.8,1.1-3.1,0.9-3.6
		c-0.3-0.8-0.2-1.3-0.2-1.3C92.2,62.2,91.5,62.7,91.5,62.7z M92.5,63.4c0.2,0.4,0.7,1.6-0.8,3.1c-1.3,1.3-0.9,0.6-0.9,0.6
		s0.1-0.4-0.4-1.6c-0.4-1.2,0.3-2.2,1-2.5c0,0,0.4-0.2,0.7-0.4c0,0.1,0,0.3,0,0.6c-0.7,0.9-1.5,1.4-1.5,1.4c0.8-0.4,1.2-0.9,1.4-1.2
		c0,0.2-0.1,0.4-0.1,0.7c-0.4,0.7-1,1.2-1,1.2c0.4-0.3,0.8-0.6,1-0.8c-0.1,0.6-0.3,1.3-0.6,2c0,0,0.3-0.6,0.7-1.4l0,0
		c0.2,0.6,0.1,1.1,0.1,1.1c0.2-0.4,0-1.1,0-1.3c0.1-0.2,0.2-0.5,0.2-0.8v0c0.4,0.5,0.4,1.1,0.4,1.1c0.1-0.5-0.2-1.1-0.3-1.4
		c0.1-0.3,0.1-0.6,0.1-0.9C92.4,63.1,92.4,63.2,92.5,63.4z M92.3,62.4L92.3,62.4c0-0.1,0-0.1,0-0.1C92.3,62.3,92.3,62.4,92.3,62.4z"
		/>
	<path class="st0" d="M94,61.8c0.6,0.6,2,1.2,3.1,0.4c1.2-0.9,1.7-0.9,1.7-0.9s1,0.2-0.9-0.9c-2.2-1.2-3.3-0.3-3.7,0
		C93.5,60.9,93,61,93,61C93.4,61.2,94,61.8,94,61.8z M94.4,60.5c0.4-0.3,1.3-1.1,3.2-0.1c1.6,0.9,0.8,0.7,0.8,0.7s-0.4,0-1.4,0.8
		c-1,0.7-2.2,0.2-2.7-0.3c0,0-0.3-0.3-0.6-0.5c0.1,0,0.3-0.1,0.6-0.1c1,0.4,1.8,1.1,1.8,1.1c-0.6-0.6-1.2-0.9-1.5-1.1
		c0.2,0,0.4,0,0.7-0.1c0.8,0.2,1.4,0.7,1.4,0.7c-0.4-0.4-0.8-0.6-1-0.7c0.6,0,1.3,0,2.1,0.1c0,0-0.7-0.2-1.6-0.2l0,0
		c0.5-0.3,1-0.4,1-0.4c-0.5,0-1,0.2-1.3,0.4c-0.2,0-0.5,0-0.8,0h0c0.4-0.5,1-0.7,1-0.7c-0.6,0-1,0.4-1.3,0.7c-0.3,0-0.6,0-0.9,0.1
		C94.1,60.7,94.3,60.6,94.4,60.5z M93.5,61L93.5,61c0,0.1-0.1,0-0.1,0C93.4,61,93.5,61,93.5,61z"/>
</g>
<g>
	<path class="st0" d="M74.7,76.6c0.2-0.9-0.3-2.2-1.1-3c-0.6-0.5-1.3-0.7-1.9-0.4c-0.3,0.1-0.8,0.6-1,0.9c-0.1,0.4-0.1,0.8,0.1,1
		c0.1,0.2,0.3,0.2,0.5,0.2c-0.1,0.1-0.2,0.1-0.3,0.2c-0.3,0.2-0.7,0.2-1,0.3c-0.4,0.1-0.7,0.1-0.8,0.3c-0.1,0.2,0,0.4,0.2,0.8
		c0.2,0.4,0.4,0.6,0.6,0.6c0.3,0.1,0.5-0.2,0.8-0.4c0.2-0.2,0.4-0.4,0.8-0.6c0.1,0,0.2-0.1,0.3-0.1c-0.1,0.3,0,0.6,0.2,0.9
		c0.2,0.3,0.5,0.4,0.8,0.5C74,78,74.6,77.3,74.7,76.6z M71.8,75.3C71.8,75.3,71.8,75.3,71.8,75.3l-0.1,0c-0.2,0-0.4-0.1-0.6-0.2
		c-0.2-0.2-0.3-0.5-0.2-0.8c0.1-0.3,0.6-0.7,0.9-0.8c0.6-0.2,1.2-0.1,1.7,0.4c0.7,0.6,1.1,1.8,0.9,2.6c0,0.1-0.1,0.3-0.1,0.4
		c-0.2,0.4-0.7,0.8-1.3,0.8c-0.2,0-0.5-0.1-0.6-0.4c-0.2-0.3-0.3-0.7-0.2-1v0h0c-0.1,0-0.4,0.2-0.5,0.2c-0.3,0.1-0.5,0.3-0.7,0.5
		c-0.3,0.2-0.5,0.4-0.7,0.4c-0.1,0-0.3-0.2-0.4-0.4c-0.1-0.3-0.2-0.4-0.1-0.6c0.1-0.2,0.3-0.2,0.7-0.3c0.3-0.1,0.6-0.1,0.9-0.3
		c0.1-0.1,0.3-0.2,0.5-0.3l0,0C71.8,75.4,71.8,75.4,71.8,75.3z"/>
	<path class="st0" d="M71.8,76.1L71.8,76.1l0,0.1l0,0h0.1c0,0,0.5-0.2,1-0.1c0,0,0.1,0,0.1-0.1c0,0,0-0.1-0.1-0.1
		C72.4,75.8,71.9,76.1,71.8,76.1z"/>
	<path class="st0" d="M71.7,75.8L71.7,75.8l0.1,0c0,0,0.3-0.4,0.7-0.5l0,0v-0.1l0,0h-0.1c-0.4,0.1-0.8,0.6-0.8,0.6l0,0
		C71.6,75.8,71.6,75.8,71.7,75.8z"/>
	<path class="st0" d="M71.8,76L71.8,76l0.1,0c0.2-0.2,0.9-0.4,0.9-0.4c0,0,0.1-0.1,0-0.1c0,0-0.1-0.1-0.1,0
		C72.7,75.5,72,75.7,71.8,76C71.8,75.9,71.8,76,71.8,76z"/>
</g>
<g>
	<path class="st0" d="M49.8,72.2c-1.2-1.1-2.6-1.7-2.9-1.2c-0.4,0.4,0.3,1.7,1.6,2.8s2.6,1.7,2.9,1.2C51.7,74.5,51,73.3,49.8,72.2z
		 M48.7,73.7c-1-0.9-1.7-2-1.4-2.3c0.3-0.3,1.4,0.1,2.4,1.1c1,0.9,1.7,2,1.4,2.3C50.9,75.1,49.8,74.7,48.7,73.7z"/>
	<path class="st0" d="M51.4,75l-5.8,5.5l5.3-5.3L51.4,75z"/>
	<path class="st0" d="M45.7,80.3c-0.4,0.2-1.3-0.1-2.1-0.8c-0.8-0.7-1.2-1.4-1.1-1.9l4-6c0,0-4.3,5.7-4.4,5.9
		c-0.3,0.3,0.3,1.3,1.2,2.1c1,0.8,2,1.3,2.3,1C45.7,80.4,45.7,80.4,45.7,80.3z"/>
	<path class="st0" d="M53.3,72l-3.6,1.3c0,0-0.1,0.1,0,0.1c0,0,0.1,0.1,0.1,0c0,0,3.1-1.1,3.4-1.2c0,0.1,0,0.1,0,0.2
		c0,0,0,0.1,0,0.1c0,0.1,0.1,0.1,0.1,0.1c-0.4,0.1-3.1,1.1-3.1,1.1s0,0,0,0c0,0,0,0-0.1,0s-0.1,0-0.2-0.2c0,0-0.1,0-0.1,0
		c0,0,0,0.1,0,0.1c0.1,0.2,0.2,0.3,0.4,0.3c0.1,0,0.2,0,0.2-0.1c0,0,3.3-1.2,3.3-1.2c0,0,0.1,0,0.1-0.1l0,0c0,0,0-0.1-0.1-0.1
		c-0.1,0-0.2-0.1-0.2-0.1c0,0,0,0,0-0.1c0-0.1,0.1-0.2,0.1-0.2v0v0C53.4,72,53.3,72,53.3,72z"/>
	<path class="st0" d="M46.1,73.9c-0.6-0.2-1.7,0-1.8,0.5c0,0,0,0.1,0,0.1c0.1,0.2,0.8,0.7,1,0.6c0.1,0,0.1-0.1,0.1-0.1
		c0-0.1,0-0.1-0.1-0.1c0,0,0,0-0.1,0c0,0,0,0,0,0c-0.1,0-0.6-0.3-0.7-0.4c0.1-0.1,0.1-0.1,0.3-0.2c0.3-0.1,0.9-0.2,1.2-0.1
		c0.4,0.1,0.3,0.3,0.3,0.4c0,0.1,0,0.1,0.1,0.1c0.1,0,0.1,0,0.1-0.1C46.7,74.3,46.5,74,46.1,73.9z"/>
	<path class="st0" d="M46.7,75.3c-0.1-0.2-0.5-0.3-0.5-0.3s0,0-0.1,0c0,0-0.1,0-0.1,0.1c-0.3,0-0.7,0.1-1,0.3c0,0-0.1,0-0.1,0.1
		c0,0,0,0.1,0,0.1c0.2,0.2,0.9,0.4,1.4,0.3c0.2,0,0.3-0.2,0.3-0.2C46.8,75.4,46.8,75.4,46.7,75.3z M46.5,75.4c0,0,0,0.1,0,0.1
		s0,0.1-0.1,0.1c0,0-0.1,0-0.1,0c-0.3,0.1-0.8-0.1-1-0.2c0.3-0.1,0.7-0.2,1-0.1C46.4,75.3,46.4,75.3,46.5,75.4L46.5,75.4
		C46.5,75.3,46.5,75.4,46.5,75.4z"/>
	<path class="st0" d="M47.5,75.6c0-0.1-0.1-0.1-0.1-0.1c-0.3,0.1-0.6,0.2-0.9,0.3c-0.3,0.1-0.6,0.2-0.9,0.3c-0.1,0-0.1,0.1-0.1,0.1
		c0,0.1,0.1,0.1,0.1,0.1c0.3-0.1,0.6-0.2,0.8-0.3c0.3-0.1,0.6-0.2,0.9-0.3C47.5,75.8,47.5,75.7,47.5,75.6z"/>
	<path class="st0" d="M47.4,76.3c-0.3,0-0.6-0.1-0.9-0.1c-0.1,0-0.3-0.1-0.4-0.1c-0.1,0-0.1,0-0.1,0.1c0,0.1,0,0.1,0.1,0.1
		c0.1,0,0.3,0,0.4,0.1c0.3,0.1,0.6,0.1,0.9,0.1c0.1,0,0.1-0.1,0.1-0.1C47.5,76.4,47.4,76.3,47.4,76.3z"/>
	<path class="st0" d="M46.4,76.2c-0.1,0-0.1,0-0.1,0.1c-0.1,0.1-0.1,0.3-0.2,0.4c0,0.1-0.1,0.2-0.1,0.3c0-0.1,0.1-0.1,0.1-0.1
		c0.1,0,0.1,0.1,0.1,0.1c0.1-0.1,0.1-0.2,0.1-0.3c0.1-0.1,0.1-0.3,0.2-0.4C46.5,76.3,46.4,76.3,46.4,76.2z"/>
	<path class="st0" d="M47.8,77.2c-0.1-0.3-0.4-0.6-0.9-0.5c-0.3,0.1-0.5,0.3-0.5,0.5c0,0.1,0.1,0.4,0.6,0.5c0.1,0,0.1,0,0.1-0.1
		c0-0.1,0-0.1-0.1-0.1c-0.2-0.1-0.3-0.1-0.3-0.2c0-0.1,0-0.1,0.1-0.2c0,0,0,0.1,0,0.1c0.3,0.3,0.7,0.3,1,0.2
		C47.8,77.3,47.9,77.3,47.8,77.2C47.8,77.2,47.8,77.2,47.8,77.2z M47,76.9c0.1,0,0.4,0,0.6,0.2C47.2,77.2,47,77,47,76.9
		C46.9,76.9,46.9,76.9,47,76.9z"/>
	<path class="st0" d="M46.9,72.9c0,0,0.6,2.2,2.1,4l-0.2,0.2C48.8,77.1,47.3,75.5,46.9,72.9z"/>
	<path class="st0" d="M44.4,75c0,0,1.2,2,3,3.3l-0.2,0.3C47.2,78.6,45.4,77.4,44.4,75z"/>
</g>
<path class="st0" d="M91.6,81.6c0.1,0,0.3-0.2,0.4-0.3l3.6-6.2c0.1,0.1,0.4,0.3,0.4,0.3c0.2,0.1,0.4,0.3,0.6,0.2
	c0.2,0,0.3-0.1,0.4-0.3l1.8-3.6c0.2-0.3,0.1-0.8-0.2-1c0,0,0,0-0.1,0c0,0,0,0-0.1,0c0,0-1.6,2.6-1.7,2.7c-0.1,0-0.2-0.1-0.2-0.1
	c0.1-0.1,1.8-2.7,1.8-2.7c0,0,0,0,0-0.1c0,0,0,0,0,0l-0.5-0.3c0,0-0.1,0-0.1,0c0,0-1.7,2.5-1.8,2.6c-0.1,0-0.2-0.1-0.2-0.2
	c0.1-0.1,1.9-2.5,1.9-2.5c0,0,0,0,0-0.1c0,0,0,0,0-0.1c-0.3-0.2-0.8-0.1-1,0.2l-2.6,3c-0.1,0.2-0.2,0.3-0.1,0.5s0.1,0.3,0.3,0.4
	c0,0,0.6,0.2,0.7,0.2l-4.3,5.6c-0.1,0.1-0.2,0.4-0.1,0.6c0,0.2,0.3,0.4,0.4,0.6l0.3,0.2C91.2,81.6,91.4,81.7,91.6,81.6z M95.6,75
	C95.6,75,95.5,75,95.6,75l-0.1,0.1l-3.7,6.1c-0.1,0.1-0.1,0.2-0.3,0.2s-0.3,0-0.4-0.1l-0.3-0.2c-0.1-0.1-0.2-0.2-0.3-0.4
	c0-0.1,0-0.2,0.1-0.3l4.3-5.8l0.1-0.1c0,0,0,0,0-0.1c0,0,0-0.1,0-0.1l-0.7-0.3c-0.1-0.1-0.2-0.2-0.2-0.3l0,0c0-0.1,0-0.3,0.1-0.4
	l2.5-2.9c0.2-0.2,0.4-0.3,0.7-0.2c-0.1,0.2-1.9,2.5-1.9,2.5c0,0,0,0,0,0.1l0,0l0.3,0.2c0,0,0,0,0.1,0l0,0c0,0,1.7-2.5,1.8-2.6
	c0.1,0.1,0.2,0.2,0.3,0.2c-0.1,0.1-1.8,2.7-1.8,2.7c0,0,0,0,0,0.1c0,0,0,0,0,0l0.4,0.2c0,0,0,0,0.1,0s0,0,0,0s1.6-2.5,1.7-2.7
	c0.1,0.1,0.2,0.2,0.2,0.3s0,0.3-0.1,0.4l-1.8,3.4c-0.1,0.1-0.2,0.2-0.3,0.2s-0.3,0-0.4-0.1L95.6,75C95.7,74.9,95.6,74.9,95.6,75z"/>
<g>
	<path class="st0" d="M64,75.7c0.6-1.3,0.7-2.5,0.2-2.7c-0.4-0.2-1.3,0.7-1.9,2c-0.6,1.3-0.7,2.5-0.2,2.7C62.5,77.9,63.4,77,64,75.7
		z M62.4,75.1c0.5-1.1,1.2-1.9,1.6-1.7c0.4,0.2,0.3,1.2-0.2,2.3c-0.5,1.1-1.2,1.9-1.6,1.7C61.8,77.3,61.9,76.2,62.4,75.1z"/>
	<path class="st0" d="M64.8,76c0.4-1,0.5-1.9,0.2-2.1c-0.3-0.2-1,0.5-1.4,1.5c-0.4,1-0.5,1.9-0.2,2.1C63.7,77.7,64.4,77,64.8,76z
		 M63.6,75.6c0.4-0.9,0.9-1.4,1.2-1.3c0.3,0.1,0.2,0.9-0.2,1.8c-0.4,0.9-0.9,1.4-1.2,1.3C63.2,77.3,63.3,76.5,63.6,75.6z"/>
	<path class="st0" d="M62.1,77.7l-5.2-2.9l4.9,2.6L62.1,77.7z"/>
	<path class="st0" d="M57.1,74.8c-0.3-0.3-0.3-1.1,0.1-2c0.3-0.8,0.9-1.3,1.3-1.4l5.1,1.4c0,0-4.9-1.7-5.1-1.7
		c-0.3-0.2-1,0.5-1.4,1.6c-0.4,1-0.5,2-0.2,2.1C57,74.8,57,74.8,57.1,74.8z"/>
	<path class="st0" d="M65,74l-1.3-0.2l1,0.4L65,74z"/>
	<path class="st0" d="M63.4,77.6l-1.2-0.7l1,0.4L63.4,77.6z"/>
	<path class="st0" d="M63.7,73.8c0,0-0.9,0.5-1.1,1.7c0,0,0.4-1.3,1.5-1.7L63.7,73.8z"/>
	<path class="st0" d="M64.5,75.3c-0.1,0,0-0.2,0-0.3s0.2-0.2,0.2-0.2c0.1,0,0,0.2,0,0.3C64.6,75.3,64.5,75.4,64.5,75.3z"/>
	<path class="st0" d="M63.8,76.9c-0.1,0,0-0.2,0-0.3c0-0.1,0.2-0.2,0.2-0.2c0.1,0,0,0.2,0,0.3C64,76.8,63.9,76.9,63.8,76.9z"/>
	<path class="st0" d="M63.9,76.1c-0.1,0,0-0.2,0-0.3s0.2-0.2,0.2-0.2c0.1,0,0,0.2,0,0.3C64.1,76,64,76.1,63.9,76.1z"/>
	<path class="st0" d="M64.3,76.2c-0.1,0,0-0.2,0-0.3s0.2-0.2,0.2-0.2c0.1,0,0,0.2,0,0.3C64.4,76.2,64.3,76.3,64.3,76.2z"/>
	<path class="st0" d="M65.8,77.9l-0.5,0l0.1,0.3l0.4,0.1L65.8,77.9z"/>
	<path class="st0" d="M65.6,79.3L65.1,79c-0.2,0.3,0.1,0.6,0.1,0.6L65.6,79.3z"/>
	<path class="st0" d="M65.2,80.6l-0.4-0.4l-0.2,0.3C64.9,80.8,65.2,80.6,65.2,80.6z"/>
	<path class="st0" d="M66,81.9l-0.2-0.3c-0.3,0.2-0.3,0.2-0.3,0.2l0.1,0.4L66,81.9z"/>
	<path class="st0" d="M63.5,80.8l-0.2-0.5c-0.3,0.1-0.1,0.5-0.1,0.5L63.5,80.8z"/>
	<path class="st0" d="M64.5,82l-0.6-0.2l-0.1,0.4C64.2,82.3,64.5,82,64.5,82z"/>
</g>
<g>
	<path class="st0" d="M29.9,77.5c0.3,0.1,0.7,0.2,1.1,0.2c0.2,0.3,0.6,0.5,0.9,0.6c1.3,0.6,2.9-0.1,3.6-1.6c0.6-1.4-0.2-3.4-1.6-4
		c-0.2-0.1-0.5-0.1-0.8-0.1c-0.2-0.2-0.4-0.3-0.6-0.4c-1.3-0.6-3.3,0.2-4,1.7C27.9,75.3,28.6,77,29.9,77.5z M32.4,72.4
		c0.2,0.1,0.4,0.2,0.6,0.4c0.2,0,0.4,0,0.7,0.1c1.2,0.5,1.9,2.3,1.4,3.6c-0.6,1.3-2,1.9-3.1,1.4c-0.3-0.1-0.6-0.3-0.8-0.6
		c-0.3,0-0.7,0-1-0.2c-1.2-0.5-1.7-2-1.2-3.2C29.5,72.6,31.3,71.9,32.4,72.4z"/>
	<path class="st0" d="M29.8,76.1c0.1,0.7,0.9,0.9,1.3,0.9c0.6,1,1.7,0.6,1.7,0.6c-0.6,0-0.9-0.4-0.9-0.4s0.4,0.3,1.3-0.1
		c0,0-0.3,0.1-0.9-0.3c0,0,0.3-0.2,0.3-0.7l-0.9,0.3c0,0-0.6-0.3-0.8-0.7c0,0-0.1,0.1,0,0.6C30.4,76.4,29.8,76.1,29.8,76.1z"/>
	<path class="st0" d="M33.9,73.7c0.4,0.4,0.9,1.1,1.1,2.4c0,0,0.2-1.6-0.9-2.5L33.9,73.7z"/>
	<path class="st0" d="M33.7,73.5l0.1-0.2c-0.2-0.1-0.3-0.2-0.6-0.3l-0.1,0.2C33.1,73.2,33.4,73.3,33.7,73.5z"/>
</g>
<g>
	<path class="st0" d="M86.5,74.4c-0.1-0.2-0.2-0.3-0.3-0.4c-0.3-1.8-1.4-1.5-1.9-1.2c-0.4-1.7-1.6-1.2-2-0.9c0.6-0.1,1.5-0.1,2,0.9
		c0,0-0.1,0-0.1,0.1c0,0,0.1,0,0.1,0c0,0.1,0.1,0.2,0.1,0.3c0-0.1,0-0.2-0.1-0.3c0.6-0.1,1.4,0,1.9,1c-0.7-0.7-1.7-0.6-2.1-0.5
		c-0.2-0.4-0.8-1.6-2.2-1.3c0,0-1.4,0-1.6,1.8c0,0-0.1,1.6-0.2,2.2c0,0-0.9,1.6,0.2,2.1c0,0,0.4,0.4,1.2,0.2
		c0.3,0.8,0.9,0.9,0.9,0.9c1.1,0.6,1.9-1,1.9-1c0.5-0.5,1.7-1.5,1.7-1.5C87.3,75.5,86.5,74.4,86.5,74.4z M85.6,76.6
		c0,0-1.1,1-1.5,1.4c0,0-0.7,1.5-1.7,1c0,0-0.4-0.1-0.7-0.7c0.2,0.1,0.5,0.1,0.8-0.2c-0.4,0.2-0.9,0-0.9,0c-0.5-0.3-0.6-0.7-0.6-1
		c-0.1,0.3-0.1,0.7,0.3,1.1c-0.6,0.1-0.9-0.2-0.9-0.2c-1-0.5-0.2-2-0.2-2c0.1-0.6,0.3-2.1,0.3-2.1c0.2-1.7,1.4-1.7,1.4-1.7
		c1.2-0.2,1.8,0.7,1.9,1.1c-0.5-0.2-1,0-1.3,0.2c0.6-0.1,1.7,0,2.1,1.4c-0.1-0.9-0.4-1.3-0.7-1.5c0.4-0.1,1.5-0.2,2.1,0.9
		C86.1,74.5,86.8,75.5,85.6,76.6z"/>
	<path class="st0" d="M84.7,75.1l0.1,0.1l0,0L84.7,75.1z"/>
	<path class="st0" d="M84.2,73.2l0.1,0.1l0,0L84.2,73.2z"/>
	<path class="st0" d="M85.4,71.7c0,0-0.7,0.1-1.2,1.7c0,0,0.8-1.2,1.8-1.3C85.9,72.1,85.9,71.5,85.4,71.7z"/>
</g>
<g>
	<path class="st0" d="M3.6,78c0,0,2.1-1.3,2.8-2.7c0,0,0.1-0.4-0.8-0.9c-0.9-0.4-1.4-1-1.9-1.2c-0.4-0.2-1.5-0.8-1.5-0.8
		s-0.9-0.8-0.5,0.4c0,0,0.3,1.3,0.6,2.4s0.2,2,0.6,2.8C2.8,77.9,2.9,78.3,3.6,78z M2.9,77.5c-0.3-0.7-0.3-1.4-0.5-2.4S1.9,73,1.9,73
		c-0.3-1,0.4-0.3,0.4-0.3s0.9,0.5,1.3,0.7c0.3,0.2,0.9,0.7,1.6,1.1c0.8,0.4,0.7,0.8,0.7,0.8c-0.5,1.2-2.3,2.3-2.3,2.3
		C3,77.9,2.9,77.5,2.9,77.5z"/>
	<path class="st0" d="M6.7,75.3c0,0,3,0.8,2.8,1.3c0,0-1.3,2.4-3.8,2.8l-2.7-1.3c0,0,0.5-0.1,2.1,0.7c0,0,0.4,0.4,0.8,0.2
		c0,0,1.9-0.4,2.8-2.2c0,0,0.2-0.6-0.7-0.6C8.2,76.1,6,75.1,6.7,75.3z"/>
	<path class="st0" d="M2.1,72.1c0,0,2.7,0.8,3.4,0.9c0,0,3.1,2.2,4,3.2c0,0,0.1,0.2-1.4-0.9c-1.5-1.1-2.5-1.9-2.5-1.9
		S2.8,72.6,2.1,72.1z"/>
</g>
<g>
	<path class="st0" d="M15.8,74.8c-0.8,0.2-2,1.1-1.8,2.6c0.2,1.4,0,1.9,0,1.9s-0.7,0.8,1.2-0.4c2.1-1.3,1.8-2.8,1.7-3.3
		c-0.1-0.8,0-1.3,0-1.3C16.6,74.6,15.8,74.8,15.8,74.8z M16.6,75.9c0.1,0.5,0.3,1.7-1.4,2.8c-1.6,1-1,0.3-1,0.3s0.2-0.4,0-1.7
		c-0.2-1.2,0.8-2,1.5-2.2c0,0,0.4-0.1,0.8-0.3c0,0.1-0.1,0.3-0.2,0.6c-0.8,0.7-1.8,1.1-1.8,1.1c0.9-0.2,1.4-0.6,1.7-0.8
		c-0.1,0.2-0.2,0.4-0.3,0.6c-0.6,0.6-1.3,0.9-1.3,0.9c0.5-0.2,0.9-0.4,1.1-0.6c-0.3,0.6-0.6,1.2-1,1.8c0,0,0.5-0.5,1-1.3l0,0
		c0.1,0.6-0.1,1.1-0.1,1.1c0.3-0.4,0.3-1,0.3-1.3c0.1-0.2,0.3-0.4,0.4-0.7v0c0.2,0.6,0.1,1.2,0.1,1.2c0.2-0.5,0.1-1.1,0-1.4
		c0.1-0.2,0.2-0.5,0.3-0.8C16.6,75.4,16.6,75.6,16.6,75.9z M16.7,74.8L16.7,74.8c0-0.1,0-0.1,0-0.1C16.7,74.7,16.7,74.7,16.7,74.8z"
		/>
	<path class="st0" d="M18.4,74.5c0.4,0.8,1.6,1.7,3,1.1c1.3-0.6,1.9-0.5,1.9-0.5s0.9,0.4-0.7-1.1c-1.9-1.7-3.1-1-3.6-0.8
		c-0.8,0.3-1.3,0.3-1.3,0.3C18,73.8,18.4,74.5,18.4,74.5z M19.2,73.4c0.4-0.2,1.5-0.8,3.1,0.7c1.4,1.2,0.6,0.9,0.6,0.9
		s-0.4-0.1-1.6,0.4c-1.2,0.5-2.2-0.3-2.6-0.9c0,0-0.2-0.4-0.4-0.6c0.1,0,0.3,0,0.7,0c0.9,0.6,1.5,1.4,1.5,1.4
		c-0.4-0.8-0.9-1.2-1.2-1.4c0.2,0,0.4,0,0.7,0.1c0.7,0.4,1.2,1,1.2,1c-0.3-0.4-0.6-0.7-0.9-0.9c0.6,0.1,1.3,0.3,2,0.6
		c0,0-0.6-0.3-1.5-0.6l0,0c0.6-0.2,1.1-0.1,1.1-0.1c-0.4-0.1-1.1,0-1.3,0.1c-0.2-0.1-0.5-0.1-0.8-0.2h0c0.5-0.4,1.1-0.4,1.1-0.4
		c-0.6-0.1-1.1,0.2-1.4,0.3c-0.3,0-0.6-0.1-0.9-0.1C18.8,73.6,19,73.5,19.2,73.4z M18.2,73.7L18.2,73.7c-0.1,0-0.1,0-0.1,0
		S18.1,73.7,18.2,73.7z"/>
</g>
<g>
	<path class="st0" d="M74.7,89.8c0.2-0.9-0.3-2.2-1.1-3c-0.6-0.5-1.3-0.7-1.9-0.4c-0.3,0.1-0.8,0.6-1,0.9c-0.1,0.4-0.1,0.8,0.1,1
		c0.1,0.2,0.3,0.2,0.5,0.2c-0.1,0.1-0.2,0.1-0.3,0.2c-0.3,0.2-0.7,0.2-1,0.3c-0.4,0.1-0.7,0.1-0.8,0.3c-0.1,0.2,0,0.4,0.2,0.8
		c0.2,0.4,0.4,0.6,0.6,0.6c0.3,0.1,0.5-0.2,0.8-0.4c0.2-0.2,0.4-0.4,0.8-0.6c0.1,0,0.2-0.1,0.3-0.1c-0.1,0.3,0,0.6,0.2,0.9
		c0.2,0.3,0.5,0.4,0.8,0.5C74,91.2,74.6,90.5,74.7,89.8z M71.8,88.5C71.8,88.5,71.8,88.5,71.8,88.5l-0.1,0c-0.2,0-0.4-0.1-0.6-0.2
		c-0.2-0.2-0.3-0.5-0.2-0.8c0.1-0.3,0.6-0.7,0.9-0.8c0.6-0.2,1.2-0.1,1.7,0.4c0.7,0.6,1.1,1.8,0.9,2.6c0,0.1-0.1,0.3-0.1,0.4
		c-0.2,0.4-0.7,0.8-1.3,0.8c-0.2,0-0.5-0.1-0.6-0.4c-0.2-0.3-0.3-0.7-0.2-1v0h0c-0.1,0-0.4,0.2-0.5,0.2c-0.3,0.1-0.5,0.3-0.7,0.5
		c-0.3,0.2-0.5,0.4-0.7,0.4c-0.1,0-0.3-0.2-0.4-0.4c-0.1-0.3-0.2-0.4-0.1-0.6c0.1-0.2,0.3-0.2,0.7-0.3c0.3-0.1,0.6-0.1,0.9-0.3
		c0.1-0.1,0.3-0.2,0.5-0.3l0,0C71.8,88.5,71.8,88.5,71.8,88.5z"/>
	<path class="st0" d="M71.8,89.3L71.8,89.3l0,0.1l0,0h0.1c0,0,0.5-0.2,1-0.1c0,0,0.1,0,0.1-0.1c0,0,0-0.1-0.1-0.1
		C72.4,89,71.9,89.2,71.8,89.3z"/>
	<path class="st0" d="M71.7,89L71.7,89l0.1,0c0,0,0.3-0.4,0.7-0.5l0,0v-0.1l0,0h-0.1c-0.4,0.1-0.8,0.6-0.8,0.6l0,0
		C71.6,88.9,71.6,89,71.7,89z"/>
	<path class="st0" d="M71.8,89.2L71.8,89.2l0.1,0c0.2-0.2,0.9-0.4,0.9-0.4c0,0,0.1-0.1,0-0.1c0,0-0.1-0.1-0.1,0
		C72.7,88.7,72,88.9,71.8,89.2C71.8,89.1,71.8,89.1,71.8,89.2z"/>
</g>
<g>
	<path class="st0" d="M21.2,85.2c-1.2-1.1-2.6-1.7-2.9-1.2c-0.4,0.4,0.3,1.7,1.6,2.8c1.2,1.1,2.6,1.7,2.9,1.2
		C23.2,87.5,22.5,86.3,21.2,85.2z M20.1,86.7c-1-0.9-1.7-2-1.4-2.3c0.3-0.3,1.4,0.1,2.4,1.1c1,0.9,1.7,2,1.4,2.3
		C22.3,88.1,21.2,87.6,20.1,86.7z"/>
	<path class="st0" d="M22.8,87.9l-5.8,5.5l5.3-5.3L22.8,87.9z"/>
	<path class="st0" d="M17.1,93.3c-0.4,0.2-1.3-0.1-2.1-0.8c-0.8-0.7-1.2-1.4-1.1-1.9l4-6c0,0-4.3,5.7-4.4,5.9
		c-0.3,0.3,0.3,1.3,1.2,2.1c1,0.8,2,1.3,2.3,1C17.1,93.4,17.1,93.3,17.1,93.3z"/>
	<path class="st0" d="M24.8,85l-3.6,1.3c0,0-0.1,0.1,0,0.1c0,0,0.1,0.1,0.1,0c0,0,3.1-1.1,3.4-1.2c0,0.1,0,0.1,0,0.2
		c0,0,0,0.1,0,0.1c0,0.1,0.1,0.1,0.1,0.1c-0.4,0.1-3.1,1.1-3.1,1.1s0,0,0,0c0,0,0,0-0.1,0c-0.1,0-0.1,0-0.2-0.2c0,0-0.1,0-0.1,0
		s0,0.1,0,0.1c0.1,0.2,0.2,0.3,0.4,0.3c0.1,0,0.2,0,0.2-0.1c0,0,3.3-1.2,3.3-1.2c0,0,0.1,0,0.1-0.1l0,0c0,0,0-0.1-0.1-0.1
		c-0.1,0-0.2-0.1-0.2-0.1c0,0,0,0,0-0.1c0-0.1,0.1-0.2,0.1-0.2v0v0C24.8,85,24.8,85,24.8,85z"/>
	<path class="st0" d="M17.6,86.9c-0.6-0.2-1.7,0-1.8,0.5c0,0,0,0.1,0,0.1c0.1,0.2,0.8,0.7,1,0.6c0.1,0,0.1-0.1,0.1-0.1
		c0-0.1,0-0.1-0.1-0.1c0,0,0,0-0.1,0c0,0,0,0,0,0c-0.1,0-0.6-0.3-0.7-0.4c0.1-0.1,0.1-0.1,0.3-0.2c0.3-0.1,0.9-0.2,1.2-0.1
		c0.4,0.1,0.3,0.3,0.3,0.4c0,0.1,0,0.1,0.1,0.1c0.1,0,0.1,0,0.1-0.1C18.1,87.2,18,87,17.6,86.9z"/>
	<path class="st0" d="M18.2,88.2c-0.1-0.2-0.5-0.3-0.5-0.3s0,0-0.1,0c0,0-0.1,0-0.1,0.1c-0.3,0-0.7,0.1-1,0.3c0,0-0.1,0-0.1,0.1
		c0,0,0,0.1,0,0.1c0.2,0.2,0.9,0.4,1.4,0.3c0.2,0,0.3-0.2,0.3-0.2C18.2,88.4,18.2,88.3,18.2,88.2z M18,88.3c0,0,0,0.1,0,0.1
		c0,0,0,0.1-0.1,0.1c0,0-0.1,0-0.1,0c-0.3,0.1-0.8-0.1-1-0.2c0.3-0.1,0.7-0.2,1-0.1C17.9,88.3,17.9,88.3,18,88.3L18,88.3
		C18,88.3,18,88.3,18,88.3z"/>
	<path class="st0" d="M18.9,88.6c0-0.1-0.1-0.1-0.1-0.1c-0.3,0.1-0.6,0.2-0.9,0.3C17.6,89,17.3,89,17,89.2c-0.1,0-0.1,0.1-0.1,0.1
		c0,0.1,0.1,0.1,0.1,0.1c0.3-0.1,0.6-0.2,0.8-0.3c0.3-0.1,0.6-0.2,0.9-0.3C18.9,88.8,19,88.7,18.9,88.6z"/>
	<path class="st0" d="M18.8,89.3c-0.3,0-0.6-0.1-0.9-0.1c-0.1,0-0.3-0.1-0.4-0.1c-0.1,0-0.1,0-0.1,0.1c0,0.1,0,0.1,0.1,0.1
		c0.1,0,0.3,0,0.4,0.1c0.3,0.1,0.6,0.1,0.9,0.1c0.1,0,0.1-0.1,0.1-0.1C18.9,89.3,18.9,89.3,18.8,89.3z"/>
	<path class="st0" d="M17.9,89.2c-0.1,0-0.1,0-0.1,0.1c-0.1,0.1-0.1,0.3-0.2,0.4c0,0.1-0.1,0.2-0.1,0.3c0-0.1,0.1-0.1,0.1-0.1
		c0.1,0,0.1,0.1,0.1,0.1c0.1-0.1,0.1-0.2,0.1-0.3c0.1-0.1,0.1-0.3,0.2-0.4C17.9,89.3,17.9,89.2,17.9,89.2z"/>
	<path class="st0" d="M19.3,90.2c-0.1-0.3-0.4-0.6-0.9-0.5c-0.3,0.1-0.5,0.3-0.5,0.5c0,0.1,0.1,0.4,0.6,0.5c0.1,0,0.1,0,0.1-0.1
		c0-0.1,0-0.1-0.1-0.1c-0.2-0.1-0.3-0.1-0.3-0.2c0-0.1,0-0.1,0.1-0.2c0,0,0,0.1,0,0.1c0.3,0.3,0.7,0.3,1,0.2
		C19.3,90.3,19.3,90.3,19.3,90.2C19.3,90.2,19.3,90.2,19.3,90.2z M18.4,89.9c0.1,0,0.4,0,0.6,0.2C18.7,90.2,18.4,90,18.4,89.9
		C18.4,89.9,18.4,89.9,18.4,89.9z"/>
	<path class="st0" d="M18.4,85.9c0,0,0.6,2.2,2.1,4l-0.2,0.2C20.3,90.1,18.8,88.4,18.4,85.9z"/>
	<path class="st0" d="M15.8,88c0,0,1.2,2,3,3.3l-0.2,0.3C18.7,91.6,16.9,90.3,15.8,88z"/>
</g>
<path class="st0" d="M63.6,84.6c-0.1,0-0.4,0-0.6,0.1l-5.9,4.1c-0.1-0.1-0.2-0.5-0.2-0.5c-0.1-0.2-0.2-0.4-0.4-0.4
	c-0.2,0-0.3,0-0.5,0.1l-3.1,2.5c-0.3,0.2-0.4,0.7-0.2,1c0,0,0,0,0.1,0c0,0,0,0,0.1,0c0,0,2.5-1.7,2.7-1.8c0,0.1,0.1,0.1,0.1,0.2
	c-0.1,0.1-2.7,1.7-2.7,1.7s0,0,0,0.1s0,0,0,0.1l0.3,0.5c0,0,0.1,0.1,0.1,0c0,0,2.6-1.6,2.7-1.6c0,0.1,0.1,0.2,0.1,0.2
	c-0.1,0.1-2.8,1.5-2.8,1.5s0,0,0,0.1s0,0,0,0.1c0.2,0.3,0.6,0.4,1,0.2l3.6-1.6c0.2-0.1,0.3-0.2,0.3-0.4c0-0.2,0-0.3-0.1-0.5
	c0,0-0.4-0.4-0.5-0.5l6.3-3.3c0.1-0.1,0.3-0.3,0.4-0.4c0-0.2-0.1-0.5-0.2-0.7L64,85C64,84.8,63.8,84.6,63.6,84.6z M57.1,89
	C57.2,89,57.2,89,57.1,89l0.1-0.1l6-4c0.1-0.1,0.2-0.1,0.3-0.1c0.1,0,0.3,0.1,0.3,0.3l0.2,0.3c0.1,0.1,0.1,0.3,0.1,0.4
	c0,0.1-0.1,0.2-0.2,0.3l-6.3,3.4l-0.1,0c0,0,0,0,0,0.1s0,0.1,0,0.1l0.4,0.6c0.1,0.1,0.1,0.2,0.1,0.4l0,0c0,0.1-0.1,0.2-0.2,0.3
	l-3.5,1.6c-0.2,0.1-0.5,0.1-0.7-0.1c0.2-0.1,2.8-1.5,2.8-1.5s0,0,0-0.1c0,0,0,0,0-0.1l-0.2-0.4c0,0,0,0-0.1,0c0,0,0,0-0.1,0
	c0,0-2.6,1.6-2.7,1.6c-0.1-0.1-0.1-0.3-0.2-0.3c0.1-0.1,2.7-1.7,2.7-1.7s0,0,0-0.1s0,0,0-0.1l-0.2-0.3c0,0,0,0-0.1,0c0,0,0,0-0.1,0
	c0,0-2.5,1.7-2.6,1.8c-0.1-0.1-0.1-0.2,0-0.4c0-0.1,0.1-0.2,0.2-0.3l3.1-2.4c0.1-0.1,0.2-0.1,0.4-0.1c0.1,0,0.2,0.1,0.3,0.2L57.1,89
	C57.1,89,57.1,89,57.1,89z"/>
<g>
	<path class="st0" d="M92.1,88.4c-1.2,0.8-1.9,1.8-1.7,2.2c0.3,0.4,1.4,0.1,2.7-0.7c1.2-0.8,1.9-1.8,1.7-2.2
		C94.5,87.3,93.3,87.6,92.1,88.4z M93.1,89.7c-1,0.7-2,0.9-2.2,0.6s0.4-1.1,1.4-1.8c1-0.7,2-0.9,2.2-0.6
		C94.7,88.2,94.1,89,93.1,89.7z"/>
	<path class="st0" d="M91.6,87.6c-0.9,0.6-1.5,1.3-1.3,1.7c0.2,0.3,1.1,0.1,2-0.5c0.9-0.6,1.5-1.3,1.3-1.7
		C93.4,86.8,92.5,87,91.6,87.6z M92.4,88.6c-0.8,0.5-1.6,0.7-1.7,0.4s0.3-0.9,1.1-1.4c0.8-0.5,1.6-0.7,1.7-0.4
		C93.6,87.5,93.1,88.1,92.4,88.6z"/>
	<path class="st0" d="M94.7,87.7l2.8,5.3l-2.7-4.9L94.7,87.7z"/>
	<path class="st0" d="M97.4,92.9c0.1,0.4-0.4,1.1-1.2,1.6c-0.7,0.5-1.4,0.7-1.9,0.5l-3.6-4c0,0,3.2,4.1,3.3,4.2
		c0.2,0.3,1.1,0.1,2.1-0.5c0.9-0.6,1.5-1.3,1.3-1.7C97.5,93,97.4,92.9,97.4,92.9z"/>
	<path class="st0" d="M90.3,89.3l1,0.8l-0.6-0.9L90.3,89.3z"/>
	<path class="st0" d="M93.6,87.1l0.6,1.2l-0.6-0.9V87.1z"/>
	<path class="st0" d="M91.3,90.1c0,0,1,0.1,1.9-0.8c0,0-1.1,0.8-2.1,0.6L91.3,90.1z"/>
	<path class="st0" d="M91.5,88.4c0,0.1,0,0.2-0.2,0.3c-0.1,0.1-0.3,0.1-0.3,0.1c0-0.1,0-0.2,0.2-0.3C91.3,88.3,91.4,88.3,91.5,88.4z
		"/>
	<path class="st0" d="M92.9,87.4c0,0.1,0,0.2-0.2,0.3c-0.1,0.1-0.3,0.1-0.3,0.1c0-0.1,0-0.2,0.2-0.3C92.7,87.4,92.8,87.4,92.9,87.4z
		"/>
	<path class="st0" d="M92.4,88c0,0.1,0,0.2-0.2,0.3c-0.1,0.1-0.3,0.1-0.3,0.1c0-0.1,0-0.2,0.2-0.3C92.2,88,92.3,88,92.4,88z"/>
	<path class="st0" d="M92.2,87.7c0,0.1,0,0.2-0.2,0.3c-0.1,0.1-0.3,0.1-0.3,0.1c0-0.1,0-0.2,0.2-0.3S92.1,87.6,92.2,87.7z"/>
	<path class="st0" d="M91.7,85.5l0.4,0.2l0.1-0.3l-0.3-0.3L91.7,85.5z"/>
	<path class="st0" d="M92.7,84.4l0.2,0.6c0.3-0.1,0.2-0.5,0.2-0.5L92.7,84.4z"/>
	<path class="st0" d="M93.7,83.6l0.1,0.5l0.3-0.2C94.1,83.5,93.7,83.6,93.7,83.6z"/>
	<path class="st0" d="M93.8,82v0.4c0.3,0,0.3,0,0.3,0l0.1-0.4L93.8,82z"/>
	<path class="st0" d="M95.3,84.4l-0.1,0.5c0.3,0.1,0.4-0.4,0.4-0.4L95.3,84.4z"/>
	<path class="st0" d="M95.1,82.8l0.4,0.5l0.3-0.3C95.5,82.6,95.1,82.8,95.1,82.8z"/>
</g>
<g>
	<path class="st0" d="M2.9,91c0.3,0.1,0.7,0.2,1.1,0.2c0.2,0.3,0.6,0.5,0.9,0.6c1.3,0.6,2.9-0.1,3.6-1.6c0.6-1.4-0.2-3.4-1.6-4
		C6.6,86.1,6.3,86,6.1,86c-0.2-0.2-0.4-0.3-0.6-0.4c-1.3-0.6-3.3,0.2-4,1.7C0.9,88.8,1.5,90.4,2.9,91z M5.4,85.8
		C5.6,85.9,5.8,86,6,86.2c0.2,0,0.4,0,0.7,0.1c1.2,0.5,1.9,2.3,1.4,3.6c-0.6,1.3-2,1.9-3.1,1.4c-0.3-0.1-0.6-0.3-0.8-0.6
		c-0.3,0-0.7,0-1-0.2c-1.2-0.5-1.7-2-1.2-3.2C2.5,86,4.2,85.3,5.4,85.8z"/>
	<path class="st0" d="M2.7,89.5c0.1,0.7,0.9,0.9,1.3,0.9c0.6,1,1.7,0.6,1.7,0.6c-0.6,0-0.9-0.4-0.9-0.4s0.4,0.3,1.3-0.1
		c0,0-0.3,0.1-0.9-0.3c0,0,0.3-0.2,0.3-0.7L4.6,90c0,0-0.6-0.3-0.8-0.7c0,0-0.1,0.1,0,0.6C3.4,89.9,2.7,89.5,2.7,89.5z"/>
	<path class="st0" d="M6.9,87.1c0.4,0.4,0.9,1.1,1.1,2.4c0,0,0.2-1.6-0.9-2.5L6.9,87.1z"/>
	<path class="st0" d="M6.7,86.9l0.1-0.2c-0.2-0.1-0.3-0.2-0.6-0.3l-0.1,0.2C6.1,86.6,6.3,86.7,6.7,86.9z"/>
</g>
<g>
	<path class="st0" d="M47.5,87.6c-0.1-0.2-0.2-0.3-0.3-0.4c-0.3-1.8-1.4-1.5-1.9-1.2c-0.4-1.7-1.6-1.2-2-0.9c0.6-0.1,1.5-0.1,2,0.9
		c0,0-0.1,0-0.1,0.1c0,0,0.1,0,0.1,0c0,0.1,0.1,0.2,0.1,0.3c0-0.1,0-0.2-0.1-0.3c0.6-0.1,1.4,0,1.9,1c-0.7-0.7-1.7-0.6-2.1-0.5
		c-0.2-0.4-0.8-1.6-2.2-1.3c0,0-1.4,0-1.6,1.8c0,0-0.1,1.6-0.2,2.2c0,0-0.9,1.6,0.2,2.1c0,0,0.4,0.4,1.2,0.2
		c0.3,0.8,0.9,0.9,0.9,0.9c1.1,0.6,1.9-1,1.9-1c0.5-0.5,1.7-1.5,1.7-1.5C48.4,88.7,47.5,87.6,47.5,87.6z M46.7,89.8
		c0,0-1.1,1-1.5,1.4c0,0-0.7,1.5-1.7,1c0,0-0.4-0.1-0.7-0.7c0.2,0.1,0.5,0.1,0.8-0.2c-0.4,0.2-0.9,0-0.9,0c-0.5-0.3-0.6-0.7-0.6-1
		c-0.1,0.3-0.1,0.7,0.3,1.1c-0.6,0.1-0.9-0.2-0.9-0.2c-1-0.5-0.2-2-0.2-2c0.1-0.6,0.3-2.1,0.3-2.1c0.2-1.7,1.4-1.7,1.4-1.7
		c1.2-0.2,1.8,0.7,1.9,1.1c-0.5-0.2-1,0-1.3,0.2c0.6-0.1,1.7,0,2.1,1.4c-0.1-0.9-0.4-1.3-0.7-1.5c0.4-0.1,1.5-0.2,2.1,0.9
		C47.2,87.6,47.9,88.7,46.7,89.8z"/>
	<path class="st0" d="M45.8,88.3l0.1,0.1l0,0L45.8,88.3z"/>
	<path class="st0" d="M45.3,86.4l0.1,0.1l0,0L45.3,86.4z"/>
	<path class="st0" d="M46.4,84.9c0,0-0.7,0.1-1.2,1.7c0,0,0.8-1.2,1.8-1.3C47,85.3,47,84.7,46.4,84.9z"/>
</g>
<g>
	<path class="st0" d="M30.7,87.8c0,0,1.9,1.7,3.4,1.9c0,0,0.4-0.1,0.6-1c0.2-1,0.6-1.7,0.7-2.2c0.1-0.4,0.3-1.7,0.3-1.7
		s0.5-1-0.5-0.4c0,0-1.1,0.7-2.1,1.3c-1,0.6-1.8,0.8-2.5,1.3C30.6,87.1,30.1,87.3,30.7,87.8z M30.9,87.1c0.6-0.5,1.3-0.7,2.2-1.1
		c0.9-0.5,1.9-1.1,1.9-1.1c0.9-0.6,0.4,0.3,0.4,0.3s-0.2,1-0.3,1.4c-0.1,0.4-0.4,1-0.6,1.9c-0.1,0.8-0.6,0.9-0.6,0.9
		c-1.3-0.2-2.9-1.6-2.9-1.6C30.6,87.3,30.9,87.1,30.9,87.1z"/>
	<path class="st0" d="M34.1,90.1c0,0,0.1,3.1-0.5,3.1c0,0-2.7-0.6-3.8-2.8l0.5-2.9c0,0,0.2,0.4,0,2.2c0,0-0.2,0.5,0,0.8
		c0,0,0.9,1.7,2.9,2.1c0,0,0.6,0,0.4-0.8C33.8,91.8,34.1,89.3,34.1,90.1z"/>
	<path class="st0" d="M35.8,84.7c0,0,0,2.9,0.1,3.5c0,0-1.2,3.6-1.9,4.8c0,0-0.1,0.1,0.4-1.6c0.6-1.7,1.1-2.9,1.1-2.9
		S35.5,85.5,35.8,84.7z"/>
</g>
<g>
	<path class="st0" d="M84.1,86.2C84,85.3,83.2,84,81.8,84s-1.9-0.3-1.9-0.3S79.2,83,80.1,85c1,2.3,2.5,2.2,3,2.2
		c0.8,0,1.3,0.2,1.3,0.2C84.2,87,84.1,86.2,84.1,86.2z M83,86.9c-0.5,0-1.7,0.1-2.6-1.8c-0.8-1.7-0.2-1-0.2-1s0.4,0.2,1.6,0.2
		s1.9,1.1,2,1.8c0,0,0.1,0.4,0.2,0.8c-0.1,0-0.3-0.1-0.6-0.3c-0.6-0.9-0.8-1.9-0.8-1.9c0.1,0.9,0.4,1.4,0.6,1.8
		c-0.2-0.1-0.3-0.2-0.6-0.3c-0.5-0.7-0.7-1.4-0.7-1.4c0.1,0.5,0.3,0.9,0.4,1.2c-0.5-0.3-1.1-0.8-1.6-1.3c0,0,0.4,0.5,1.1,1.1l0,0
		c-0.6,0-1.1-0.3-1.1-0.3c0.3,0.3,1,0.4,1.3,0.4c0.2,0.1,0.4,0.3,0.6,0.5h0c-0.6,0.2-1.2-0.1-1.2-0.1c0.4,0.3,1.1,0.2,1.4,0.2
		c0.2,0.1,0.5,0.3,0.8,0.4C83.4,86.9,83.2,86.9,83,86.9z M84,87L84,87c0,0,0.1,0,0.1,0C84.1,87.1,84.1,87,84,87z"/>
	<path class="st0" d="M84.1,88.8c-0.8,0.3-1.9,1.4-1.5,2.8c0.4,1.4,0.2,1.9,0.2,1.9S82.3,94.3,84,93c1.9-1.6,1.4-3,1.3-3.5
		c-0.2-0.8-0.1-1.3-0.1-1.3C84.8,88.5,84.1,88.8,84.1,88.8z M85,89.7c0.1,0.4,0.6,1.6-1.1,3c-1.4,1.2-1,0.4-1,0.4s0.1-0.4-0.2-1.6
		c-0.3-1.2,0.6-2.1,1.2-2.4c0,0,0.4-0.2,0.7-0.4c0,0.1,0,0.3-0.1,0.6c-0.7,0.8-1.6,1.3-1.6,1.3c0.8-0.3,1.3-0.7,1.6-1
		c0,0.2-0.1,0.4-0.2,0.6c-0.5,0.7-1.1,1.1-1.1,1.1c0.5-0.2,0.8-0.5,1-0.7c-0.2,0.6-0.4,1.2-0.8,1.9c0,0,0.4-0.6,0.8-1.4l0,0
		c0.2,0.6,0,1.1,0,1.1c0.2-0.4,0.1-1,0.1-1.3c0.1-0.2,0.2-0.5,0.3-0.7v0c0.3,0.6,0.2,1.2,0.2,1.2c0.2-0.5-0.1-1.1-0.2-1.4
		c0.1-0.3,0.2-0.6,0.2-0.8C84.9,89.3,85,89.5,85,89.7z M84.9,88.7L84.9,88.7c0-0.1,0-0.1,0-0.1C84.9,88.6,84.9,88.6,84.9,88.7z"/>
</g>
<g>
	<path class="st0" d="M59.9,104.1c0.2-0.9-0.3-2.2-1.1-3c-0.6-0.5-1.3-0.7-1.9-0.4c-0.3,0.1-0.8,0.6-1,0.9c-0.1,0.4-0.1,0.8,0.1,1
		c0.1,0.2,0.3,0.2,0.5,0.2c-0.1,0.1-0.2,0.1-0.3,0.2c-0.3,0.2-0.7,0.2-1,0.3c-0.4,0.1-0.7,0.1-0.8,0.3c-0.1,0.2,0,0.4,0.2,0.8
		c0.2,0.4,0.4,0.6,0.6,0.6c0.3,0.1,0.5-0.2,0.8-0.4c0.2-0.2,0.4-0.4,0.8-0.6c0.1,0,0.2-0.1,0.3-0.1c-0.1,0.3,0,0.6,0.2,0.9
		c0.2,0.3,0.5,0.4,0.8,0.5C59.2,105.5,59.8,104.7,59.9,104.1z M57,102.8C57,102.8,57,102.8,57,102.8l-0.1,0c-0.2,0-0.4-0.1-0.6-0.2
		c-0.2-0.2-0.3-0.5-0.2-0.8c0.1-0.3,0.6-0.7,0.9-0.8c0.6-0.2,1.2-0.1,1.7,0.4c0.7,0.6,1.1,1.8,0.9,2.6c0,0.1-0.1,0.3-0.1,0.4
		c-0.2,0.4-0.7,0.8-1.3,0.8c-0.2,0-0.5-0.1-0.6-0.4c-0.2-0.3-0.3-0.7-0.2-1v0h0c-0.1,0-0.4,0.2-0.5,0.2c-0.3,0.1-0.5,0.3-0.7,0.5
		c-0.3,0.2-0.5,0.4-0.7,0.4c-0.1,0-0.3-0.2-0.4-0.4c-0.1-0.3-0.2-0.4-0.1-0.6c0.1-0.2,0.3-0.2,0.7-0.3c0.3-0.1,0.6-0.1,0.9-0.3
		c0.1-0.1,0.3-0.2,0.5-0.3l0,0C57,102.8,57,102.8,57,102.8z"/>
	<path class="st0" d="M57,103.5L57,103.5l0,0.1l0,0h0.1c0,0,0.5-0.2,1-0.1c0,0,0.1,0,0.1-0.1c0,0,0-0.1-0.1-0.1
		C57.5,103.3,57,103.5,57,103.5z"/>
	<path class="st0" d="M56.9,103.3L56.9,103.3l0.1,0c0,0,0.3-0.4,0.7-0.5l0,0v-0.1l0,0h-0.1c-0.4,0.1-0.8,0.6-0.8,0.6l0,0
		C56.8,103.2,56.8,103.3,56.9,103.3z"/>
	<path class="st0" d="M57,103.5L57,103.5l0.1,0c0.2-0.2,0.9-0.4,0.9-0.4c0,0,0.1-0.1,0-0.1c0,0-0.1-0.1-0.1,0
		C57.9,103,57.2,103.2,57,103.5C57,103.4,57,103.4,57,103.5z"/>
</g>
<g>
	<path class="st0" d="M4.4,100c-1.1,1.2-1.8,2.5-1.3,2.9c0.4,0.4,1.7-0.3,2.8-1.4c1.1-1.2,1.8-2.5,1.4-2.9
		C6.8,98.2,5.6,98.8,4.4,100z M5.8,101.2c-1,1-2,1.6-2.3,1.3s0.2-1.4,1.2-2.4c1-1,2-1.6,2.3-1.3C7.3,99.1,6.8,100.2,5.8,101.2z"/>
	<path class="st0" d="M7.2,98.6l5.2,6L7.4,99L7.2,98.6z"/>
	<path class="st0" d="M12.3,104.5c0.2,0.4-0.2,1.3-0.9,2.1c-0.7,0.7-1.5,1.1-2,1l-5.8-4.3c0,0,5.5,4.5,5.7,4.6
		c0.3,0.3,1.3-0.2,2.2-1.1c0.9-0.9,1.3-1.9,1.1-2.2C12.4,104.5,12.4,104.5,12.3,104.5z"/>
	<path class="st0" d="M4.3,96.5l1.1,3.7c0,0,0.1,0.1,0.1,0c0,0,0.1-0.1,0-0.1c0,0-1-3.1-1.1-3.5c0.1,0,0.1,0,0.2,0c0,0,0.1,0,0.1,0
		c0.1,0,0.1-0.1,0.1-0.1c0.1,0.4,1,3.2,1,3.2s0,0,0,0c0,0,0,0,0,0.1c0,0.1,0,0.1-0.2,0.2c0,0,0,0.1,0,0.1c0,0,0.1,0,0.1,0
		c0.2-0.1,0.3-0.2,0.3-0.3c0-0.1,0-0.2-0.1-0.2c0,0-1-3.4-1-3.4c0,0,0-0.1-0.1-0.1l0,0c0,0-0.1,0-0.1,0.1c0,0.1-0.1,0.2-0.1,0.2
		c0,0,0,0-0.1,0c-0.1,0-0.2-0.1-0.2-0.1L4.3,96.5L4.3,96.5C4.3,96.4,4.3,96.5,4.3,96.5z"/>
	<path class="st0" d="M5.9,103.7c-0.2,0.6-0.1,1.7,0.4,1.9c0,0,0.1,0,0.1,0c0.2-0.1,0.7-0.8,0.7-1c0-0.1-0.1-0.1-0.1-0.1
		c-0.1,0-0.1,0-0.1,0.1c0,0,0,0,0,0.1c0,0,0,0,0,0c0,0.1-0.3,0.6-0.5,0.7c-0.1-0.1-0.1-0.1-0.2-0.3c-0.1-0.3-0.2-0.9,0-1.2
		c0.1-0.4,0.3-0.3,0.4-0.3c0.1,0,0.1,0,0.1-0.1c0-0.1,0-0.1-0.1-0.1C6.3,103.2,6.1,103.4,5.9,103.7z"/>
	<path class="st0" d="M7.3,103.2c-0.2,0.1-0.3,0.4-0.3,0.5c0,0,0,0,0,0.1s0,0.1,0.1,0.1c0,0.3,0.1,0.7,0.2,1c0,0,0,0.1,0.1,0.1
		s0.1,0,0.1,0c0.2-0.1,0.4-0.9,0.4-1.4c0-0.2-0.1-0.3-0.2-0.4C7.5,103.2,7.4,103.2,7.3,103.2z M7.4,103.4c0,0,0.1,0,0.1,0
		c0,0,0.1,0,0.1,0.1c0,0,0,0.1,0,0.1c0,0.3-0.1,0.8-0.2,1c-0.1-0.3-0.2-0.7,0-1C7.4,103.5,7.4,103.5,7.4,103.4L7.4,103.4
		C7.4,103.4,7.4,103.4,7.4,103.4z"/>
	<path class="st0" d="M7.7,102.5c-0.1,0-0.1,0.1-0.1,0.1c0.1,0.3,0.2,0.6,0.3,0.9c0.1,0.3,0.1,0.6,0.3,0.9c0,0.1,0.1,0.1,0.1,0.1
		c0.1,0,0.1-0.1,0.1-0.1c-0.1-0.3-0.2-0.6-0.2-0.9c-0.1-0.3-0.2-0.6-0.3-0.9C7.9,102.5,7.8,102.4,7.7,102.5z"/>
	<path class="st0" d="M8.4,102.6c0,0.3-0.1,0.6-0.1,0.9c0,0.1-0.1,0.3-0.1,0.4c0,0.1,0,0.1,0.1,0.1s0.1,0,0.1-0.1
		c0-0.1,0.1-0.3,0.1-0.4c0.1-0.3,0.1-0.6,0.1-0.9c0-0.1-0.1-0.1-0.1-0.1C8.5,102.5,8.4,102.5,8.4,102.6z"/>
	<path class="st0" d="M8.3,103.6c0,0.1,0,0.1,0.1,0.1c0.1,0.1,0.3,0.1,0.4,0.2c0.1,0,0.2,0.1,0.3,0.2C9,104.1,9,104,9,104
		c0-0.1,0.1-0.1,0.1-0.1c-0.1-0.1-0.2-0.1-0.3-0.2c-0.1-0.1-0.3-0.1-0.4-0.2C8.3,103.5,8.3,103.5,8.3,103.6z"/>
	<path class="st0" d="M9.3,102.2c-0.3,0.1-0.6,0.4-0.5,0.9c0.1,0.3,0.3,0.5,0.5,0.6c0.1,0,0.4-0.1,0.5-0.5c0-0.1,0-0.1-0.1-0.1
		c-0.1,0-0.1,0-0.1,0.1c-0.1,0.2-0.2,0.3-0.3,0.3c-0.1,0-0.1,0-0.2-0.1c0,0,0.1,0,0.1,0c0.3-0.3,0.4-0.7,0.3-1c0,0,0-0.1-0.1-0.1
		C9.3,102.2,9.3,102.2,9.3,102.2z M9,103.1c0-0.1,0-0.4,0.3-0.6C9.3,102.8,9.1,103,9,103.1C9,103.1,9,103.1,9,103.1z"/>
	<path class="st0" d="M5,102.9c0,0,2.3-0.6,4.1-2l0.2,0.3C9.2,101.2,7.6,102.6,5,102.9z"/>
	<path class="st0" d="M6.9,105.5c0,0,2.1-1.1,3.4-2.9l0.3,0.2C10.7,102.9,9.3,104.6,6.9,105.5z"/>
</g>
<path class="st0" d="M64.6,99c0,0.1,0.1,0.4,0.2,0.5l5.3,4.8c-0.1,0.1-0.4,0.3-0.4,0.3c-0.1,0.1-0.3,0.3-0.3,0.5s0.1,0.3,0.2,0.5
	l3.2,2.4c0.3,0.2,0.7,0.2,1,0c0,0,0,0,0-0.1s0,0,0-0.1c0,0-2.2-2.1-2.3-2.2c0.1-0.1,0.1-0.1,0.2-0.2c0.1,0.1,2.2,2.3,2.2,2.3
	c0,0,0,0,0.1,0s0,0,0.1,0l0.4-0.4c0,0,0-0.1,0-0.1c0,0-2.1-2.2-2.2-2.3c0.1-0.1,0.1-0.1,0.2-0.2c0.1,0.1,2.1,2.4,2.1,2.4
	c0,0,0,0,0.1,0c0,0,0,0,0.1,0c0.2-0.3,0.2-0.7,0-1l-2.4-3.2c-0.1-0.1-0.3-0.2-0.5-0.2c-0.2,0-0.3,0.1-0.5,0.2c0,0-0.3,0.5-0.4,0.6
	l-4.7-5.4C66.3,98.1,66,98,65.9,98c-0.2,0-0.5,0.2-0.6,0.3L65,98.6C64.7,98.6,64.6,98.8,64.6,99z M70.4,104.3
	C70.4,104.2,70.4,104.2,70.4,104.3l-0.1-0.1L65,99.2c-0.1-0.1-0.1-0.2-0.1-0.3s0-0.3,0.2-0.4l0.2-0.2c0.1-0.1,0.3-0.2,0.4-0.2
	s0.2,0.1,0.3,0.1l4.8,5.4l0.1,0.1c0,0,0,0,0.1,0c0,0,0.1,0,0.1,0l0.4-0.6c0.1-0.1,0.2-0.1,0.3-0.1l0,0c0.1,0,0.3,0.1,0.3,0.2l2.4,3
	c0.2,0.2,0.2,0.5,0,0.7c-0.1-0.1-2.1-2.4-2.1-2.4c0,0,0,0-0.1,0c0,0,0,0-0.1,0l-0.3,0.3c0,0,0,0,0,0.1c0,0,0,0,0,0.1
	c0,0,2.1,2.2,2.2,2.3c-0.1,0.1-0.2,0.2-0.3,0.3c-0.1-0.1-2.2-2.3-2.2-2.3c0,0,0,0-0.1,0c0,0,0,0-0.1,0l-0.3,0.3c0,0,0,0,0,0.1
	s0,0,0,0.1c0,0,2.2,2,2.3,2.2c-0.1,0.1-0.2,0.1-0.3,0.1c-0.1,0-0.3-0.1-0.4-0.1l-3-2.4c-0.1-0.1-0.2-0.2-0.2-0.3s0.1-0.3,0.1-0.4
	L70.4,104.3C70.4,104.3,70.4,104.3,70.4,104.3z"/>
<g>
	<path class="st0" d="M79.2,103.9c0,1.4,0.3,2.6,0.8,2.6c0.5,0,0.9-1.1,1-2.6s-0.3-2.6-0.8-2.6C79.7,101.4,79.3,102.5,79.2,103.9z
		 M80.9,103.9c0,1.2-0.4,2.2-0.8,2.2c-0.4,0-0.7-1-0.7-2.2c0-1.2,0.4-2.2,0.8-2.2C80.6,101.6,80.9,102.6,80.9,103.9z"/>
	<path class="st0" d="M78.3,103.9c0,1.1,0.3,2,0.7,2c0.4,0,0.7-0.9,0.8-2c0-1.1-0.3-2-0.7-2C78.7,102,78.4,102.8,78.3,103.9z
		 M79.6,103.9c0,0.9-0.3,1.7-0.6,1.7c-0.3,0-0.5-0.8-0.5-1.7c0-0.9,0.3-1.7,0.6-1.7S79.6,102.9,79.6,103.9z"/>
	<path class="st0" d="M80.2,101.4l5.9,0.8l-5.6-0.5L80.2,101.4z"/>
	<path class="st0" d="M86,102.2c0.4,0.1,0.7,0.9,0.7,1.9c0,0.9-0.3,1.6-0.7,1.8l-5.3,0.7c0,0,5.2-0.3,5.3-0.3c0.4,0,0.7-0.9,0.8-2
		c0-1.1-0.2-2-0.7-2C86.1,102.1,86,102.1,86,102.2z"/>
	<path class="st0" d="M79,105.9l1.2-0.3l-1.1,0L79,105.9z"/>
	<path class="st0" d="M79.1,102l1.4,0.2l-1.1,0L79.1,102z"/>
	<path class="st0" d="M80.2,105.6c0,0,0.6-0.8,0.4-2c0,0,0.1,1.4-0.8,2.1L80.2,105.6z"/>
	<path class="st0" d="M78.9,104.4c0.1,0,0.1,0.1,0.1,0.3c0,0.1-0.1,0.3-0.1,0.3c-0.1,0-0.1-0.1-0.1-0.3
		C78.8,104.6,78.9,104.4,78.9,104.4z"/>
	<path class="st0" d="M78.9,102.7c0.1,0,0.1,0.1,0.1,0.3c0,0.1-0.1,0.3-0.1,0.3c-0.1,0-0.1-0.1-0.1-0.3
		C78.8,102.9,78.9,102.7,78.9,102.7z"/>
	<path class="st0" d="M79.1,103.5c0.1,0,0.1,0.1,0.1,0.3c0,0.1-0.1,0.3-0.1,0.3c-0.1,0-0.1-0.1-0.1-0.3
		C79,103.6,79.1,103.5,79.1,103.5z"/>
	<path class="st0" d="M78.7,103.5c0.1,0,0.1,0.1,0.1,0.3c0,0.1-0.1,0.3-0.1,0.3c-0.1,0-0.1-0.1-0.1-0.3
		C78.6,103.6,78.7,103.5,78.7,103.5z"/>
	<path class="st0" d="M76.7,102.6l0.4-0.2l-0.2-0.2l-0.4,0.1L76.7,102.6z"/>
	<path class="st0" d="M76.3,101.2l0.6,0.1c0.1-0.3-0.3-0.5-0.3-0.5L76.3,101.2z"/>
	<path class="st0" d="M76.3,99.9l0.5,0.2l0-0.4C76.4,99.5,76.3,99.9,76.3,99.9z"/>
	<path class="st0" d="M75,98.9l0.3,0.2c0.2-0.3,0.2-0.3,0.2-0.3l-0.2-0.3L75,98.9z"/>
	<path class="st0" d="M77.7,99.1l0.4,0.4c0.3-0.2-0.1-0.5-0.1-0.5L77.7,99.1z"/>
	<path class="st0" d="M76.4,98.3l0.6-0.1l-0.1-0.4C76.5,97.9,76.4,98.3,76.4,98.3z"/>
</g>
<g>
	<path class="st0" d="M23.3,101.3c-0.4-0.1-0.8,0-1.1,0c-0.3-0.2-0.7-0.4-1-0.4c-1.4-0.3-2.9,0.8-3.1,2.3c-0.3,1.6,0.9,3.3,2.3,3.6
		c0.3,0.1,0.5,0,0.8,0c0.2,0.1,0.4,0.2,0.7,0.3c1.4,0.3,3.2-0.9,3.5-2.5C25.7,103,24.8,101.6,23.3,101.3z M21.9,106.9
		c-0.2-0.1-0.4-0.1-0.6-0.2c-0.2,0-0.4,0-0.7,0c-1.3-0.2-2.3-1.8-2.1-3.2c0.3-1.4,1.5-2.3,2.8-2.1c0.3,0,0.6,0.2,0.9,0.4
		c0.3-0.1,0.7-0.1,1,0c1.3,0.2,2.1,1.6,1.9,2.9C24.8,106,23.2,107.1,21.9,106.9z"/>
	<path class="st0" d="M23.8,102.6c-0.3-0.7-1.1-0.7-1.5-0.7c-0.8-0.9-1.8-0.2-1.8-0.2c0.6-0.1,1,0.2,1,0.2s-0.5-0.2-1.2,0.4
		c0,0,0.3-0.1,1,0.1c0,0-0.2,0.2-0.2,0.7l0.8-0.5c0,0,0.6,0.2,0.9,0.5c0,0,0.1-0.1-0.1-0.6C23,102.5,23.8,102.6,23.8,102.6z"/>
	<path class="st0" d="M20.2,105.9c-0.5-0.3-1.2-0.9-1.6-2.1c0,0,0.1,1.6,1.4,2.3L20.2,105.9z"/>
	<path class="st0" d="M20.5,106l-0.1,0.2c0.2,0.1,0.4,0.1,0.6,0.2l0.1-0.2C21.1,106.2,20.9,106.2,20.5,106z"/>
</g>
<g>
	<path class="st0" d="M33.7,99.5c-0.2,0-0.3,0.1-0.5,0.2c-1.9-0.2-1.8,1-1.6,1.6c-1.8,0-1.6,1.2-1.4,1.8c0-0.6,0.2-1.4,1.4-1.7
		c0,0,0,0.1,0,0.1c0,0,0-0.1,0-0.1c0.1,0,0.2,0,0.3,0c-0.1,0-0.2,0-0.3,0c0-0.6,0.3-1.4,1.5-1.5c-0.9,0.5-1,1.5-1,1.9
		c-0.4,0.1-1.7,0.4-1.9,1.9c0,0-0.3,1.4,1.3,2c0,0,1.5,0.5,2.1,0.8c0,0,1.3,1.2,2.1,0.3c0,0,0.5-0.3,0.5-1.2
		c0.8-0.1,1.1-0.7,1.1-0.7c0.8-0.9-0.6-2.1-0.6-2.1c-0.4-0.6-1.1-2-1.1-2C35,99,33.7,99.5,33.7,99.5z M35.7,101c0,0,0.7,1.3,1,1.8
		c0,0,1.3,1.1,0.6,1.9c0,0-0.2,0.4-0.8,0.6c0.1-0.2,0.2-0.5,0-0.9c0.1,0.5-0.2,0.8-0.2,0.8c-0.4,0.4-0.8,0.4-1.1,0.3
		c0.2,0.1,0.7,0.3,1.1-0.1c-0.1,0.6-0.4,0.9-0.4,0.9c-0.7,0.8-2-0.3-2-0.3c-0.6-0.3-2-0.8-2-0.8c-1.6-0.6-1.3-1.8-1.3-1.8
		c0.1-1.2,1.1-1.5,1.6-1.6c-0.3,0.4-0.2,1-0.2,1.3c0.1-0.7,0.4-1.7,1.9-1.7c-0.9-0.1-1.3,0.1-1.6,0.3c0-0.4,0.2-1.5,1.4-1.8
		C33.7,99.9,34.9,99.5,35.7,101z"/>
	<path class="st0" d="M34,101.4l0.1-0.1l0,0L34,101.4z"/>
	<path class="st0" d="M32,101.4l0.1-0.1l0,0L32,101.4z"/>
	<path class="st0" d="M30.8,100c0,0-0.1,0.7,1.3,1.7c0,0-1-1.1-0.8-2.1C31.3,99.5,30.8,99.4,30.8,100z"/>
</g>
<g>
	<path class="st0" d="M48.7,102.6c0,0-2.5-0.5-3.9,0.1c0,0-0.4,0.3,0,1.2c0.3,0.9,0.3,1.8,0.5,2.2c0.1,0.4,0.5,1.6,0.5,1.6
		s0.1,1.1,0.7,0.1c0,0,0.7-1.2,1.2-2.2c0.6-1,1.2-1.6,1.5-2.4C49.2,103.2,49.4,102.8,48.7,102.6z M48.9,103.4
		c-0.3,0.7-0.8,1.2-1.3,2.1c-0.5,0.9-1.1,1.9-1.1,1.9c-0.5,0.9-0.6-0.1-0.6-0.1s-0.3-1-0.4-1.4c-0.1-0.4-0.1-1.1-0.4-1.9
		c-0.3-0.8,0.1-1,0.1-1c1.2-0.5,3.3-0.1,3.3-0.1C49.1,103,48.9,103.4,48.9,103.4z"/>
	<path class="st0" d="M44.6,102.4c0,0-1.6-2.6-1.1-2.9c0,0,2.7-0.8,4.7,0.6l1,2.8c0,0-0.4-0.3-1.1-2c0,0,0-0.6-0.4-0.7
		c0,0-1.6-1-3.6-0.3c0,0-0.5,0.3,0.1,0.9C44.1,100.7,45,103,44.6,102.4z"/>
	<path class="st0" d="M45.8,107.9c0,0-1.4-2.5-1.8-3c0,0-0.8-3.7-0.7-5.1c0,0,0.1-0.2,0.4,1.6s0.5,3.1,0.5,3.1S45.6,107,45.8,107.9z
		"/>
</g>
<g>
	<path class="st0" d="M91.5,103.2c-0.8,0.4-1.7,1.6-1.2,2.9c0.5,1.3,0.4,1.9,0.4,1.9s-0.4,0.9,1.1-0.7c1.8-1.8,1.1-3.1,0.9-3.6
		c-0.3-0.8-0.2-1.3-0.2-1.3C92.2,102.8,91.5,103.2,91.5,103.2z M92.5,104c0.2,0.4,0.7,1.6-0.8,3.1c-1.3,1.3-0.9,0.6-0.9,0.6
		s0.1-0.4-0.4-1.6c-0.4-1.2,0.3-2.2,1-2.5c0,0,0.4-0.2,0.7-0.4c0,0.1,0,0.3,0,0.6c-0.7,0.9-1.5,1.4-1.5,1.4c0.8-0.4,1.2-0.9,1.4-1.2
		c0,0.2-0.1,0.4-0.1,0.7c-0.4,0.7-1,1.2-1,1.2c0.4-0.3,0.8-0.6,1-0.8c-0.1,0.6-0.3,1.3-0.6,2c0,0,0.3-0.6,0.7-1.4l0,0
		c0.2,0.6,0.1,1.1,0.1,1.1c0.2-0.4,0-1.1,0-1.3c0.1-0.2,0.2-0.5,0.2-0.8v0c0.4,0.5,0.4,1.1,0.4,1.1c0.1-0.5-0.2-1.1-0.3-1.4
		c0.1-0.3,0.1-0.6,0.1-0.9C92.4,103.6,92.4,103.9,92.5,104z M92.3,103L92.3,103c0-0.1,0-0.1,0-0.1C92.3,102.9,92.3,103,92.3,103z"/>
	<path class="st0" d="M94,102.3c0.6,0.6,2,1.2,3.1,0.4c1.2-0.9,1.7-0.9,1.7-0.9s1,0.2-0.9-0.9c-2.2-1.2-3.3-0.3-3.7,0
		c-0.7,0.5-1.2,0.6-1.2,0.6C93.4,101.7,94,102.3,94,102.3z M94.4,101.1c0.4-0.3,1.3-1.1,3.2-0.1c1.6,0.9,0.8,0.7,0.8,0.7
		s-0.4,0-1.4,0.8c-1,0.7-2.2,0.2-2.7-0.3c0,0-0.3-0.3-0.6-0.5c0.1,0,0.3-0.1,0.6-0.1c1,0.4,1.8,1.1,1.8,1.1
		c-0.6-0.6-1.2-0.9-1.5-1.1c0.2,0,0.4,0,0.7-0.1c0.8,0.2,1.4,0.7,1.4,0.7c-0.4-0.4-0.8-0.6-1-0.7c0.6,0,1.3,0,2.1,0.1
		c0,0-0.7-0.2-1.6-0.2l0,0c0.5-0.3,1-0.4,1-0.4c-0.5,0-1,0.2-1.3,0.4c-0.2,0-0.5,0-0.8,0h0c0.4-0.5,1-0.7,1-0.7
		c-0.6,0-1,0.4-1.3,0.7c-0.3,0-0.6,0-0.9,0.1C94.1,101.3,94.3,101.2,94.4,101.1z M93.5,101.6L93.5,101.6c0,0.1-0.1,0-0.1,0
		C93.4,101.6,93.5,101.6,93.5,101.6z"/>
</g>
</svg>
