<?xml version="1.0" encoding="utf-8"?>
<!-- Generator: Adobe Illustrator 24.1.2, SVG Export Plug-In . SVG Version: 6.00 Build 0)  -->
<svg version="1.1" id="Layer_1" xmlns="http://www.w3.org/2000/svg" xmlns:xlink="http://www.w3.org/1999/xlink" x="0px" y="0px"
	 viewBox="0 0 288 473" style="enable-background:new 0 0 288 473;" xml:space="preserve">
<style type="text/css">
	.st0{clip-path:url(#SVGID_2_);}
	.st1{fill:#FFD348;}
</style>
<g>
	<g>
		<defs>
			<rect id="SVGID_1_" y="-11" width="288" height="484"/>
		</defs>
		<clipPath id="SVGID_2_">
			<use xlink:href="#SVGID_1_"  style="overflow:visible;"/>
		</clipPath>
		<g class="st0">
			<path class="st1" d="M120.6,62.8c-4.4,0.7-8.6,3-8.3,5.6c0.4,2.6,4.3,4.1,8.7,3.6c4.4-0.7,7.8-3.2,7.4-5.8
				C128.1,63.5,125.1,62.1,120.6,62.8z M120.9,70.6c-3.6,0.5-6.7-0.7-6.9-2.6c-0.3-2,2.3-3.9,5.9-4.4c3.6-0.5,6.7,0.7,6.9,2.6
				C127.1,68.1,124.4,70.1,120.9,70.6z"/>
			<path class="st1" d="M241.4,461.5c-4.4,0.7-8.6,3-8.3,5.6c0.4,2.6,4.3,4.1,8.7,3.6c4.4-0.7,7.8-3.2,7.4-5.8
				C248.9,462.1,245.8,460.8,241.4,461.5z M241.6,469.2c-3.6,0.5-6.7-0.7-6.9-2.6c-0.3-2,2.3-3.9,5.9-4.4c3.6-0.5,6.7,0.7,6.9,2.6
				C247.8,466.7,245.2,468.7,241.6,469.2z"/>
			<path class="st1" d="M95.2,115.4c-2.6,0.4-5.2,1.8-5,3.4c0.2,1.5,2.5,2.5,5.3,2.2c2.6-0.4,4.7-2,4.4-3.5
				C99.8,115.8,98,115,95.2,115.4z M95.4,120.1c-2.2,0.3-4-0.4-4.1-1.6c-0.2-1.1,1.4-2.3,3.6-2.6c2.2-0.3,4,0.4,4.1,1.6
				C99.2,118.6,97.6,119.8,95.4,120.1z"/>
			<path class="st1" d="M14.3,75.5l0.6-0.2c0.2-0.1,0.5-0.3,0.6-0.6c0.2-0.3-0.1,0.3-0.2,0.1c-0.4-1.4-0.9-2.7-1.5-3.9
				c-0.5-1-0.9-2.1-1.2-3.1c-0.1-0.2-0.2-0.3-0.4-0.4c-0.2,0-0.4,0.1-0.6,0.2c-1.5,1.3-2.7,1.6-4.1,1.8C6.6,69.5,6,68.7,5,69.2
				c-0.1,0.1-0.3,0.3-0.4,0.6c0,0.1-0.1,0.1-0.1,0.2c-0.1,0.2-0.1,0.5-0.1,0.7l0.1,0.3c0,0,0.2,0.6,0.2,0.8c0,0.1,0,0.1,0,0.2
				c0,0,0.3,0.6,0.3,0.7c0.7,1.6,1.5,3.8,2.8,4.1C9.3,77,12.3,76.1,14.3,75.5z M8.9,75.4H8.3c-0.8-0.2-1.5-2.9-2-4.1
				c0,0-0.1-0.2-0.2-0.4c0,0-0.3,0.5-0.3,0.4c0.5-0.1,1-0.2,1.5-0.3c1.3-0.2,2.6-0.5,4.2-1.7c0.3,0.9,0.7,1.8,1,2.6
				c0.4,0.8,0.8,1.8,1,2.7C11.8,75,10,75.7,8.9,75.4z"/>
			<path class="st1" d="M220.4,24.1l0.6-0.2c0.2-0.1,0.5-0.3,0.6-0.6c0.2-0.3-0.1,0.3-0.2,0.1c-0.4-1.4-0.9-2.7-1.5-3.9
				c-0.5-1-0.8-2.1-1.2-3.1c-0.1-0.2-0.2-0.3-0.4-0.4c-0.2,0-0.4,0.1-0.6,0.2c-1.5,1.3-2.7,1.6-4.1,1.8c-0.8,0.1-1.4-0.7-2.4-0.2
				c-0.2,0.1-0.4,0.3-0.6,0.6c0,0.1-0.1,0.1-0.1,0.2c-0.1,0.2-0.1,0.5-0.1,0.7l0.1,0.3c0,0,0.2,0.6,0.2,0.8c0,0.1,0,0.1,0,0.2
				l0.3,0.6c0.7,1.6,1.5,3.8,2.8,4.1C215.5,25.6,218.5,24.7,220.4,24.1z M215.1,23.9l-0.7,0.1c-0.8-0.2-1.5-2.9-2-4.1
				c0,0-0.1-0.2-0.2-0.4c0,0-0.3,0.5-0.3,0.4c0.5-0.1,1-0.2,1.5-0.3c1.3-0.2,2.6-0.5,4.2-1.7c0.3,0.9,0.7,1.8,1,2.6
				c0.4,0.8,0.8,1.8,1,2.7C218,23.6,216.2,24.3,215.1,23.9z"/>
			<path class="st1" d="M286.8,236.9l0.5-0.2c0.2-0.1,0.5-0.3,0.6-0.6c0.2-0.3-0.1,0.3-0.2,0.1c-0.4-1.4-0.9-2.7-1.5-3.9
				c-0.5-1-0.8-2.1-1.2-3.1c-0.1-0.2-0.2-0.3-0.4-0.4c-0.2,0-0.4,0.1-0.6,0.2c-1.5,1.3-2.7,1.6-4.1,1.8c-0.8,0.1-1.4-0.7-2.4-0.2
				c-0.2,0.1-0.4,0.3-0.6,0.6c0,0.1-0.1,0.1-0.1,0.2c-0.1,0.2-0.1,0.5-0.1,0.7l0.1,0.3c0,0,0.2,0.6,0.2,0.8c0,0.1,0,0.1,0,0.2
				c0,0,0.3,0.6,0.3,0.7c0.7,1.6,1.5,3.8,2.8,4.1C281.8,238.3,284.8,237.4,286.8,236.9z M281.3,236.7l-0.7,0.1
				c-0.8-0.2-1.5-2.9-2-4.1c0,0-0.1-0.2-0.2-0.4c0,0-0.3,0.5-0.3,0.4c0.5-0.1,1-0.2,1.5-0.3c1.3-0.2,2.6-0.5,4.2-1.7
				c0.3,0.9,0.7,1.8,1,2.6s0.8,1.8,1,2.7C284.3,236.4,282.5,237,281.3,236.7z"/>
			<path class="st1" d="M185.8,106.4l0.5-0.2c0.2-0.1,0.5-0.3,0.6-0.6c0.2-0.3-0.1,0.3-0.2,0.1c-0.4-1.4-0.9-2.7-1.5-3.9
				c-0.5-1-0.8-2.1-1.2-3.1c-0.1-0.2-0.2-0.3-0.4-0.4c-0.2,0-0.4,0.1-0.6,0.2c-1.5,1.3-2.7,1.6-4.1,1.8c-0.8,0.1-1.4-0.7-2.4-0.2
				c-0.2,0.1-0.4,0.3-0.6,0.6c0,0.1-0.1,0.1-0.1,0.2c-0.1,0.2-0.1,0.5-0.1,0.7l0.1,0.3c0,0,0.2,0.6,0.2,0.8c0,0.1,0,0.1,0,0.2
				c0,0,0.3,0.6,0.3,0.7c0.7,1.6,1.5,3.8,2.8,4.1C180.8,107.9,183.8,106.9,185.8,106.4z M180.4,106.2l-0.7,0.1
				c-0.8-0.2-1.5-2.9-2-4.1c0,0-0.1-0.2-0.2-0.4c0,0-0.3,0.5-0.3,0.4c0.5-0.1,1-0.2,1.5-0.3c1.3-0.2,2.6-0.5,4.2-1.7
				c0.3,0.9,0.7,1.8,1,2.6c0.4,0.8,0.8,1.8,1,2.7C183.4,105.9,181.6,106.5,180.4,106.2z"/>
			<path class="st1" d="M136.5,242.8l0.6-0.2c0.2-0.1,0.5-0.3,0.6-0.6c0.2-0.3-0.1,0.3-0.2,0.1c-0.4-1.4-0.9-2.7-1.5-3.9
				c-0.5-1-0.9-2.1-1.2-3.1c-0.1-0.2-0.2-0.3-0.4-0.4c-0.2,0-0.4,0.1-0.6,0.2c-1.5,1.3-2.7,1.6-4.1,1.8c-0.8,0.1-1.4-0.7-2.4-0.2
				c-0.2,0.1-0.4,0.3-0.6,0.6c0,0.1-0.1,0.1-0.1,0.2c-0.1,0.2-0.1,0.5-0.1,0.7l0.1,0.3c0,0,0.2,0.6,0.2,0.8c0,0.1,0,0.1,0,0.2
				c0,0,0.3,0.6,0.3,0.7c0.7,1.6,1.5,3.8,2.8,4.1C131.6,244.3,134.6,243.3,136.5,242.8z M131.1,242.6l-0.7,0.1
				c-0.8-0.2-1.5-2.9-2-4.1c0,0-0.1-0.2-0.2-0.4c0,0-0.3,0.5-0.3,0.4c0.5-0.1,1-0.2,1.5-0.3c1.3-0.2,2.6-0.5,4.2-1.7
				c0.3,0.9,0.7,1.8,1,2.6c0.4,0.8,0.8,1.8,1,2.7C134.1,242.3,132.2,242.9,131.1,242.6z"/>
			<path class="st1" d="M87.4,469.7l0.6-0.2c0.2-0.1,0.5-0.3,0.6-0.6c0.2-0.3-0.1,0.3-0.2,0.1c-0.4-1.4-0.9-2.7-1.5-3.9
				c-0.5-1-0.9-2.1-1.2-3.1c-0.1-0.2-0.2-0.3-0.4-0.4c-0.2,0-0.4,0.1-0.6,0.2c-1.5,1.3-2.7,1.6-4.1,1.8c-0.8,0.1-1.4-0.7-2.4-0.2
				c-0.2,0.1-0.4,0.3-0.6,0.6c0,0.1-0.1,0.1-0.1,0.2c-0.1,0.2-0.1,0.5-0.1,0.7l0.1,0.3c0,0,0.2,0.6,0.2,0.8c0,0.1,0,0.1,0,0.2
				c0,0,0.3,0.6,0.3,0.7c0.7,1.6,1.5,3.8,2.8,4.1C82.4,471.1,85.4,470.3,87.4,469.7z M82,469.5l-0.7,0.1c-0.8-0.2-1.5-2.9-2-4.1
				c0,0-0.1-0.2-0.2-0.4c0,0-0.3,0.5-0.3,0.4c0.5-0.1,1-0.2,1.5-0.3c1.3-0.2,2.6-0.5,4.2-1.7c0.3,0.9,0.7,1.8,1,2.6
				c0.4,0.8,0.8,1.8,1,2.7C84.9,469.2,83.1,469.8,82,469.5z"/>
			<path class="st1" d="M166.8,73l0.2-0.4c0.1-0.2,0.1-0.4,0.1-0.6c0-0.2,0.1,0.2-0.1,0.1c-0.8-0.3-1.8-0.4-2.6-0.6
				c-0.8-0.1-1.4-0.2-2.1-0.4c-0.1,0-0.3,0-0.4,0.1c-0.1,0.1-0.2,0.3-0.2,0.4c-0.2,1.4-0.8,2.3-1.5,3.2c-0.4,0.6-1,0.7-1.4,1.4
				c-0.1,0.2-0.1,0.4-0.1,0.6V77c0.1,0.1,0.1,0.2,0.3,0.3l0.2,0.1c0,0,0.4,0.1,0.5,0.2c0,0,0,0.1,0.1,0.1l0.4,0.1
				c1,0.2,2.5,0.4,3.4-0.3C164.7,76.7,165.9,74.5,166.8,73z M163.7,76.3l-0.4,0.5c-0.6,0.5-2.2-0.1-3-0.3c0,0-0.1,0-0.3,0
				c0,0,0.1,0.3,0,0.3c0.2-0.4,0.5-0.8,0.7-1c0.7-0.8,1.2-1.9,1.6-3.3c0.6,0.1,1.1,0.2,1.8,0.3c0.6,0.1,1.2,0.2,1.8,0.3
				C165.2,74.3,164.4,75.8,163.7,76.3z"/>
			<path class="st1" d="M104.5,223l0.2-0.4c0.1-0.2,0.1-0.4,0.1-0.6c0-0.2,0.1,0.2-0.1,0.1c-0.8-0.3-1.8-0.4-2.6-0.6
				c-0.8-0.1-1.4-0.2-2.1-0.4c-0.1,0-0.3,0-0.4,0.1c-0.1,0.1-0.2,0.3-0.2,0.5c-0.2,1.4-0.8,2.3-1.5,3.2c-0.4,0.6-1,0.7-1.4,1.4
				c-0.1,0.2-0.1,0.4-0.1,0.6v0.1c0.1,0.1,0.1,0.2,0.3,0.3l0.2,0.1c0,0,0.4,0.1,0.5,0.2c0,0,0,0.1,0.1,0.1l0.4,0.1
				c1,0.2,2.5,0.4,3.4-0.3C102.5,226.6,103.7,224.5,104.5,223z M101.4,226.4l-0.4,0.5c-0.6,0.5-2.2-0.1-3-0.3c0,0-0.1,0-0.3,0
				c0,0,0.1,0.3,0,0.3c0.2-0.4,0.5-0.8,0.7-1c0.7-0.8,1.2-1.9,1.6-3.3c0.6,0.1,1.1,0.2,1.8,0.3c0.6,0.1,1.2,0.2,1.8,0.3
				C102.9,224.4,102.2,225.7,101.4,226.4z"/>
			<path class="st1" d="M285.5,144.1c-1.4-6.4-8.2-13-15.4-15c-5.2-1.5-9.8-0.5-13,2.8c-1.8,1.8-3.7,5.8-3.5,8.5
				c0.2,2.8,1.7,5.1,3.9,6c1.4,0.6,2.6,0.2,3.8-0.2c-0.4,0.8-0.8,1.4-1.2,2c-1.5,2-3.5,3.4-5.3,4.6c-2.2,1.5-3.8,2.7-3.8,4.4
				c0,1.3,1.1,2.8,3.5,4.7c2.4,1.9,4.2,2.5,5.6,2.2c1.8-0.5,2.7-2.5,3.8-5.1c0.8-1.8,1.7-3.8,3-5.5c0.4-0.6,0.9-1.1,1.5-1.7
				c0.5,2.1,1.7,3.9,3.6,5c2,1.1,4.2,1.3,6.4,0.5C284.7,154.9,286.5,148.8,285.5,144.1z M263.8,144.8c-0.1-0.1-0.2-0.1-0.3-0.1
				l-0.4,0.1c-1.2,0.4-2.6,0.8-3.9,0.4c-1.6-0.7-3.6-2-3.7-4.3c-0.1-2.3,1.6-5.9,3.2-7.5c3-3,7.1-3.9,11.7-2.5
				c6.3,1.9,11.9,7.5,13,13.1c0.2,0.9,0.3,1.9,0.3,2.8c-0.1,3.5-1.6,7-5.8,8.7c-1.6,0.7-3.3,0.5-5-0.5c-2.1-1.2-3.5-3.4-3.8-5.5
				c0-0.1-0.1-0.2-0.2-0.2s-0.2,0-0.3,0.1c-0.7,0.6-2,2.3-2.5,2.9c-1.3,1.7-2.2,3.6-3,5.2c-1.1,2.3-2,4.1-3.5,4.5
				c-1,0.3-2.3-0.3-4-1.5c-1.6-1.2-2.3-2.3-2.3-3.2c0-1.3,1.5-2.4,3.4-3.9c1.6-1.2,3.4-2.6,4.8-4.5c0.8-0.9,1.5-2.1,2.2-3.4l0.1-0.1
				C263.9,144.9,263.8,144.9,263.8,144.8z"/>
			<path class="st1" d="M266.1,149.3l-0.1,0.4l0.2,0.3l0.4,0.1l0.3-0.2c0.1-0.1,2.4-2.8,5.6-3.7c0.3-0.1,0.4-0.4,0.4-0.6
				c-0.1-0.3-0.4-0.4-0.6-0.4C268.8,146.3,266.2,149.2,266.1,149.3z"/>
			<path class="st1" d="M264.4,148l0.4-0.1l0.2-0.3c0-0.1,0.7-3.2,2.7-5.2l0.2-0.4l-0.1-0.4l-0.4-0.2l-0.4,0.1c-2.3,2.2-3,5.5-3,5.6
				v0.1C264,147.9,264.1,148,264.4,148z"/>
			<path class="st1" d="M265.7,148.7h0.4l0.3-0.3c0.8-1.7,4.5-5.2,4.5-5.2c0.2-0.2,0.2-0.5,0-0.7c-0.2-0.2-0.5-0.2-0.7,0
				c-0.4,0.4-3.8,3.7-4.7,5.5C265.3,148.3,265.4,148.6,265.7,148.7z"/>
			<path class="st1" d="M82.5,227.5c1.4-6.4-1.9-15.2-7.5-20.1c-4-3.6-8.6-4.6-13-3c-2.3,0.8-5.7,3.8-6.8,6.3c-1,2.6-0.7,5.4,1,7.1
				c1,1.1,2.3,1.3,3.5,1.4c-0.7,0.5-1.3,0.9-2,1.3c-2.2,1.1-4.6,1.6-6.7,2c-2.6,0.5-4.6,0.8-5.3,2.3c-0.6,1.2-0.2,3,1.2,5.7
				c1.4,2.7,2.7,4.1,4.2,4.3c1.8,0.4,3.6-1.2,5.5-2.9c1.5-1.3,3.1-2.7,5.1-3.8c0.7-0.3,1.3-0.6,2.1-0.8c-0.5,2.1-0.1,4.2,1.1,6
				c1.3,1.9,3.3,3,5.5,3.2C77.3,237,81.5,232.2,82.5,227.5z M62.6,218.8c0-0.1-0.1-0.2-0.2-0.2H62c-1.2-0.2-2.8-0.4-3.7-1.3
				c-1.2-1.3-2.4-3.3-1.5-5.5c0.9-2.2,3.9-4.7,6-5.4c3.9-1.5,8.1-0.6,11.6,2.6c4.9,4.3,7.6,11.8,6.3,17.4c-0.2,0.9-0.6,1.8-0.9,2.7
				c-1.5,3.1-4.4,5.6-9,5.4c-1.7-0.1-3.2-1-4.2-2.5c-1.3-2-1.8-4.5-1.1-6.7c0-0.1,0-0.2-0.1-0.3c-0.1-0.1-0.2-0.1-0.3-0.1
				c-0.8,0.3-2.7,1.2-3.5,1.6c-1.9,1-3.5,2.3-4.9,3.4c-2,1.6-3.6,2.9-5,2.6c-1-0.2-2-1.2-3-3.1c-0.9-1.8-1.2-3-0.8-3.8
				c0.6-1.2,2.3-1.6,4.7-2.2c2-0.5,4.1-0.9,6.3-2.1c1-0.6,2.3-1.3,3.4-2.2l0.1-0.1C62.6,219.1,62.6,218.9,62.6,218.8z"/>
			<path class="st1" d="M62.8,223.9l-0.3,0.3v0.4l0.3,0.3h0.4c0.1-0.1,3.5-1.5,6.7-0.9c0.3,0,0.5-0.1,0.6-0.4c0-0.3-0.1-0.5-0.4-0.6
				C66.5,222.3,63,223.8,62.8,223.9z"/>
			<path class="st1" d="M61.7,222.1l0.4,0.1l0.3-0.2c0.1-0.1,2-2.6,4.7-3.6l0.3-0.3v-0.4l-0.3-0.3h-0.4c-3,1-5.1,3.8-5.1,3.8v0.1
				C61.5,221.7,61.6,221.9,61.7,222.1z"/>
			<path class="st1" d="M62.6,223.3l0.4,0.2l0.4-0.1c1.4-1.2,6.2-2.8,6.3-2.8c0.3-0.1,0.4-0.4,0.3-0.6c-0.1-0.3-0.4-0.4-0.6-0.3
				c-0.6,0.2-5.1,1.7-6.6,3C62.5,222.7,62.5,223.1,62.6,223.3z"/>
			<path class="st1" d="M192.8,126.4c0.8,6.5,6.8,13.7,13.7,16.5c5,2.1,9.7,1.5,13.2-1.4c2-1.6,4.2-5.4,4.4-8.1
				c0.1-2.8-1.1-5.3-3.3-6.4c-1.4-0.8-2.6-0.5-3.8-0.3c0.5-0.7,0.9-1.3,1.4-1.9c1.7-1.8,3.8-3,5.7-4c2.3-1.3,4.1-2.3,4.3-3.9
				c0.2-1.3-0.8-2.9-3-5c-2.3-2.1-3.9-3-5.3-2.7c-1.8,0.3-3,2.3-4.3,4.6c-0.9,1.7-2.1,3.6-3.6,5.3c-0.5,0.5-1,1-1.7,1.5
				c-0.2-2.1-1.3-4-3-5.4c-1.9-1.4-4-1.8-6.3-1.2C194.6,115.8,192.2,121.7,192.8,126.4z M214.4,128.1c0.1,0.1,0.2,0.1,0.3,0.1
				l0.4-0.1c1.2-0.3,2.7-0.6,3.9,0c1.6,0.8,3.4,2.3,3.2,4.7c-0.2,2.3-2.3,5.7-3.9,7.1c-3.3,2.6-7.5,3.1-11.9,1.3
				c-6.1-2.5-11.1-8.7-11.6-14.4c-0.1-0.9-0.1-1.9,0-2.8c0.5-3.4,2.3-6.8,6.8-8c1.6-0.5,3.4-0.1,4.9,1c1.9,1.4,3.1,3.8,3.2,5.9
				c0,0.1,0.1,0.2,0.2,0.2c0.1,0,0.2,0,0.3,0c0.7-0.5,2.2-2,2.8-2.6c1.5-1.6,2.5-3.3,3.5-4.8c1.3-2.2,2.4-3.8,3.8-4
				c1-0.1,2.3,0.5,3.8,2c1.4,1.4,2.1,2.4,2,3.4c-0.1,1.3-1.7,2.3-3.8,3.6c-1.7,1-3.7,2.3-5.3,3.9c-0.8,0.8-1.7,1.9-2.5,3.1l-0.1,0.1
				C214.3,127.9,214.3,128,214.4,128.1z"/>
			<path class="st1" d="M212.6,123.4l0.2-0.4l-0.1-0.4l-0.4-0.2l-0.4,0.1c-0.1,0.1-2.7,2.5-6,3.1c-0.3,0-0.5,0.3-0.4,0.6
				c0,0.3,0.3,0.5,0.6,0.4C209.6,126.1,212.5,123.4,212.6,123.4z"/>
			<path class="st1" d="M214.2,124.7h-0.4l-0.3,0.3c0,0.1-1,3.1-3.3,4.9l-0.2,0.3l0.1,0.4l0.3,0.2l0.4-0.1c2.5-2,3.6-5.2,3.6-5.4
				v-0.1C214.5,125,214.4,124.8,214.2,124.7z"/>
			<path class="st1" d="M212.9,123.9l-0.4-0.1l-0.3,0.2c-0.9,1.6-5,4.7-5.1,4.7c-0.2,0.2-0.3,0.5-0.1,0.7c0.2,0.2,0.5,0.3,0.7,0.1
				c0.5-0.4,4.2-3.3,5.3-5C213.3,124.4,213.2,124,212.9,123.9z"/>
			<path class="st1" d="M204.3,461.2c1.4-6.4-1.9-15.2-7.5-20.1c-4-3.6-8.6-4.6-13-3c-2.3,0.8-5.7,3.8-6.8,6.3c-1,2.6-0.7,5.4,1,7.1
				c1,1.1,2.3,1.3,3.5,1.4c-0.7,0.5-1.3,0.9-2,1.3c-2.2,1.1-4.6,1.6-6.7,2c-2.6,0.5-4.6,0.8-5.3,2.3c-0.6,1.2-0.2,3,1.2,5.7
				c1.4,2.7,2.7,4.1,4.2,4.3c1.8,0.4,3.6-1.2,5.5-2.9c1.5-1.3,3.1-2.7,5.1-3.8c0.7-0.3,1.3-0.6,2.1-0.8c-0.5,2.1-0.1,4.2,1.1,6
				c1.3,1.9,3.3,3,5.5,3.2C199,470.7,203.3,465.9,204.3,461.2z M184.4,452.5c0-0.1-0.1-0.2-0.2-0.2h-0.4c-1.2-0.2-2.8-0.4-3.7-1.3
				c-1.2-1.3-2.4-3.3-1.5-5.5c0.9-2.2,3.9-4.7,6-5.4c3.9-1.5,8.1-0.6,11.6,2.6c4.9,4.3,7.6,11.8,6.3,17.4c-0.2,0.9-0.6,1.8-0.9,2.7
				c-1.5,3.1-4.4,5.6-9,5.4c-1.7-0.1-3.2-1-4.2-2.5c-1.3-2-1.8-4.5-1.1-6.7c0-0.1,0-0.2-0.1-0.3c-0.1-0.1-0.2-0.1-0.3-0.1
				c-0.8,0.3-2.7,1.2-3.5,1.6c-1.9,1-3.5,2.3-4.9,3.4c-2,1.6-3.6,2.9-5,2.6c-1-0.2-2-1.2-3-3.1c-0.9-1.8-1.2-3-0.8-3.9
				c0.6-1.2,2.3-1.6,4.7-2.2c2-0.5,4.1-0.9,6.3-2.1c1-0.6,2.3-1.3,3.4-2.2l0.1-0.1C184.4,452.8,184.4,452.7,184.4,452.5z"/>
			<path class="st1" d="M184.6,457.6l-0.3,0.3v0.4l0.3,0.3h0.4c0.1-0.1,3.5-1.5,6.7-0.9c0.3,0,0.5-0.1,0.6-0.4
				c0-0.3-0.1-0.5-0.4-0.6C188.2,456,184.8,457.6,184.6,457.6z"/>
			<path class="st1" d="M183.5,455.8l0.4,0.1l0.3-0.2c0.1-0.1,2-2.6,4.7-3.6l0.3-0.3v-0.4l-0.3-0.3h-0.4c-3,1-5.1,3.8-5.1,3.8v0.1
				C183.3,455.4,183.3,455.6,183.5,455.8z"/>
			<path class="st1" d="M184.4,456.9l0.3,0.2l0.4-0.1c1.4-1.2,6.2-2.8,6.3-2.8c0.3-0.1,0.4-0.4,0.3-0.6c-0.1-0.3-0.4-0.4-0.6-0.3
				c-0.5,0.2-5.1,1.7-6.6,3C184.3,456.5,184.2,456.8,184.4,456.9z"/>
			<path class="st1" d="M108,24.4c1.4-6.4-1.9-15.2-7.5-20.1c-4-3.6-8.6-4.6-13-3c-2.3,0.8-5.7,3.8-6.8,6.3c-1,2.6-0.7,5.4,1,7.1
				c1,1.1,2.3,1.3,3.5,1.4c-0.7,0.5-1.3,0.9-2,1.3c-2.2,1.1-4.6,1.6-6.7,2c-2.6,0.5-4.6,0.8-5.3,2.3c-0.6,1.2-0.2,3,1.2,5.7
				c1.4,2.7,2.7,4.1,4.1,4.3c1.8,0.4,3.6-1.2,5.5-2.9c1.5-1.3,3.1-2.7,5.1-3.8c0.7-0.3,1.3-0.6,2.1-0.8c-0.5,2.1-0.1,4.2,1.1,6
				c1.3,1.9,3.3,3,5.5,3.2C102.8,33.9,107,29,108,24.4z M88.1,15.8c0-0.1-0.1-0.2-0.2-0.2h-0.4c-1.2-0.2-2.8-0.4-3.7-1.3
				c-1.2-1.3-2.4-3.3-1.5-5.5c0.9-2.2,3.9-4.7,6-5.4c3.9-1.5,8.1-0.6,11.6,2.6c4.9,4.3,7.6,11.8,6.3,17.4c-0.2,0.9-0.6,1.8-0.9,2.7
				c-1.5,3.1-4.4,5.6-9,5.4c-1.7-0.1-3.2-1-4.2-2.5c-1.3-2-1.8-4.5-1.1-6.7c0-0.1,0-0.2-0.1-0.3c-0.1-0.1-0.2-0.1-0.3-0.1
				c-0.8,0.3-2.7,1.2-3.5,1.6c-1.9,1-3.5,2.3-4.9,3.5c-2,1.6-3.6,2.9-5,2.6c-1-0.2-2-1.2-3-3.1c-0.9-1.8-1.2-3-0.8-3.8
				c0.6-1.2,2.3-1.6,4.7-2.2c2-0.5,4.1-0.9,6.3-2.1c1-0.6,2.3-1.3,3.4-2.2l0.1-0.1C88.1,15.9,88.1,15.9,88.1,15.8z"/>
			<path class="st1" d="M88.3,20.8L88,21.1v0.4l0.3,0.3h0.4c0.1-0.1,3.5-1.5,6.7-0.9c0.3,0,0.5-0.1,0.6-0.4c0-0.3-0.1-0.5-0.4-0.6
				C92,19.1,88.5,20.7,88.3,20.8z"/>
			<path class="st1" d="M87.2,19l0.4,0.1l0.3-0.2c0.1-0.1,2-2.6,4.7-3.6l0.3-0.3v-0.4l-0.3-0.3h-0.4c-3,1-5.1,3.8-5.1,3.8v0.1
				C87,18.6,87,18.9,87.2,19z"/>
			<path class="st1" d="M88.1,20.2l0.3,0.2l0.4-0.1c1.4-1.2,6.2-2.8,6.3-2.8c0.3-0.1,0.4-0.4,0.3-0.6c-0.1-0.3-0.4-0.4-0.6-0.3
				c-0.5,0.2-5.1,1.7-6.6,3C87.9,19.6,87.9,19.9,88.1,20.2z"/>
			<path class="st1" d="M132.8,382.3c-7.8,2.1-15.8,10.8-17.9,19.8c-1.6,6.5-0.1,12.2,4.1,16.1c2.3,2.2,7.4,4.2,10.8,3.9
				c3.5-0.4,6.3-2.3,7.3-5.3c0.7-1.9,0.2-3.3-0.4-4.7c0.9,0.5,1.8,0.9,2.5,1.4c2.5,1.8,4.4,4.2,6,6.3c2,2.6,3.6,4.7,5.6,4.6
				c1.7,0,3.5-1.5,5.6-4.6c2.2-3.1,3-5.4,2.4-7.1c-0.7-2.2-3.4-3.3-6.5-4.5c-2.3-0.8-4.8-1.9-7.1-3.5c-0.8-0.5-1.4-1.1-2.2-1.8
				c2.5-0.7,4.8-2.3,6-4.7c1.3-2.5,1.5-5.4,0.4-8C146.2,382.7,138.5,380.8,132.8,382.3z M134.6,409.2c-0.1,0.1-0.1,0.2-0.1,0.4
				l0.2,0.5c0.6,1.5,1.2,3.3,0.7,4.9c-0.8,2.1-2.3,4.6-5.3,4.8c-2.9,0.2-7.4-1.7-9.5-3.6c-3.8-3.6-5.3-8.7-3.8-14.5
				c2.1-8,8.7-15.2,15.7-16.9c1.1-0.3,2.3-0.5,3.6-0.5c4.3-0.1,8.8,1.7,11.1,6.9c0.8,1.9,0.8,4.1-0.4,6.2c-1.4,2.6-4,4.5-6.8,5
				c-0.1,0-0.2,0.1-0.3,0.2c0,0.1,0,0.3,0.1,0.4c0.8,0.8,2.8,2.3,3.8,3c2.2,1.5,4.5,2.5,6.6,3.5c2.9,1.3,5.3,2.3,5.7,4
				c0.4,1.2-0.2,2.9-1.7,5.1c-1.4,2.1-2.6,3-3.8,3.1c-1.6,0.1-3.2-1.7-5.1-3.9c-1.6-1.9-3.5-4-5.8-5.7c-1.2-0.8-2.7-1.7-4.3-2.5
				l-0.1-0.1C134.9,409.2,134.7,409.2,134.6,409.2z"/>
			<path class="st1" d="M140.1,406.2l0.5,0.1l0.4-0.2l0.1-0.5l-0.2-0.4c-0.2-0.1-3.7-2.9-4.9-6.9c-0.1-0.3-0.5-0.5-0.8-0.4
				c-0.3,0.1-0.5,0.5-0.4,0.8C136.2,403.1,139.9,406.1,140.1,406.2z"/>
			<path class="st1" d="M138.7,408.4l-0.1-0.5l-0.4-0.3c-0.2,0-4-0.8-6.6-3.1l-0.5-0.2l-0.4,0.2l-0.2,0.5l0.2,0.4
				c2.8,2.7,7,3.5,7.2,3.5h0.1C138.4,409,138.6,408.7,138.7,408.4z"/>
			<path class="st1" d="M139.4,406.8v-0.5l-0.3-0.3c-2.2-0.8-6.7-5.4-6.7-5.4c-0.3-0.2-0.7-0.2-0.8,0c-0.2,0.2-0.2,0.7,0,0.8
				c0.5,0.5,4.8,4.7,7.1,5.6C139,407.2,139.4,407.1,139.4,406.8z"/>
			<path class="st1" d="M259.7,252.8c-7.8,2.1-15.8,10.8-17.9,19.8c-1.6,6.5-0.1,12.2,4.1,16.1c2.3,2.2,7.4,4.2,10.8,3.9
				c3.5-0.4,6.3-2.3,7.3-5.3c0.7-1.9,0.2-3.3-0.4-4.7c0.9,0.5,1.8,0.9,2.5,1.4c2.5,1.8,4.4,4.2,6,6.3c2,2.6,3.6,4.7,5.6,4.6
				c1.7,0,3.5-1.5,5.6-4.6c2.2-3.1,3-5.4,2.4-7.1c-0.7-2.2-3.4-3.3-6.5-4.5c-2.3-0.9-4.8-1.9-7.1-3.5c-0.8-0.5-1.4-1.1-2.2-1.8
				c2.5-0.7,4.8-2.3,6-4.7c1.3-2.5,1.5-5.4,0.4-8C273.2,253.2,265.4,251.3,259.7,252.8z M261.5,279.9c-0.1,0.1-0.2,0.2-0.1,0.4
				l0.2,0.5c0.6,1.5,1.2,3.3,0.7,4.9c-0.8,2.1-2.3,4.6-5.3,4.8c-2.9,0.2-7.4-1.7-9.5-3.6c-3.8-3.6-5.3-8.7-3.8-14.5
				c2.1-8,8.7-15.2,15.7-16.9c1.1-0.3,2.3-0.5,3.6-0.5c4.3-0.1,8.8,1.7,11.1,6.9c0.8,1.9,0.8,4.1-0.4,6.2c-1.4,2.6-4,4.5-6.8,5
				c-0.1,0-0.2,0.1-0.3,0.2c0,0.1,0,0.3,0.1,0.4c0.8,0.8,2.8,2.3,3.8,3c2.2,1.5,4.5,2.5,6.6,3.5c2.9,1.3,5.3,2.3,5.7,4
				c0.4,1.2-0.2,2.9-1.7,5.1c-1.4,2.1-2.6,3-3.8,3.1c-1.6,0.1-3.2-1.7-5.1-3.9c-1.6-1.9-3.5-4-5.8-5.7c-1.2-0.8-2.7-1.7-4.3-2.5
				L262,280C261.7,279.7,261.6,279.8,261.5,279.9z"/>
			<path class="st1" d="M267,276.7l0.5,0.1l0.4-0.2l0.1-0.5l-0.2-0.4c-0.2-0.1-3.7-2.9-4.9-6.9c-0.1-0.3-0.5-0.5-0.8-0.4
				c-0.3,0.1-0.5,0.5-0.4,0.8C263,273.6,266.8,276.6,267,276.7z"/>
			<path class="st1" d="M265.6,278.9l-0.1-0.5l-0.4-0.3c-0.2,0-4-0.8-6.6-3.1l-0.5-0.2l-0.4,0.2l-0.2,0.5l0.2,0.4
				c2.8,2.7,7,3.4,7.2,3.5h0.1C265.3,279.5,265.6,279.3,265.6,278.9z"/>
			<path class="st1" d="M266.3,277.3v-0.5l-0.3-0.3c-2.2-0.8-6.7-5.4-6.7-5.4c-0.3-0.2-0.7-0.2-0.8,0c-0.2,0.2-0.2,0.7,0,0.8
				c0.5,0.5,4.8,4.7,7,5.6C265.9,277.8,266.2,277.6,266.3,277.3z"/>
			<path class="st1" d="M227,188.6c-0.7-0.9-1.7-1.3-2.3-0.8c-0.1,0.1-0.2,0.2-0.3,0.4c0.6,0.1,1.1,0.5,1.5,1
				c0.6,0.8,0.7,1.6,0.3,2.2c0.3,0,0.6,0,0.8-0.2C227.7,190.7,227.7,189.5,227,188.6z"/>
			<path class="st1" d="M200.4,188.9c-8.4-7.4-17.3-11.2-19.8-8.4c-2.5,2.8,2.3,11.2,10.7,18.6c8.4,7.4,17.3,11.2,19.8,8.4
				C213.7,204.7,208.9,196.3,200.4,188.9z M193,198.8c-7.1-6.3-11.4-13.2-9.3-15.5c2-2.3,9.4,1,16.6,7.3c7.1,6.3,11.4,13.2,9.3,15.5
				C207.7,208.4,200.3,205.1,193,198.8z"/>
			<path class="st1" d="M211.1,207.5l-38.9,37.2l35.8-36.1L211.1,207.5z"/>
			<path class="st1" d="M172.8,243.6c-2.8,1.6-9-0.8-14.5-5.6c-5.1-4.5-8.1-9.8-7.6-12.9l27.4-40.8c0,0-28.9,38.6-29.5,39.6
				c-2,2.2,1.8,8.6,8.4,14.5c6.6,5.7,13.4,8.6,15.4,6.5C172.6,244.4,172.7,244,172.8,243.6z"/>
			<path class="st1" d="M224.3,187.3l-24.5,8.9c-0.3,0.1-0.4,0.4-0.3,0.7c0.1,0.3,0.4,0.4,0.7,0.3c0,0,21-7.7,23.3-8.5
				c-0.1,0.4-0.2,0.7-0.2,1.1c0,0.3,0,0.6,0.2,0.8c0.2,0.4,0.5,0.8,0.8,1c-2.5,0.8-21.2,7.5-21.2,7.5c-0.1,0-0.2,0.1-0.2,0.2
				c0,0-0.3,0.3-0.7,0.3c-0.4,0-0.9-0.3-1.7-1.4c-0.2-0.3-0.5-0.3-0.8-0.1c-0.3,0.2-0.3,0.5-0.1,0.8c0.8,1.2,1.7,1.8,2.5,1.9
				c0.7,0,1.2-0.3,1.4-0.5c0.2-0.1,22.5-8,22.5-8c0.2-0.1,0.4-0.3,0.4-0.5c0,0,0,0,0-0.1c0-0.3-0.2-0.5-0.5-0.5
				c-0.8-0.2-1.4-0.5-1.6-0.9c-0.1-0.1-0.1-0.3-0.1-0.5c0-0.7,0.5-1.4,0.7-1.7c0.1-0.1,0.1-0.2,0.1-0.3s0-0.2-0.1-0.3
				C224.8,187.3,224.5,187.2,224.3,187.3z"/>
			<path class="st1" d="M175.9,200.3c-4.2-1.2-11.1,0.1-12.4,3.3c-0.1,0.2-0.1,0.5,0,0.7c0.8,1.5,5.4,4.5,7,4.2
				c0.5-0.1,0.8-0.5,0.8-0.8c0.1-0.5-0.3-0.8-0.7-0.8c-0.2,0-0.3,0-0.5,0.1c-0.1,0-0.1,0.1-0.2,0.1c-0.9-0.2-4-2-5-3.1
				c0.4-0.5,1-0.9,1.8-1.3c2.3-1,5.9-1.4,8.4-0.7c2.6,0.8,2.3,2.3,2.3,2.8c-0.1,0.5,0.2,0.8,0.7,0.9c0.5,0.1,0.8-0.2,0.9-0.7
				C179.6,202.8,178.4,201.1,175.9,200.3z"/>
			<path class="st1" d="M179.9,209.5c-0.8-1.5-3.2-2.1-3.6-2.2c-0.2,0-0.3,0-0.5,0.1c-0.2,0.1-0.4,0.3-0.4,0.5
				c-2.3-0.1-4.6,0.8-6.9,1.8c-0.2,0.1-0.4,0.3-0.5,0.6c-0.1,0.3,0,0.5,0.2,0.7c1.1,1.3,6.4,2.8,9.4,2.3c1.6-0.3,2.3-1.1,2.4-1.7
				C180.3,210.7,180.3,210,179.9,209.5z M178.5,210.2c0.1,0.2,0.1,0.4,0,0.7c-0.1,0.2-0.3,0.4-0.6,0.5c-0.2,0.1-0.5,0.2-0.7,0.2
				c-2,0.4-5.1-0.4-6.8-1.1c2.4-0.9,4.9-1.5,6.9-0.6c0.2,0.1,0.5,0.1,0.7,0c0.1,0,0.1-0.1,0.1-0.1
				C178.3,209.9,178.4,210.1,178.5,210.2z"/>
			<path class="st1" d="M185,212.2c-0.2-0.4-0.7-0.6-1-0.4c-2,0.8-4,1.5-6,2.2c-2,0.6-3.9,1.2-5.9,2.1c-0.4,0.2-0.6,0.7-0.4,1
				c0.2,0.4,0.7,0.6,1,0.4c1.9-0.8,3.8-1.4,5.7-2c2.1-0.7,4.1-1.3,6.2-2.3C185,213,185.1,212.6,185,212.2z"/>
			<path class="st1" d="M184.2,216.5c-2,0-4-0.4-5.9-0.7c-1-0.2-2.1-0.4-3-0.5c-0.5-0.1-0.8,0.3-0.8,0.7c-0.1,0.5,0.3,0.8,0.7,0.8
				c0.9,0.1,2,0.3,3,0.5c2.1,0.4,4.1,0.8,6.2,0.7c0.5,0,0.8-0.4,0.8-0.8C185,216.9,184.6,216.5,184.2,216.5z"/>
			<path class="st1" d="M177.5,216c-0.4-0.2-0.8,0-1,0.4c-0.5,0.9-0.8,1.8-1.2,2.7c-0.3,0.8-0.7,1.6-1,2.3c0.2-0.4,0.7-0.6,1-0.4
				c0.4,0.2,0.6,0.7,0.4,1c0.4-0.8,0.8-1.6,1-2.4c0.4-0.8,0.8-1.8,1.1-2.6C178.1,216.7,177.9,216.2,177.5,216z"/>
			<path class="st1" d="M187.2,222.4c-1-2.1-3.1-4-6.1-3.3c-2,0.5-3.5,2-3.5,3.5c0,0.8,0.5,2.5,3.7,3.3c0.5,0.1,0.8-0.2,0.9-0.6
				c0.1-0.5-0.2-0.8-0.6-0.9c-1.5-0.4-2.4-1-2.4-1.7c0-0.4,0.3-0.8,0.7-1.1c0,0.2,0.1,0.4,0.3,0.5c2.3,1.8,4.8,2.3,6.7,1.5
				c0.2-0.1,0.4-0.3,0.4-0.5C187.3,222.9,187.3,222.6,187.2,222.4z M181.4,220.6c0.8-0.2,2.5-0.3,3.8,1.7c-1.8,0.2-3.6-1-4.2-1.5
				C181.2,220.7,181.3,220.6,181.4,220.6z"/>
			<path class="st1" d="M181.2,193.6c0,0,4.3,15.1,14.5,26.9L194,222C193.9,221.9,184.1,211,181.2,193.6z"/>
			<path class="st1" d="M163.8,207.6c0,0,7.9,13.6,20.6,22.4l-1.3,2C183.1,232,170.9,223.7,163.8,207.6z"/>
			<path class="st1" d="M100,60.2c-0.7-0.9-1.7-1.3-2.3-0.8c-0.1,0.1-0.2,0.2-0.3,0.4c0.6,0.1,1.1,0.5,1.5,1
				c0.6,0.8,0.7,1.6,0.3,2.2c0.3,0,0.6,0,0.8-0.2C100.7,62.2,100.7,61.1,100,60.2z"/>
			<path class="st1" d="M73.5,60.4C65,53,56.2,49.3,53.7,52.1c-2.5,2.8,2.3,11.2,10.7,18.6c8.4,7.4,17.3,11.2,19.8,8.4
				C86.7,76.2,81.9,67.9,73.5,60.4z M66.1,70.4c-7.1-6.3-11.4-13.2-9.3-15.5c2-2.3,9.4,1,16.6,7.3c7.1,6.3,11.4,13.2,9.3,15.5
				C80.7,80,73.3,76.7,66.1,70.4z"/>
			<path class="st1" d="M84.2,79l-38.9,37.2l35.8-36.1L84.2,79z"/>
			<path class="st1" d="M45.8,115.2c-2.8,1.6-9-0.8-14.5-5.6c-5.1-4.5-8.1-9.8-7.6-13L51,55.8c0,0-28.9,38.6-29.5,39.6
				c-2,2.2,1.8,8.6,8.4,14.5c6.6,5.7,13.4,8.6,15.4,6.5C45.6,115.9,45.8,115.6,45.8,115.2z"/>
			<path class="st1" d="M97.3,58.9l-24.5,8.9c-0.3,0.1-0.4,0.4-0.3,0.7c0.1,0.3,0.4,0.4,0.7,0.3c0,0,21-7.7,23.3-8.5
				c-0.1,0.4-0.2,0.7-0.2,1.1c0,0.3,0,0.6,0.2,0.8c0.2,0.4,0.5,0.8,0.8,1c-2.5,0.8-21.2,7.5-21.2,7.5c-0.1,0-0.2,0.1-0.2,0.2
				c0,0-0.3,0.3-0.7,0.3c-0.4,0-0.9-0.3-1.7-1.4c-0.2-0.3-0.5-0.3-0.8-0.1s-0.3,0.5-0.1,0.8c0.8,1.2,1.7,1.8,2.5,1.9
				c0.7,0,1.2-0.3,1.4-0.5c0.2-0.1,22.5-8,22.5-8c0.2-0.1,0.4-0.3,0.4-0.5c0,0,0,0,0-0.1c0-0.3-0.2-0.5-0.5-0.5
				c-0.8-0.2-1.4-0.5-1.6-0.9c-0.1-0.1-0.1-0.3-0.1-0.5c0-0.7,0.5-1.4,0.7-1.7c0.1-0.1,0.1-0.2,0.1-0.3c0-0.1,0-0.2-0.1-0.3
				C97.8,58.9,97.5,58.8,97.3,58.9z"/>
			<path class="st1" d="M48.9,71.9c-4.2-1.2-11.1,0.1-12.4,3.3c-0.1,0.2-0.1,0.5,0,0.7c0.8,1.5,5.4,4.5,7,4.2
				c0.5-0.1,0.8-0.5,0.8-0.8c0.1-0.5-0.3-0.8-0.7-0.8c-0.2,0-0.3,0-0.5,0.1c-0.1,0-0.1,0.1-0.2,0.1c-0.9-0.2-4-2-5-3.1
				c0.4-0.5,1-0.9,1.8-1.3c2.3-1,5.9-1.4,8.4-0.7c2.6,0.8,2.3,2.3,2.3,2.8c-0.1,0.5,0.2,0.8,0.7,0.9c0.5,0.1,0.8-0.2,0.9-0.7
				C52.6,74.3,51.4,72.7,48.9,71.9z"/>
			<path class="st1" d="M52.9,81c-0.8-1.5-3.2-2.1-3.6-2.2c-0.2,0-0.3,0-0.5,0.1c-0.2,0.1-0.4,0.3-0.4,0.5c-2.3-0.1-4.6,0.8-6.9,1.8
				c-0.2,0.1-0.4,0.3-0.5,0.6c-0.1,0.3,0,0.5,0.2,0.7c1.1,1.3,6.4,2.8,9.4,2.3c1.6-0.3,2.3-1.1,2.4-1.7C53.3,82.2,53.3,81.6,52.9,81
				z M51.5,81.8c0.1,0.2,0.1,0.4,0,0.7c-0.1,0.2-0.3,0.4-0.6,0.5c-0.2,0.1-0.5,0.2-0.7,0.2c-2,0.4-5.1-0.4-6.8-1.1
				c2.4-0.9,4.9-1.5,6.9-0.6c0.2,0.1,0.5,0.1,0.7,0l0.1-0.1C51.3,81.5,51.5,81.7,51.5,81.8z"/>
			<path class="st1" d="M58,83.6c-0.2-0.4-0.7-0.6-1-0.4c-2,0.8-4,1.5-6,2.2C49,86,47,86.6,45,87.5c-0.4,0.2-0.6,0.7-0.4,1
				c0.2,0.4,0.7,0.6,1,0.4c1.9-0.8,3.8-1.4,5.7-2c2.1-0.7,4.1-1.3,6.2-2.3C58,84.6,58.2,84.1,58,83.6z"/>
			<path class="st1" d="M57.2,88.1c-2,0-4-0.4-5.9-0.7c-1-0.2-2.1-0.4-3-0.5c-0.5-0.1-0.8,0.3-0.8,0.7c-0.1,0.5,0.3,0.8,0.7,0.8
				c0.9,0.1,2,0.3,3,0.5c2.1,0.4,4.1,0.8,6.2,0.7c0.5,0,0.8-0.4,0.8-0.8C58,88.4,57.6,88.1,57.2,88.1z"/>
			<path class="st1" d="M50.6,87.6c-0.4-0.2-0.8,0-1,0.4c-0.5,0.9-0.8,1.8-1.2,2.7c-0.3,0.8-0.7,1.6-1,2.3c0.2-0.4,0.7-0.6,1-0.4
				c0.4,0.2,0.6,0.7,0.4,1c0.4-0.8,0.8-1.6,1-2.4c0.4-0.8,0.8-1.8,1.1-2.6C51.1,88.2,51,87.8,50.6,87.6z"/>
			<path class="st1" d="M60.2,94c-1-2.1-3.1-4-6.1-3.3c-2,0.5-3.5,2-3.5,3.5c0,0.8,0.5,2.5,3.7,3.3c0.5,0.1,0.8-0.2,0.9-0.6
				c0.1-0.5-0.2-0.8-0.6-0.9c-1.5-0.4-2.4-1-2.4-1.7c0-0.4,0.3-0.8,0.7-1.1c0,0.2,0.1,0.4,0.3,0.5c2.3,1.8,4.8,2.3,6.7,1.5
				c0.2-0.1,0.4-0.3,0.4-0.5C60.3,94.4,60.3,94.2,60.2,94z M54.4,92.2c0.8-0.2,2.5-0.3,3.8,1.7c-1.8,0.2-3.6-1-4.2-1.5
				C54.2,92.3,54.3,92.2,54.4,92.2z"/>
			<path class="st1" d="M54.2,65.1c0,0,4.3,15.1,14.5,26.9L67,93.6C67,93.5,57.1,82.5,54.2,65.1z"/>
			<path class="st1" d="M36.9,79.1c0,0,7.9,13.6,20.6,22.4l-1.3,2C56.2,103.5,44,95.3,36.9,79.1z"/>
			<path class="st1" d="M214.3,340.6c-0.7,0.8-0.8,2-0.1,2.5c0.1,0.1,0.3,0.2,0.5,0.2c-0.1-0.6,0.1-1.2,0.6-1.8c0.6-0.8,1.3-1,2-0.9
				c-0.1-0.3-0.2-0.6-0.4-0.8C216,339.4,215,339.8,214.3,340.6z"/>
			<path class="st1" d="M222.2,366c-4.7,10.2-5.7,19.7-2.3,21.3c3.5,1.6,10-5.4,14.6-15.6c4.7-10.2,5.7-19.7,2.3-21.3
				C233.5,348.8,226.9,355.7,222.2,366z M233.9,370.2c-3.9,8.6-9.4,14.6-12.2,13.4c-2.7-1.2-1.8-9.3,2.3-17.9
				c3.9-8.6,9.4-14.6,12.2-13.4C238.8,353.5,237.8,361.5,233.9,370.2z"/>
			<path class="st1" d="M236.9,350.3l46.8,26.5l-45-23.8L236.9,350.3z"/>
			<path class="st1" d="M282.6,376.7c2.3,2.3,1.9,8.8-1.2,15.6c-2.8,6.2-6.9,10.5-10.1,11l-47-14.5c0,0,45.3,16.5,46.5,16.7
				c2.6,1.2,7.8-4.2,11.4-12.1c3.7-7.9,4.4-15.3,1.8-16.5C283.4,376.7,283,376.6,282.6,376.7z"/>
			<path class="st1" d="M213.8,343.6l15.7,20.9c0.2,0.3,0.5,0.3,0.8,0.1c0.3-0.2,0.3-0.5,0.1-0.8c0,0-13.4-17.9-14.8-19.8
				c0.4,0,0.8,0,1.1-0.1c0.3-0.1,0.6-0.2,0.8-0.4c0.4-0.3,0.6-0.7,0.8-1.1c1.6,2.2,13.2,18.1,13.2,18.1c0.1,0.1,0.1,0.1,0.2,0.2
				c0,0,0.4,0.2,0.4,0.6c0.1,0.4,0,1-0.8,2.1c-0.2,0.2-0.2,0.6,0.1,0.8c0.2,0.2,0.6,0.2,0.8-0.1c0.9-1.1,1.2-2.2,1-3
				c-0.2-0.7-0.7-1-0.8-1.2c-0.1-0.2-14.1-19.2-14.1-19.2c-0.1-0.2-0.4-0.3-0.6-0.2s-0.4,0.3-0.4,0.6c0.1,0.8,0,1.5-0.4,1.8
				c-0.1,0.1-0.3,0.2-0.4,0.2c-0.7,0.2-1.5,0-1.9-0.1c-0.1,0-0.2,0-0.3,0c-0.1,0-0.2,0.1-0.3,0.2
				C213.7,343.2,213.7,343.4,213.8,343.6z"/>
			<path class="st1" d="M240.3,386.2c0,4.4,3.3,10.5,6.7,10.9c0.3,0,0.5-0.1,0.7-0.2c1.2-1.2,2.7-6.6,2-8c-0.2-0.5-0.7-0.7-1.1-0.6
				c-0.5,0.1-0.8,0.5-0.7,0.9c0,0.2,0.1,0.3,0.2,0.4c0.1,0.1,0.1,0.1,0.2,0.1c0.1,0.9-0.8,4.4-1.5,5.6c-0.6-0.2-1.2-0.7-1.8-1.3
				c-1.6-1.9-3.1-5.3-3.1-7.9c0-2.7,1.5-2.9,2-2.9c0.5,0,0.8-0.5,0.8-0.8c0-0.5-0.5-0.8-0.8-0.8
				C241.5,381.9,240.3,383.5,240.3,386.2z"/>
			<path class="st1" d="M247.8,379.8c-1.2,1.3-1,3.6-1,4c0,0.2,0.1,0.3,0.2,0.5c0.2,0.2,0.4,0.3,0.6,0.3c0.6,2.2,2.1,4.1,3.7,6.1
				c0.2,0.2,0.4,0.3,0.7,0.3c0.3,0,0.5-0.2,0.6-0.4c0.9-1.4,0.8-6.9-0.6-9.7c-0.8-1.5-1.7-1.8-2.3-1.9
				C249,379,248.3,379.2,247.8,379.8z M249,380.8c0.2-0.2,0.4-0.3,0.7-0.2c0.3,0,0.5,0.2,0.7,0.4c0.2,0.2,0.3,0.4,0.4,0.6
				c0.9,1.8,1,5,0.8,6.8c-1.6-2.1-2.9-4.2-2.4-6.4c0-0.3,0-0.5-0.2-0.7l-0.1-0.1C248.8,381.1,248.9,380.9,249,380.8z"/>
			<path class="st1" d="M249,374c-0.4,0.3-0.4,0.8-0.1,1.1c1.4,1.6,2.6,3.4,3.8,5.2c1.1,1.7,2.3,3.5,3.7,5.1
				c0.3,0.4,0.8,0.4,1.1,0.1c0.4-0.3,0.4-0.8,0.1-1.1c-1.3-1.5-2.4-3.3-3.6-4.9c-1.2-1.8-2.4-3.7-3.9-5.3
				C249.8,373.9,249.2,373.8,249,374z"/>
			<path class="st1" d="M253.4,373.6c0.6,1.9,0.8,3.9,1,5.9c0.1,1,0.3,2.1,0.5,3c0.1,0.5,0.5,0.8,0.9,0.7c0.5-0.1,0.8-0.5,0.7-0.9
				c-0.2-0.9-0.3-2-0.4-3c-0.3-2.1-0.5-4.1-1.1-6.2c-0.1-0.4-0.6-0.7-1-0.6C253.5,372.7,253.3,373.1,253.4,373.6z"/>
			<path class="st1" d="M254.8,380c-0.1,0.5,0.2,0.8,0.7,0.9c1,0.2,2,0.3,2.9,0.4c0.8,0.1,1.7,0.2,2.5,0.3c-0.5-0.1-0.8-0.5-0.7-0.9
				c0.1-0.5,0.5-0.8,0.9-0.7c-0.8-0.1-1.8-0.2-2.6-0.3c-0.9-0.1-1.9-0.2-2.8-0.4C255.2,379.3,254.9,379.7,254.8,380z"/>
			<path class="st1" d="M258.2,369c-1.7,1.6-2.9,4.1-1.4,6.8c1,1.8,2.9,2.7,4.3,2.3c0.8-0.3,2.3-1.2,2.1-4.5c0-0.5-0.4-0.8-0.8-0.8
				c-0.5,0-0.8,0.4-0.8,0.8c0.1,1.6-0.3,2.6-0.9,2.8c-0.4,0.1-0.8,0-1.2-0.3c0.2-0.1,0.4-0.2,0.4-0.4c1-2.7,0.8-5.3-0.5-6.9
				c-0.2-0.2-0.4-0.3-0.6-0.3C258.5,368.8,258.3,368.9,258.2,369z M258.2,375c-0.4-0.7-1-2.3,0.5-4.1c0.8,1.6,0,3.8-0.3,4.4
				C258.3,375.2,258.2,375.2,258.2,375z"/>
			<path class="st1" d="M232.3,383.1c0,0,13.2-8.5,21.5-21.6l2,1.2C255.7,362.7,248,375.3,232.3,383.1z"/>
			<path class="st1" d="M250.7,395.6c0,0,10.7-11.5,15.5-26.2l2.3,0.7C268.5,370.1,264.1,384.2,250.7,395.6z"/>
			<path class="st1" d="M3.7,266.7c-0.7,0.8-0.8,2-0.1,2.5c0.1,0.1,0.3,0.2,0.5,0.2c-0.1-0.6,0.1-1.2,0.6-1.8c0.6-0.8,1.3-1,2-0.9
				c-0.1-0.3-0.2-0.6-0.4-0.8C5.3,265.5,4.3,265.9,3.7,266.7z"/>
			<path class="st1" d="M11.5,292.1c-4.7,10.2-5.7,19.7-2.3,21.3c3.5,1.6,10-5.4,14.6-15.6c4.7-10.2,5.7-19.7,2.3-21.3
				C22.8,274.9,16.2,281.8,11.5,292.1z M23.2,296.3c-3.9,8.6-9.4,14.6-12.2,13.4c-2.7-1.2-1.8-9.3,2.3-17.9
				c3.9-8.6,9.4-14.6,12.2-13.4C28.2,279.6,27.1,287.6,23.2,296.3z"/>
			<path class="st1" d="M26.3,276.4l46.8,26.5l-45-23.8L26.3,276.4z"/>
			<path class="st1" d="M71.9,302.8c2.3,2.3,1.9,8.8-1.2,15.6c-2.8,6.2-6.9,10.5-10.1,11l-47-14.5c0,0,45.3,16.5,46.5,16.7
				c2.6,1.2,7.8-4.2,11.4-12.1c3.7-7.9,4.4-15.3,1.8-16.5C72.7,302.8,72.4,302.7,71.9,302.8z"/>
			<path class="st1" d="M3.1,269.7l15.7,20.9c0.2,0.3,0.5,0.3,0.8,0.1c0.3-0.2,0.3-0.5,0.1-0.8c0,0-13.4-17.9-14.8-19.8
				c0.4,0,0.8,0,1.1-0.1c0.3-0.1,0.6-0.2,0.8-0.4c0.4-0.3,0.6-0.7,0.8-1.1c1.5,2.1,13.2,18,13.2,18c0.1,0.1,0.1,0.1,0.2,0.2
				c0,0,0.4,0.2,0.4,0.6c0.1,0.4,0,1-0.8,2.1c-0.2,0.2-0.2,0.6,0.1,0.8c0.2,0.2,0.6,0.2,0.8-0.1c0.9-1.1,1.2-2.2,1-3
				c-0.2-0.7-0.7-1-0.8-1.2c-0.1-0.2-14.1-19.2-14.1-19.2c-0.1-0.2-0.4-0.3-0.6-0.2c-0.2,0.1-0.4,0.3-0.4,0.6c0.1,0.8,0,1.5-0.4,1.8
				c-0.1,0.1-0.3,0.2-0.4,0.2c-0.7,0.2-1.5,0-1.9-0.1c-0.1,0-0.2,0-0.3,0c-0.1,0-0.2,0.1-0.3,0.2C3,269.3,3,269.5,3.1,269.7z"/>
			<path class="st1" d="M29.7,312.4c0,4.4,3.3,10.5,6.7,10.9c0.3,0,0.5-0.1,0.7-0.2c1.2-1.2,2.7-6.6,2-8c-0.2-0.5-0.7-0.7-1.1-0.6
				c-0.5,0.1-0.8,0.5-0.7,0.9c0,0.2,0.1,0.3,0.2,0.4c0.1,0.1,0.1,0.1,0.2,0.1c0.1,0.9-0.8,4.4-1.5,5.6c-0.6-0.2-1.2-0.7-1.8-1.3
				c-1.6-1.9-3.1-5.3-3.1-7.9c0-2.7,1.5-2.9,2-2.9s0.8-0.5,0.8-0.8c0-0.5-0.5-0.8-0.8-0.8C30.9,308,29.7,309.6,29.7,312.4z"/>
			<path class="st1" d="M37.2,305.9c-1.2,1.3-1,3.6-1,4c0,0.2,0.1,0.3,0.2,0.5c0.2,0.2,0.4,0.3,0.6,0.3c0.6,2.2,2.1,4.1,3.7,6.1
				c0.2,0.2,0.4,0.3,0.7,0.3c0.3,0,0.5-0.2,0.6-0.4c0.9-1.4,0.8-6.9-0.6-9.7c-0.8-1.5-1.7-1.8-2.3-1.9
				C38.3,305,37.6,305.3,37.2,305.9z M38.3,306.9c0.2-0.2,0.4-0.3,0.7-0.2c0.3,0,0.5,0.2,0.7,0.4c0.2,0.2,0.3,0.4,0.4,0.6
				c0.9,1.8,1,5,0.8,6.8c-1.6-2.1-2.9-4.2-2.4-6.4c0-0.3,0-0.5-0.2-0.7l-0.1-0.1C38.1,307.2,38.2,307,38.3,306.9z"/>
			<path class="st1" d="M38.3,300.1c-0.4,0.3-0.4,0.8-0.1,1.1c1.4,1.6,2.6,3.4,3.8,5.2c1.1,1.7,2.3,3.5,3.7,5.1
				c0.3,0.4,0.8,0.4,1.1,0.1c0.4-0.3,0.4-0.8,0.1-1.1c-1.3-1.5-2.4-3.3-3.6-4.9c-1.2-1.8-2.4-3.7-3.9-5.3
				C39.1,300,38.6,299.9,38.3,300.1z"/>
			<path class="st1" d="M42.7,299.7c0.6,1.9,0.8,3.9,1,5.9c0.1,1,0.3,2.1,0.5,3c0.1,0.5,0.5,0.8,0.9,0.7c0.5-0.1,0.8-0.5,0.7-0.9
				c-0.2-0.9-0.3-2-0.4-3c-0.3-2.1-0.5-4.1-1.1-6.2c-0.1-0.4-0.6-0.7-1-0.6C42.8,298.8,42.6,299.2,42.7,299.7z"/>
			<path class="st1" d="M44.1,306.2c-0.1,0.5,0.2,0.8,0.7,0.9c1,0.2,2,0.3,2.9,0.4c0.8,0.1,1.7,0.2,2.5,0.3
				c-0.5-0.1-0.8-0.5-0.7-0.9c0.1-0.5,0.5-0.8,0.9-0.7c-0.8-0.1-1.8-0.2-2.6-0.3c-0.9-0.1-1.9-0.2-2.8-0.4
				C44.6,305.4,44.2,305.8,44.1,306.2z"/>
			<path class="st1" d="M47.5,295.1c-1.7,1.6-2.9,4.1-1.4,6.8c1,1.8,2.9,2.7,4.3,2.3c0.8-0.3,2.3-1.2,2.1-4.5c0-0.5-0.4-0.8-0.8-0.8
				s-0.8,0.4-0.8,0.8c0.1,1.6-0.3,2.6-0.9,2.8c-0.4,0.1-0.8,0-1.2-0.3c0.2-0.1,0.4-0.2,0.4-0.4c1-2.7,0.8-5.3-0.5-6.9
				c-0.2-0.2-0.4-0.3-0.6-0.3C47.9,294.9,47.7,295,47.5,295.1z M47.4,301.1c-0.4-0.7-1-2.3,0.5-4.1c0.8,1.6,0,3.8-0.3,4.4
				C47.6,301.3,47.5,301.2,47.4,301.1z"/>
			<path class="st1" d="M21.6,309.2c0,0,13.2-8.5,21.5-21.6l2,1.2C45,288.8,37.3,301.4,21.6,309.2z"/>
			<path class="st1" d="M40,321.7c0,0,10.7-11.5,15.5-26.2l2.3,0.7C57.8,296.2,53.4,310.3,40,321.7z"/>
			<path class="st1" d="M125.6,284.5c-1.1,0-2.6,0.8-3.3,1.7l-31.8,36.4c-0.6-0.8-2.2-2.8-2.2-2.8c-0.9-0.9-2.2-2.3-3.4-2.3
				c-1.2,0.1-2.3,0.7-3.2,1.6l-16,21.6c-1.7,2-1.5,5.1,0.4,6.9c0.1,0.1,0.3,0.2,0.4,0.2c0.2,0,0.3-0.1,0.4-0.2
				c0,0,13.8-15.1,14.5-16c0.4,0.4,0.9,0.8,1.3,1.2c-0.8,0.8-15.2,15.3-15.2,15.3c-0.1,0.1-0.2,0.3-0.2,0.4c0,0.2,0.1,0.3,0.2,0.4
				l2.7,2.6c0.2,0.2,0.6,0.2,0.8,0c0,0,14.5-14.5,15.2-15.2c0.4,0.4,0.8,0.8,1.2,1.3c-0.8,0.8-15.9,14.5-15.9,14.5
				c-0.1,0.1-0.2,0.3-0.2,0.4c0,0.2,0.1,0.3,0.2,0.4c1.9,1.7,4.9,1.7,6.8,0l21.2-16.4c0.9-0.8,1.5-2.1,1.5-3.3
				c0-1.2-0.5-2.4-1.4-3.3c0,0-3.4-1.9-4.2-2.5l35.9-32c0.8-0.8,1.7-2.4,1.8-3.6c0-1.3-1.3-3.3-2.3-4.2l-1.7-1.6
				C128.2,285.1,126.9,284.5,125.6,284.5z M90.5,324c0.2,0,0.4-0.1,0.5-0.2l0.4-0.5l32.6-36.1c0.5-0.6,1.2-0.9,2.1-0.9
				c1,0,2,0.4,2.8,1.1l1.7,1.6c0.8,0.8,1.2,1.8,1.2,2.7c0,0.8-0.3,1.5-0.8,2.1l-36,32.9l-0.5,0.4c-0.1,0.1-0.2,0.3-0.2,0.5
				c0,0.2,0.1,0.4,0.2,0.5l3.8,2.9c0.7,0.7,1,1.5,1,2.4c0,0,0,0,0,0.1c0,0.9-0.4,1.8-1.1,2.4l-20.4,16.3c-1.3,1.2-3.3,1.2-4.8,0.4
				c1-0.9,15.7-14.4,15.7-14.4c0.1-0.1,0.2-0.3,0.2-0.4c0-0.2-0.1-0.3-0.2-0.4l-2.1-2.1c-0.1-0.1-0.3-0.2-0.4-0.2
				c-0.2,0-0.3,0.1-0.4,0.2c0,0-14.5,14.5-15.2,15.2c-0.5-0.5-1.5-1.4-2-1.9c0.8-0.8,15.2-15.3,15.2-15.3c0.1-0.1,0.2-0.3,0.2-0.4
				c0-0.2-0.1-0.3-0.2-0.4l-2.2-2c-0.1-0.1-0.3-0.2-0.4-0.2c-0.2,0-0.3,0.1-0.4,0.2c0,0-13.5,14.9-14.4,15.9
				c-0.6-0.8-0.8-1.5-0.8-2.4s0.3-1.8,0.9-2.5l16-20.7c0.7-0.8,1.5-1.1,2.4-1.2c0.9,0,1.9,0.3,2.5,0.9l2.5,3.3
				C90.2,324,90.3,324,90.5,324z"/>
			<path class="st1" d="M280.5,180c-1.1,0-2.6,0.8-3.3,1.7l-31.8,36.4c-0.6-0.8-2.2-2.8-2.2-2.8c-0.9-0.9-2.2-2.3-3.4-2.3
				c-1.2,0.1-2.3,0.7-3.2,1.6l-16,21.6c-1.7,2-1.5,5.1,0.4,6.9c0.1,0.1,0.3,0.2,0.4,0.2c0.2,0,0.3-0.1,0.4-0.2
				c0,0,13.8-15.1,14.5-16c0.4,0.4,0.9,0.8,1.3,1.2c-0.8,0.8-15.2,15.3-15.2,15.3c-0.1,0.1-0.2,0.3-0.2,0.4c0,0.2,0.1,0.3,0.2,0.4
				l2.7,2.6c0.2,0.2,0.6,0.2,0.8,0c0,0,14.5-14.5,15.2-15.2c0.4,0.4,0.8,0.9,1.3,1.3c-0.8,0.8-15.9,14.5-15.9,14.5
				c-0.1,0.1-0.2,0.3-0.2,0.4c0,0.2,0.1,0.3,0.2,0.4c1.9,1.7,4.9,1.7,6.8,0l21.2-16.4c0.9-0.8,1.5-2.1,1.5-3.3
				c0-1.2-0.5-2.4-1.4-3.3c0,0-3.4-1.9-4.2-2.5l35.9-32c0.8-0.8,1.7-2.4,1.8-3.6c0-1.3-1.3-3.3-2.3-4.2l-1.7-1.6
				C283,180.5,281.7,179.9,280.5,180z M245.4,219.5c0.2,0,0.4-0.1,0.5-0.2l0.4-0.5l32.6-36.1c0.5-0.6,1.2-0.9,2.1-0.9
				c1,0,2,0.4,2.8,1.1l1.7,1.6c0.8,0.8,1.2,1.8,1.2,2.7c0,0.8-0.3,1.5-0.8,2.1l-36,32.9l-0.5,0.4c-0.1,0.1-0.2,0.3-0.2,0.5
				c0,0.2,0.1,0.4,0.2,0.5l3.8,2.9c0.7,0.7,1,1.5,1,2.4c0,0,0,0,0,0.1c0,0.9-0.4,1.8-1.1,2.4l-20.4,16.3c-1.3,1.2-3.3,1.2-4.8,0.4
				c1-0.9,15.7-14.4,15.7-14.4c0.1-0.1,0.2-0.3,0.2-0.4c0-0.2-0.1-0.3-0.2-0.4l-2.1-2.1c-0.1-0.1-0.3-0.2-0.4-0.2
				c-0.2,0-0.3,0.1-0.4,0.2c0,0-14.5,14.5-15.2,15.2c-0.5-0.5-1.5-1.4-2-1.9c0.8-0.8,15.2-15.3,15.2-15.3c0.1-0.1,0.2-0.3,0.2-0.4
				c0-0.2-0.1-0.3-0.2-0.4l-2.2-2c-0.1-0.1-0.3-0.2-0.4-0.2c-0.2,0-0.3,0.1-0.4,0.2c0,0-13.5,14.9-14.4,15.9
				c-0.6-0.8-0.8-1.5-0.8-2.4c0-0.9,0.3-1.8,0.9-2.5l16-20.7c0.7-0.8,1.5-1.1,2.4-1.2c0.9,0,1.9,0.3,2.5,0.9l2.5,3.3
				C245,219.4,245.2,219.5,245.4,219.5z"/>
			<path class="st1" d="M285.6,464c0-1.1-0.8-2.6-1.7-3.3l-36.3-31.9c0.8-0.6,2.8-2.2,2.8-2.2c0.9-0.9,2.3-2.2,2.3-3.4
				c-0.1-1.2-0.7-2.3-1.6-3.2l-21.6-16.1c-2-1.7-5.1-1.5-6.9,0.4c-0.1,0.1-0.2,0.3-0.2,0.4c0,0.2,0.1,0.3,0.2,0.4
				c0,0,15.1,13.8,15.9,14.6c-0.4,0.4-0.8,0.9-1.2,1.3c-0.8-0.8-15.3-15.2-15.3-15.2c-0.1-0.1-0.3-0.2-0.4-0.2
				c-0.2,0-0.3,0.1-0.4,0.2l-2.6,2.7c-0.2,0.2-0.2,0.6,0,0.8c0,0,14.5,14.6,15.1,15.3c-0.4,0.4-0.9,0.8-1.3,1.2
				c-0.8-0.8-14.5-15.9-14.5-15.9c-0.1-0.1-0.3-0.2-0.4-0.2c-0.2,0-0.3,0.1-0.4,0.2c-1.7,1.9-1.7,4.9,0,6.8l16.5,21.2
				c0.8,0.9,2.1,1.5,3.3,1.5s2.4-0.5,3.3-1.4c0,0,1.9-3.4,2.5-4.1l31.9,36.1c0.8,0.8,2.4,1.8,3.6,1.8c1.3,0,3.3-1.3,4.2-2.3l1.6-1.7
				C285,466.6,285.7,465.3,285.6,464z M246.1,428.8c0,0.2,0.1,0.4,0.2,0.5l0.5,0.4l36.1,32.7c0.6,0.5,0.9,1.2,0.9,2.1
				c0,1-0.4,2-1.1,2.8l-1.6,1.7c-0.8,0.8-1.8,1.2-2.7,1.2c-0.8,0-1.5-0.3-2.1-0.8l-32.8-36.1l-0.4-0.5c-0.1-0.1-0.3-0.2-0.5-0.2
				c-0.2,0-0.4,0.1-0.5,0.2l-3,3.9c-0.7,0.7-1.5,1-2.4,1c0,0,0,0-0.1,0c-0.9,0-1.8-0.5-2.4-1.1L218,416.1c-1.2-1.3-1.2-3.3-0.4-4.8
				c0.9,1,14.4,15.8,14.4,15.8c0.1,0.1,0.3,0.2,0.4,0.2c0.2,0,0.3-0.1,0.4-0.2l2.1-2.1c0.1-0.1,0.2-0.3,0.2-0.4
				c0-0.2-0.1-0.3-0.2-0.4c0,0-14.5-14.6-15.1-15.3c0.5-0.5,1.4-1.5,1.9-2c0.8,0.8,15.3,15.2,15.3,15.2c0.1,0.1,0.3,0.2,0.4,0.2
				c0.2,0,0.3-0.1,0.4-0.2l2-2.2c0.1-0.1,0.2-0.3,0.2-0.4c0-0.2-0.1-0.3-0.2-0.4c0,0-14.8-13.6-15.8-14.5c0.8-0.6,1.5-0.8,2.4-0.8
				c0.9,0,1.8,0.3,2.5,0.9l20.6,16.1c0.8,0.7,1.1,1.5,1.2,2.4c0,0.9-0.3,1.9-0.9,2.5l-3.4,2.5C246.2,428.5,246.1,428.7,246.1,428.8z
				"/>
			<path class="st1" d="M195.8-10.6c-1-0.2-2.7,0.2-3.7,0.8l-39.8,27.5c-0.4-0.9-1.4-3.3-1.4-3.3c-0.7-1.1-1.5-2.8-2.7-3
				c-1.2-0.3-2.4,0-3.5,0.8l-20.9,17c-2.1,1.5-2.7,4.5-1.3,6.8c0.1,0.1,0.2,0.2,0.4,0.3c0.2,0,0.3,0,0.5-0.1
				c0,0,17.1-11.3,17.9-11.8c0.3,0.5,0.7,1,0.9,1.5c-0.9,0.6-18.5,11.1-18.5,11.1c-0.1,0.1-0.2,0.2-0.3,0.4c0,0.2,0,0.3,0.1,0.4
				l2,3.2c0.2,0.3,0.5,0.4,0.8,0.2c0,0,17.6-10.4,18.5-11c0.3,0.5,0.7,1.1,0.9,1.6c-0.9,0.5-18.9,10.1-18.9,10.1
				c-0.1,0.1-0.2,0.2-0.3,0.4c0,0.2,0,0.3,0.1,0.5c1.4,2.1,4.3,2.8,6.6,1.6l24.6-10.7c1.1-0.7,2-1.6,2.3-2.8
				c0.3-1.2,0.1-2.4-0.6-3.6c0,0-2.8-2.6-3.5-3.5l42.7-22.2c0.9-0.5,2.3-2,2.5-3c0.3-1.2-0.5-3.5-1.2-4.7l-1.1-2
				C198.2-9.5,197.1-10.4,195.8-10.6z M152.1,19c0.2,0,0.4,0,0.5-0.1l0.5-0.4l40.4-27c0.7-0.5,1.4-0.6,2.2-0.4
				c0.9,0.2,1.9,0.8,2.4,1.8l1.2,2c0.6,0.9,0.8,2,0.6,3c-0.2,0.8-0.7,1.4-1.3,1.8l-43,23L155,23c-0.2,0.1-0.3,0.2-0.3,0.4
				c0,0.2,0,0.4,0.1,0.5l3,3.8c0.5,0.8,0.6,1.7,0.4,2.5c0,0,0,0,0,0.1c-0.3,0.9-0.8,1.7-1.7,2.1l-23.7,10.9
				c-1.6,0.8-3.5,0.4-4.7-0.8c1.2-0.7,18.8-10,18.8-10c0.1-0.1,0.2-0.2,0.3-0.4c0-0.1,0-0.3-0.1-0.4l-1.5-2.5
				c-0.1-0.1-0.2-0.2-0.4-0.3c-0.1,0-0.3,0-0.4,0.1c0,0-17.6,10.4-18.5,11c-0.4-0.6-1-1.8-1.4-2.3c0.9-0.6,18.5-11.2,18.5-11.2
				c0.1-0.1,0.2-0.2,0.3-0.4c0-0.2,0-0.3-0.1-0.4l-1.6-2.4c-0.1-0.1-0.2-0.2-0.4-0.3c-0.2,0-0.3,0-0.4,0.1c0,0-16.8,11.1-17.8,11.8
				c-0.4-0.8-0.5-1.7-0.3-2.5c0.2-0.8,0.8-1.7,1.5-2.3L145.3,14c0.8-0.6,1.7-0.8,2.6-0.6c0.9,0.2,1.7,0.8,2.3,1.6l1.7,3.8
				C151.7,18.9,151.9,19,152.1,19z"/>
			<path class="st1" d="M13.9,220.2c-8.9,3.8-15.1,9.4-13.8,12.5c1.3,3.1,9.7,2.6,18.6-1.1c8.9-3.8,15.1-9.4,13.8-12.5
				C31.2,215.8,22.9,216.4,13.9,220.2z M19,230c-7.6,3.2-14.5,3.8-15.7,1.2c-1-2.5,4.2-7.1,11.8-10.3c7.6-3.2,14.5-3.8,15.7-1.2
				C31.9,222.2,26.7,226.8,19,230z"/>
			<path class="st1" d="M11.5,214.4C4.7,217.3,0,221.6,1,224c1,2.4,7.3,2,14.2-0.8c6.9-2.9,11.5-7.1,10.5-9.6
				C24.7,211.1,18.4,211.6,11.5,214.4z M15.5,222c-5.8,2.4-11.2,2.9-11.9,0.9c-0.8-1.9,3.2-5.4,9-7.9c5.8-2.4,11.2-2.9,11.9-0.9
				C25.2,216,21.2,219.6,15.5,222z"/>
			<path class="st1" d="M32.5,219l11.9,38.4l-12.2-35.6L32.5,219z"/>
			<path class="st1" d="M43.7,256.6c0.2,2.9-3.8,6.9-9.8,9.4c-5.3,2.3-10.6,2.5-13,0.9l-19-30.7c0,0,16.7,31,17.3,31.8
				c1,2.4,7.5,2.1,14.5-0.8c6.9-2.9,11.7-7.2,10.7-9.7C44.3,257.1,44,256.8,43.7,256.6z"/>
			<path class="st1" d="M1,224l5.5,6.8l-3.2-6.6L1,224z"/>
			<path class="st1" d="M25.7,213.6l2.7,9.1l-3.2-6.6L25.7,213.6z"/>
			<path class="st1" d="M6.6,230.8c0,0,6.4,1.7,13.3-3.3c0,0-8.4,4.3-14.9,1.2L6.6,230.8z"/>
			<path class="st1" d="M9.9,219.4c0.2,0.4-0.5,1-1.4,1.5c-0.9,0.5-1.9,0.5-2.1,0.1c-0.2-0.4,0.5-1.1,1.4-1.5
				C8.8,219,9.8,219,9.9,219.4z"/>
			<path class="st1" d="M20.5,214.8c0.2,0.4-0.5,1-1.4,1.5c-0.9,0.5-1.9,0.5-2.1,0.1c-0.2-0.4,0.5-1,1.4-1.5
				C19.3,214.4,20.3,214.4,20.5,214.8z"/>
			<path class="st1" d="M16.1,218.3c0.2,0.4-0.5,1-1.4,1.5c-0.9,0.5-1.9,0.5-2.1,0.1c-0.2-0.4,0.5-1,1.4-1.5
				C15,217.9,16,217.9,16.1,218.3z"/>
			<path class="st1" d="M15.2,215.8c0.2,0.4-0.5,1-1.4,1.5c-0.9,0.5-1.9,0.5-2.1,0.1c-0.2-0.4,0.5-1,1.4-1.5
				C14.1,215.5,15,215.5,15.2,215.8z"/>
			<path class="st1" d="M15.2,201l2.5,2l0.8-1.8L17,199L15.2,201z"/>
			<path class="st1" d="M22.6,194.7l0.9,4c2.4-0.3,2.2-2.9,2.2-2.9L22.6,194.7z"/>
			<path class="st1" d="M30.8,190.3l0.1,3.5l2.6-0.9C33.3,190.6,30.8,190.3,30.8,190.3z"/>
			<path class="st1" d="M32.8,180.1l-0.4,2.8c2.3,0.7,2.3,0.7,2.3,0.7l1.1-2.5L32.8,180.1z"/>
			<path class="st1" d="M39.7,197.3l-1.1,3.4c2.2,0.9,3.1-2.1,3.1-2.1L39.7,197.3z"/>
			<path class="st1" d="M40.7,186.6l2.3,3.6l2.4-1.5C43.4,186.2,40.7,186.6,40.7,186.6z"/>
			<path class="st1" d="M245.7,78.3c-8.1,5.3-13.1,11.9-11.4,14.7c1.9,2.8,9.9,0.8,18-4.4c8.1-5.3,13.1-11.9,11.4-14.7
				C261.9,71.1,253.8,73,245.7,78.3z M252.5,87.1c-6.9,4.5-13.7,6.3-15.2,4c-1.5-2.3,2.9-7.8,9.8-12.3c6.9-4.5,13.7-6.3,15.2-4
				C263.8,77.2,259.4,82.6,252.5,87.1z"/>
			<path class="st1" d="M242.3,73.1c-6.2,4-10,9.1-8.6,11.3c1.4,2.2,7.6,0.7,13.8-3.4c6.2-4,10-9.1,8.6-11.3
				C254.7,67.6,248.5,69.1,242.3,73.1z M247.6,79.9c-5.3,3.5-10.4,4.8-11.6,3.1c-1.1-1.8,2.3-5.9,7.5-9.4c5.3-3.5,10.4-4.8,11.6-3.1
				C256.2,72.3,252.8,76.4,247.6,79.9z"/>
			<path class="st1" d="M263.8,73.9l18.6,35.7L264,76.8L263.8,73.9z"/>
			<path class="st1" d="M281.5,108.9c0.8,2.8-2.5,7.5-7.9,11c-4.9,3.2-9.9,4.4-12.6,3.2l-24.1-26.9c0,0,21.9,27.5,22.6,28.3
				c1.4,2.3,7.7,0.7,14-3.4c6.3-4.1,10.2-9.2,8.8-11.5C282.1,109.3,281.8,109,281.5,108.9z"/>
			<path class="st1" d="M233.7,84.4l6.7,5.6l-4.3-5.8L233.7,84.4z"/>
			<path class="st1" d="M256.1,69.7l4.3,8.5l-4.3-5.9V69.7z"/>
			<path class="st1" d="M240.3,90c0,0,6.6,0.5,12.6-5.5c0,0-7.4,5.7-14.5,3.8L240.3,90z"/>
			<path class="st1" d="M241.6,78.3c0.3,0.4-0.3,1.1-1.1,1.8c-0.8,0.6-1.8,0.8-2.1,0.5c-0.3-0.4,0.3-1.1,1.1-1.8
				C240.5,78.2,241.4,78,241.6,78.3z"/>
			<path class="st1" d="M251.1,71.9c0.3,0.4-0.3,1.1-1.1,1.8c-0.8,0.6-1.8,0.8-2.1,0.5c-0.3-0.4,0.3-1.1,1.1-1.8
				C250,71.7,250.9,71.5,251.1,71.9z"/>
			<path class="st1" d="M247.6,76.1c0.3,0.4-0.3,1.1-1.1,1.8c-0.8,0.6-1.8,0.8-2.1,0.5c-0.3-0.4,0.3-1.1,1.1-1.8
				C246.3,75.9,247.3,75.8,247.6,76.1z"/>
			<path class="st1" d="M246.1,73.9c0.3,0.4-0.3,1.1-1.1,1.8c-0.8,0.6-1.8,0.8-2.1,0.5c-0.3-0.4,0.3-1.1,1.1-1.8
				C245,73.7,246,73.5,246.1,73.9z"/>
			<path class="st1" d="M243.5,59.2l2.9,1.5l0.5-1.9l-2-1.9L243.5,59.2z"/>
			<path class="st1" d="M249.7,51.7l1.7,3.8c2.3-0.8,1.6-3.3,1.6-3.3L249.7,51.7z"/>
			<path class="st1" d="M257,46l0.8,3.5l2.3-1.4C259.5,45.8,257,46,257,46z"/>
			<path class="st1" d="M257.2,35.5l0.1,2.9c2.3,0.2,2.3,0.2,2.3,0.2l0.7-2.6L257.2,35.5z"/>
			<path class="st1" d="M267.1,51.3l-0.5,3.6c2.3,0.6,2.6-2.5,2.6-2.5L267.1,51.3z"/>
			<path class="st1" d="M266,40.5l2.9,3.2l2.1-1.9C268.8,39.6,266,40.5,266,40.5z"/>
			<path class="st1" d="M17.5,419.9c-9.3,2.8-16,7.7-15,11c0.9,3.3,9.3,3.7,18.6,0.8c9.3-2.8,16-7.7,15-11
				C35.1,417.4,26.7,417,17.5,419.9z M21.5,430.2c-7.9,2.3-14.9,2.2-15.7-0.5c-0.8-2.6,5-6.7,12.9-9c7.9-2.3,14.9-2.2,15.7,0.5
				C35.2,423.8,29.4,427.8,21.5,430.2z"/>
			<path class="st1" d="M15.8,413.9c-7.1,2.2-12.2,5.9-11.4,8.4c0.8,2.5,7.1,2.8,14.2,0.7c7.1-2.2,12.2-5.9,11.4-8.4
				C29.2,412.1,22.8,411.8,15.8,413.9z M18.8,421.8c-6,1.8-11.4,1.7-12-0.4c-0.6-2,3.8-5.1,9.9-6.9c6-1.8,11.4-1.7,12,0.4
				C29.2,416.9,24.9,420,18.8,421.8z"/>
			<path class="st1" d="M36,420.7l7.8,39.4l-8.4-36.6L36,420.7z"/>
			<path class="st1" d="M43.2,459.3c-0.1,2.9-4.6,6.5-10.7,8.3c-5.6,1.7-10.8,1.4-13-0.5L3.9,434.5c0,0,13.2,32.6,13.8,33.5
				c0.8,2.5,7.2,2.8,14.5,0.7c7.2-2.2,12.4-6,11.6-8.5C43.7,459.9,43.4,459.5,43.2,459.3z"/>
			<path class="st1" d="M4.2,422.3l4.8,7.2l-2.4-6.9L4.2,422.3z"/>
			<path class="st1" d="M29.9,414.6l1.7,9.3l-2.4-6.9L29.9,414.6z"/>
			<path class="st1" d="M9,429.5c0,0,6.1,2.3,13.6-1.8c0,0-8.7,3.4-15-0.5L9,429.5z"/>
			<path class="st1" d="M13.6,418.7c0.1,0.4-0.6,1-1.6,1.3c-1,0.3-2,0.3-2.1-0.2c-0.1-0.4,0.6-1,1.6-1.3
				C12.5,418.2,13.4,418.3,13.6,418.7z"/>
			<path class="st1" d="M24.6,415.3c0.1,0.4-0.6,1-1.6,1.3c-1,0.3-2,0.3-2.1-0.2c-0.1-0.4,0.6-1,1.6-1.3
				C23.5,414.7,24.4,414.8,24.6,415.3z"/>
			<path class="st1" d="M19.9,418.3c0.1,0.4-0.6,1-1.6,1.3c-1,0.3-2,0.3-2.1-0.2c-0.1-0.4,0.6-1,1.6-1.3
				C18.8,417.8,19.7,417.8,19.9,418.3z"/>
			<path class="st1" d="M19.2,415.7c0.1,0.4-0.6,1-1.6,1.3c-1,0.3-2,0.3-2.1-0.2c-0.1-0.4,0.6-1,1.6-1.3
				C18.1,415.3,19,415.3,19.2,415.7z"/>
			<path class="st1" d="M20.8,400.9l2.3,2.3l0.9-1.7l-1.3-2.4L20.8,400.9z"/>
			<path class="st1" d="M28.9,395.4l0.5,4.1c2.4,0,2.4-2.6,2.4-2.6L28.9,395.4z"/>
			<path class="st1" d="M37.4,392l-0.3,3.5l2.7-0.7C39.9,392.5,37.4,392,37.4,392z"/>
			<path class="st1" d="M40.6,382l-0.8,2.8c2.3,0.8,2.3,0.8,2.3,0.8l1.4-2.3L40.6,382z"/>
			<path class="st1" d="M45.6,400l-1.5,3.3c2.1,1.2,3.3-1.7,3.3-1.7L45.6,400z"/>
			<path class="st1" d="M47.7,389.3l1.9,3.8l2.5-1.2C50.6,389.3,47.7,389.3,47.7,389.3z"/>
			<path class="st1" d="M172.6,379.2c-7.1,6.6-11.1,13.9-8.7,16.4c2.3,2.5,9.9-0.8,17.1-7.3c7.1-6.6,11.1-13.9,8.7-16.4
				C187.3,369.4,179.7,372.7,172.6,379.2z M180.7,386.8c-6.1,5.5-12.5,8.5-14.3,6.5c-1.9-2,1.6-8.2,7.6-13.7s12.5-8.4,14.3-6.5
				C190.2,375.2,186.7,381.3,180.7,386.8z"/>
			<path class="st1" d="M168.4,374.7c-5.4,5-8.4,10.6-6.7,12.6c1.8,1.9,7.6-0.6,13-5.6c5.4-5,8.4-10.6,6.7-12.6
				C179.7,367.2,173.8,369.7,168.4,374.7z M174.6,380.5c-4.6,4.2-9.5,6.5-11,5c-1.4-1.5,1.2-6.2,5.8-10.5c4.6-4.2,9.5-6.5,11-5
				C181.9,371.5,179.2,376.3,174.6,380.5z"/>
			<path class="st1" d="M189.7,371.9l24.2,32.1l-23.6-29.3L189.7,371.9z"/>
			<path class="st1" d="M212.9,403.5c1.1,2.7-1.3,7.8-6,12.1c-4.3,3.9-9.1,6-11.9,5.3l-28.2-22.5c0,0,26.2,23.5,27,24.1
				c1.8,2,7.7-0.6,13.2-5.7c5.5-5.1,8.5-10.8,6.8-12.8C213.6,403.8,213.3,403.6,212.9,403.5z"/>
			<path class="st1" d="M161.7,387.3l7.5,4.4l-5.2-5.1L161.7,387.3z"/>
			<path class="st1" d="M181.5,369.1l5.5,7.7l-5.2-5.1L181.5,369.1z"/>
			<path class="st1" d="M169.2,391.7c0,0,6.6-0.6,11.4-7.6c0,0-6.4,6.9-13.7,6.2L169.2,391.7z"/>
			<path class="st1" d="M168.5,380c0.3,0.3-0.1,1.1-0.8,1.9c-0.8,0.8-1.7,1-2,0.8c-0.3-0.3,0.1-1.1,0.8-1.9
				C167.4,380,168.3,379.7,168.5,380z"/>
			<path class="st1" d="M176.9,372.1c0.3,0.3-0.1,1.2-0.8,1.9c-0.8,0.8-1.7,1-2,0.8c-0.3-0.3,0.1-1.2,0.8-1.9
				C175.7,372.1,176.6,371.7,176.9,372.1z"/>
			<path class="st1" d="M174,376.8c0.3,0.3-0.1,1.2-0.8,1.9c-0.8,0.8-1.7,1-2,0.8c-0.3-0.3,0.1-1.2,0.8-1.9
				C172.9,376.9,173.7,376.5,174,376.8z"/>
			<path class="st1" d="M172.3,374.8c0.3,0.3-0.1,1.1-0.8,1.9c-0.8,0.8-1.7,1-2,0.8c-0.3-0.3,0.1-1.1,0.8-1.9
				C171.2,374.8,172,374.5,172.3,374.8z"/>
			<path class="st1" d="M167.3,360.8l3.1,1l0.1-2l-2.3-1.5L167.3,360.8z"/>
			<path class="st1" d="M172.2,352.4l2.3,3.5c2.2-1.1,1-3.5,1-3.5H172.2z"/>
			<path class="st1" d="M178.4,345.5l1.3,3.3l2.2-1.8C180.8,344.9,178.4,345.5,178.4,345.5z"/>
			<path class="st1" d="M176.9,335.1l0.6,2.8c2.3-0.2,2.3-0.2,2.3-0.2l0.2-2.7L176.9,335.1z"/>
			<path class="st1" d="M189.2,349.2l0.1,3.6c2.3,0.2,2.3-3,2.3-3L189.2,349.2z"/>
			<path class="st1" d="M186.5,338.6l3.4,2.6l1.8-2.3C188.9,337.2,186.5,338.6,186.5,338.6z"/>
			<path class="st1" d="M257.6,303.6c-2.4,1-4.4,2.4-6.1,4.3c-2.4-0.1-5,0.3-7.4,1.2c-9.2,3.8-13.3,14.7-9.3,24.6
				c4,9.9,17.5,15.6,26.7,11.8c1.7-0.7,3.1-1.7,4.3-2.8c1.7,0,3.4-0.3,5.1-1c9.2-3.8,14.7-17.3,10.7-27.1
				C277.4,304.8,266.7,299.9,257.6,303.6z M270,340.5c-1.5,0.7-3,0.8-4.5,0.8c-1,1-2.3,1.9-3.8,2.5c-8.2,3.4-20.1-1.8-23.6-10.5
				c-3.6-8.7,0.1-18.6,8.3-21.9c2.2-0.8,4.3-1.2,6.6-1.1c1.5-1.6,3.3-2.9,5.4-3.8c8.2-3.4,17.6,1,21.2,9.8
				C283,325.1,278.1,337.2,270,340.5z"/>
			<path class="st1" d="M264.9,309.8c-4.1-2.7-8.5,0-10.7,1.9c-7.9-1.9-10.9,5-10.9,5c2.9-2.4,6.1-2.5,6.1-2.5s-3.6,0.8-5.6,6.9
				c0,0,1.2-1.8,5.9-3.1c0,0-0.6,2.2,1.3,4.9l2.9-5.8c0,0,4-1.1,6.9-0.4c0,0,0.1-1.2-2.8-2.5C260.1,311.4,264.9,309.8,264.9,309.8z"
				/>
			<path class="st1" d="M256.8,341.2c-4.1,0.2-9.9-0.8-16.3-6.2c0,0,6.7,8.5,16.2,7.8L256.8,341.2z"/>
			<path class="st1" d="M258.7,340.9l0.4,1.5c1.3-0.3,2.7-0.8,4-1.4l-0.3-1.3C262.9,339.8,261.3,340.5,258.7,340.9z"/>
			<path class="st1" d="M245.9,27.7c2.4,1,4.9,1.4,7.4,1.3c1.7,1.9,3.7,3.4,6.1,4.3c9.1,3.8,19.9-1,24-10.8s-1.3-23.4-10.5-27.2
				c-1.7-0.8-3.4-1-5.1-1c-1.1-1.2-2.6-2.2-4.2-2.9C254.5-12.5,241-6.9,236.9,3C232.6,12.8,236.7,23.8,245.9,27.7z M263.1-7.2
				c1.5,0.7,2.7,1.5,3.8,2.5c1.5,0,3,0.3,4.5,0.9c8.1,3.4,12.9,15.5,9.3,24.2c-3.7,8.7-13.2,13.1-21.3,9.7c-2.2-0.8-3.9-2.3-5.3-3.8
				c-2.2,0.1-4.4-0.3-6.6-1.1c-8.1-3.4-11.7-13.2-8.1-22S255.1-10.6,263.1-7.2z"/>
			<path class="st1" d="M245,18.1c1,4.9,6,6,8.8,6.3c4.2,6.9,11.3,4.2,11.3,4.2c-3.8-0.3-6.1-2.5-6.1-2.5s3.1,2,8.8-0.8
				c0,0-2.2,0.4-6.3-2c0,0,2-1.1,2.4-4.4l-6.1,2.1c0,0-3.7-2.1-5.2-4.6c0,0-0.9,0.8,0.2,3.8C249.5,20.4,245,18.1,245,18.1z"/>
			<path class="st1" d="M272.9,1.7c3,2.7,6.4,7.6,7.2,16c0,0,1.3-10.6-5.9-17L272.9,1.7z"/>
			<path class="st1" d="M271.4,0.5l0.8-1.3c-1.1-0.8-2.4-1.4-3.8-1.9l-0.7,1.1C267.6-1.6,269.3-1.1,271.4,0.5z"/>
			<path class="st1" d="M133.9,435.1c-2.4-0.9-5-1.2-7.4-1c-1.7-1.8-3.8-3.2-6.2-4.1c-9.3-3.6-19.8,1.6-23.6,11.5
				c-3.8,10,2.1,23.3,11.4,26.9c1.7,0.7,3.4,0.9,5.1,0.8c1.2,1.1,2.6,2.1,4.3,2.7c9.3,3.6,22.6-2.5,26.4-12.5
				C147.6,449.5,143.2,438.6,133.9,435.1z M117.7,470.6c-1.5-0.6-2.8-1.4-3.8-2.4c-1.5,0.1-3-0.2-4.5-0.8c-8.3-3.1-13.4-15-10-23.9
				c3.4-8.8,12.8-13.4,21-10.3c2.2,0.8,4,2.1,5.5,3.7c2.2-0.2,4.4,0.1,6.6,0.9c8.3,3.1,12.1,12.9,8.7,21.7
				C137.8,468.3,125.9,473.7,117.7,470.6z"/>
			<path class="st1" d="M135,444.6c-1.1-4.9-6.2-5.8-9-6c-4.4-6.9-11.4-3.8-11.4-3.8c3.8,0.2,6.2,2.3,6.2,2.3s-3.2-1.9-8.8,1.1
				c0,0,2.2-0.5,6.4,1.8c0,0-1.9,1.2-2.3,4.5l6.1-2.3c0,0,3.7,2,5.3,4.5c0,0,0.9-0.8-0.3-3.8C130.4,442.6,135,444.6,135,444.6z"/>
			<path class="st1" d="M107.7,461.9c-3.1-2.6-6.7-7.4-7.7-15.7c0,0-0.9,10.7,6.5,16.8L107.7,461.9z"/>
			<path class="st1" d="M109.2,463.1l-0.8,1.3c1.1,0.7,2.4,1.3,3.9,1.8l0.7-1.1C113.1,465.1,111.4,464.6,109.2,463.1z"/>
			<path class="st1" d="M83,153c-0.6-1.1-1.2-2.1-2-2.8c-1.9-12.4-9.3-10-13-8c-2.6-11.5-10.8-8-13.8-6.2c3.8-0.8,10-0.8,13.4,6.4
				c-0.2,0.1-0.5,0.3-0.6,0.4c0.2-0.1,0.5-0.1,0.8-0.2c0.3,0.6,0.6,1.2,0.8,2c-0.1-0.8-0.2-1.4-0.4-2c3.9-0.8,9.7-0.2,12.5,7.1
				c-4.8-5-11.6-4-14-3.6c-1.1-2.5-5.5-10.6-15.2-9.1c0,0-9.6,0.1-10.7,12.1c0,0-0.8,10.6-1.7,15.2c0,0-5.8,10.7,1.7,14.5
				c0,0,3,2.7,8.5,1.4c2.3,5.3,6.2,6.1,6.2,6.1c7.5,3.8,12.7-7.1,12.7-7.1c3.2-3.4,11.3-10.3,11.3-10.3C88.6,160.8,83,153,83,153z
				 M77,168.1c0,0-7.3,6.6-10.3,9.8c0,0-4.9,10.2-11.5,6.9c0,0-2.9-0.7-4.9-4.4c1.3,0.4,3.4,0.5,5.6-1.4c-3.1,1.4-5.9-0.2-5.9-0.2
				c-3.4-2-4-4.6-3.9-6.6c-0.5,1.8-0.8,5,2.4,7.3c-4.1,0.6-6.3-1.4-6.3-1.4c-6.7-3.4-1.2-13.3-1.2-13.3c0.8-4.2,1.9-14.1,1.9-14.1
				c1.2-11.1,9.8-11.4,9.8-11.4c8.1-1.4,11.9,4.8,13.1,7.6c-3.2-1.2-6.9,0.2-8.6,1.1c4.3-0.7,11.4-0.2,14.4,9.4
				c-0.7-5.8-2.6-8.7-4.9-10c3-0.6,10.3-1.1,13.9,6.2C80.4,153.6,85.3,160.7,77,168.1z"/>
			<path class="st1" d="M70.9,157.8l0.8,0.5c0,0,0,0,0-0.1L70.9,157.8z"/>
			<path class="st1" d="M67.9,144.9l0.8,0.4c0,0,0,0,0-0.1L67.9,144.9z"/>
			<path class="st1" d="M75.5,134.8c0,0-4.7,0.6-8.5,11.5c0,0,5.3-8.5,12.2-8.9C79.2,137.4,79.3,133.7,75.5,134.8z"/>
			<path class="st1" d="M120.3,259.8c-0.6-1.1-1.2-2.1-2-2.8c-1.9-12.4-9.3-10-13-8c-2.6-11.5-10.8-8-13.8-6.2
				c3.8-0.8,10-0.8,13.4,6.4c-0.2,0.1-0.5,0.3-0.6,0.4c0.2-0.1,0.5-0.1,0.8-0.2c0.3,0.6,0.6,1.2,0.8,2c-0.1-0.8-0.2-1.4-0.4-2
				c3.9-0.8,9.7-0.2,12.5,7.1c-4.8-5-11.6-4-14-3.6c-1.1-2.5-5.5-10.6-15.2-9.1c0,0-9.6,0.1-10.7,12.1c0,0-0.8,10.6-1.7,15.2
				c0,0-5.8,10.7,1.7,14.5c0,0,3,2.7,8.5,1.4c2.3,5.3,6.2,6.1,6.2,6.1c7.5,3.8,12.7-7.1,12.7-7.1c3.2-3.4,11.3-10.3,11.3-10.3
				C125.8,267.7,120.3,259.8,120.3,259.8z M114.3,275c0,0-7.3,6.6-10.3,9.8c0,0-4.9,10.2-11.5,6.9c0,0-2.9-0.7-4.9-4.4
				c1.3,0.4,3.4,0.5,5.6-1.4c-3.1,1.4-5.9-0.2-5.9-0.2c-3.4-2-4-4.6-3.9-6.6c-0.5,1.8-0.8,5,2.4,7.3c-4.1,0.6-6.3-1.4-6.3-1.4
				c-6.7-3.4-1.2-13.3-1.2-13.3c0.8-4.2,1.9-14.1,1.9-14.1c1.2-11.1,9.8-11.4,9.8-11.4c8.1-1.4,11.9,4.8,13.1,7.6
				c-3.2-1.2-6.9,0.2-8.6,1.1c4.3-0.7,11.4-0.2,14.4,9.4c-0.7-5.8-2.6-8.7-4.9-10c3-0.6,10.3-1.1,13.9,6.2
				C117.8,260.3,122.6,267.5,114.3,275z"/>
			<path class="st1" d="M108.1,264.7l0.8,0.5c0,0,0,0,0-0.1L108.1,264.7z"/>
			<path class="st1" d="M105.2,251.8l0.8,0.4c0,0,0,0,0-0.1L105.2,251.8z"/>
			<path class="st1" d="M112.8,241.6c0,0-4.7,0.6-8.5,11.5c0,0,5.3-8.5,12.2-8.9C116.5,244.3,116.6,240.4,112.8,241.6z"/>
			<path class="st1" d="M196.1,245.2c-1.2,0.3-2.3,0.8-3.2,1.2c-12.5-0.9-11.8,6.8-10.7,10.9c-11.8,0-10.1,8.7-9.1,12.1
				c0.1-3.9,1.5-10,9.3-11.6c0.1,0.3,0.2,0.5,0.2,0.7c0-0.2,0-0.5,0-0.8c0.7-0.1,1.3-0.2,2.1-0.3c-0.8-0.1-1.4-0.1-2.1-0.1
				c0.2-4,2-9.4,9.8-10.6c-5.9,3.6-6.6,10.4-6.7,12.8c-2.7,0.6-11.5,3.1-12.3,12.8c0,0-2.1,9.4,9.4,13.1c0,0,10.1,3.2,14.4,5.1
				c0,0,9.1,8.1,14.5,1.6c0,0,3.3-2.3,3.3-8c5.6-1,7.3-4.6,7.3-4.6c5.4-6.4-4.1-14-4.1-14c-2.5-3.8-7.5-13.3-7.5-13.3
				C204.9,241.6,196.1,245.2,196.1,245.2z M209.5,254.4c0,0,4.7,8.6,7.1,12.2c0,0,8.9,7,4,12.8c0,0-1.2,2.7-5.3,3.8
				c0.7-1.1,1.2-3.2-0.1-5.8c0.7,3.4-1.6,5.7-1.6,5.7c-2.7,2.9-5.3,2.9-7.2,2.3c1.6,0.8,4.7,2,7.7-0.8c-0.4,4.1-2.8,5.8-2.8,5.8
				c-4.8,5.7-13.2-1.8-13.2-1.8c-3.9-1.8-13.2-5-13.2-5c-10.5-3.7-8.9-12.1-8.9-12.1c0.5-8.2,7.3-10.5,10.3-11.2
				c-2,2.8-1.4,6.7-0.8,8.6c0.3-4.3,2.4-11.2,12.4-11.9c-5.8-0.7-9.1,0.6-10.9,2.4c0.1-3.1,1.2-10.2,9.2-12.1
				C196,247.8,204.1,244.8,209.5,254.4z"/>
			<path class="st1" d="M198.1,258.2l0.6-0.6c0,0,0,0-0.1,0L198.1,258.2z"/>
			<path class="st1" d="M184.9,258.1l0.6-0.6c0,0,0,0-0.1,0L184.9,258.1z"/>
			<path class="st1" d="M176.7,248.3c0,0-0.5,4.7,9.4,11c0,0-7-7.1-5.9-13.9C180.1,245.4,176.4,244.5,176.7,248.3z"/>
			<path class="st1" d="M8,368c0,0,8.1,6.9,11.3,10.3c0,0,5.3,11,12.7,7.1c0,0,3.9-0.8,6.2-6.1c5.5,1.3,8.5-1.4,8.5-1.4
				c7.5-3.8,1.7-14.5,1.7-14.5c-0.8-4.6-1.7-15.2-1.7-15.2c-1.1-12-10.7-12.1-10.7-12.1c-9.6-1.4-14,6.6-15.2,9.1
				c-2.3-0.5-9.2-1.4-14,3.6c2.9-7.3,8.5-7.9,12.5-7.1c-0.1,0.7-0.3,1.3-0.4,2c0.2-0.7,0.5-1.3,0.8-2c0.3,0.1,0.5,0.1,0.7,0.2
				c-0.2-0.1-0.4-0.3-0.6-0.4c3.4-7.2,9.6-7.2,13.4-6.4c-3-1.8-11.2-5.4-13.8,6.2c-3.8-2.1-11.2-4.3-13,8c-0.7,0.8-1.3,1.8-2,2.8
				C4.4,352.3-1.1,360.1,8,368z M6.9,352.8c3.6-7.3,10.8-6.8,13.8-6.2c-2.3,1.3-4.1,4.2-4.9,10c2.9-9.5,10-10,14.4-9.4
				c-1.8-0.9-5.4-2.3-8.6-1.1c1.3-2.7,5.2-9,13.1-7.6c0,0,8.6,0.3,9.8,11.4c0,0,1,9.8,1.9,14.1c0,0,5.4,10-1.2,13.3
				c0,0-2.2,2-6.3,1.4c3.3-2.3,2.9-5.6,2.4-7.3c0.1,2-0.6,4.6-3.9,6.6c0,0-2.8,1.7-5.9,0.2c2.2,1.9,4.3,1.8,5.6,1.4
				c-2,3.8-4.9,4.4-4.9,4.4c-6.7,3.5-11.5-6.9-11.5-6.9c-2.9-3.2-10.3-9.8-10.3-9.8C2.2,360,6.9,352.8,6.9,352.8z"/>
			<path class="st1" d="M16.6,357l-0.8,0.5v-0.1L16.6,357z"/>
			<path class="st1" d="M19.5,344.3l-0.8,0.4c0,0,0,0,0-0.1L19.5,344.3z"/>
			<path class="st1" d="M11.9,334c0,0,4.7,0.6,8.5,11.5c0,0-5.3-8.5-12.2-8.9C8.3,336.8,8.2,332.9,11.9,334z"/>
			<path class="st1" d="M161.8,153.8c0,0-0.1-3.9-4.2,0c0,0-13.5,13-10.1,17.9c0,0,5.9,8,14.5,3.4
				C161.9,175.1,166.8,174.2,161.8,153.8z M161.1,174.1c-6.9,3.8-12-3-12-3c-2.5-4.3,8.1-15.8,8.1-15.8c3.5-3.6,3.6-1.7,3.6-1.7
				C165.4,172.7,161.1,174.1,161.1,174.1z"/>
			<path class="st1" d="M168.3,169.7c2.2-6.4-5.8-16.8-5.8-16.8v0.7c2.2,3.4,6.4,10.9,4.6,16c0,0-1.1,4.3-6.3,6.4v0.3
				C166.9,174.7,168.3,169.7,168.3,169.7z"/>
			<path class="st1" d="M79.8,383.8c0,0-0.1-3.9-4.2,0c0,0-13.5,13-10.1,17.9c0,0,5.9,8,14.5,3.4C79.8,405.1,84.6,404.3,79.8,383.8z
				 M79,404.1c-6.9,3.8-12-3-12-3c-2.5-4.3,8.1-15.8,8.1-15.8c3.5-3.6,3.6-1.7,3.6-1.7C83.4,402.8,79,404.1,79,404.1z"/>
			<path class="st1" d="M86.1,399.8c2.2-6.4-5.8-16.8-5.8-16.8v0.7c2.2,3.4,6.4,10.9,4.6,16c0,0-1.1,4.3-6.3,6.4v0.3
				C84.8,404.6,86.1,399.8,86.1,399.8z"/>
			<path class="st1" d="M58.7,426.6c0,0-3.7-1.5-1.7,3.9c0,0,6.4,17.6,12.3,16.5c0,0,9.8-2.3,8.9-11.9
				C78.4,435.2,79.5,430.4,58.7,426.6z M77.1,435.4c0.7,7.9-7.5,9.9-7.5,9.9c-5,0.6-11.2-13.7-11.2-13.7c-1.9-4.6-0.1-3.9-0.1-3.9
				C77.6,430.9,77.1,435.4,77.1,435.4z"/>
			<path class="st1" d="M76,427.2c-5-4.5-17.7-1.5-17.7-1.5l0.6,0.3c3.9-0.7,12.5-1.4,16.5,2.2c0,0,3.5,2.8,3.3,8.3l0.3,0.1
				C80,430.4,76,427.2,76,427.2z"/>
			<path class="st1" d="M210.6,310.9c0,0-0.1-3.9-4.2,0c0,0-13.5,13-10.1,17.9c0,0,5.9,8,14.5,3.4
				C210.7,332.3,215.6,331.4,210.6,310.9z M209.9,331.3c-6.9,3.8-12-3-12-3c-2.5-4.3,8.1-15.8,8.1-15.8c3.5-3.6,3.6-1.7,3.6-1.7
				C214.2,329.9,209.9,331.3,209.9,331.3z"/>
			<path class="st1" d="M217.1,326.9c2.2-6.4-5.8-16.8-5.8-16.8v0.7c2.2,3.4,6.4,10.9,4.6,16c0,0-1.1,4.3-6.3,6.4v0.3
				C215.7,331.8,217.1,326.9,217.1,326.9z"/>
			<path class="st1" d="M134.9,172.7c-5.9-1.7-11.5-0.7-19.3-1.5c-7.7-0.8-16.8-2.2-16.8-2.2c-7.9-1.3-2.2,3.8-2.2,3.8
				s4.9,6.7,6.7,9.2s6.3,6,10,11.5c3.8,5.5,6.8,4.7,6.8,4.7c8.7-5.3,16-20.6,16-20.6C138,173.5,134.9,172.7,134.9,172.7z M133.9,178
				c0,0-6.4,13.1-14,17.7c0,0-2.5,0.8-5.8-3.9c-3.2-4.7-7-7.7-8.5-9.9c-1.5-2.2-5.7-7.9-5.7-7.9s-5-4.3,1.9-3.3
				c0,0,7.8,1.1,14.5,1.8c6.7,0.7,11.5-0.2,16.6,1.2C132.8,173.8,135.5,174.3,133.9,178z"/>
			<path class="st1" d="M121,201.4c0,0,7.6,19.4,11.3,17.7c0,0,15-11.1,15.6-27.7L137,174.6c0,0-0.1,3.4,6.1,14c0,0,2.9,2.5,2,5.3
				c0,0-1.1,13-12.7,20.7c0,0-3.7,1.8-4.7-3.9C127.6,210.6,119.2,196.6,121,201.4z"/>
			<path class="st1" d="M95.9,172.6c0,0,7.9,17.7,8.9,21.9c0,0,17.1,19.4,24.6,24.4c0,0,1.3,0.5-7.1-8.6
				c-8.5-9.1-14.9-15.2-14.9-15.2S99.8,177.1,95.9,172.6z"/>
			<path class="st1" d="M155,92.5c-5.9-1.7-11.5-0.7-19.3-1.5c-7.7-0.8-16.8-2.2-16.8-2.2c-7.9-1.3-2.2,3.8-2.2,3.8s4.9,6.7,6.7,9.2
				c1.8,2.5,6.3,6,10,11.5c3.8,5.5,6.8,4.7,6.8,4.7c8.7-5.3,16-20.6,16-20.6C158.2,93.2,155,92.5,155,92.5z M154,97.7
				c0,0-6.4,13.1-14,17.7c0,0-2.5,0.8-5.8-3.9c-3.2-4.7-7-7.7-8.5-9.9c-1.5-2.2-5.7-7.9-5.7-7.9s-5-4.3,1.9-3.3
				c0,0,7.8,1.1,14.5,1.8c6.7,0.7,11.5-0.2,16.6,1.2C153,93.4,155.7,94.1,154,97.7z"/>
			<path class="st1" d="M141,121.1c0,0,7.6,19.4,11.3,17.7c0,0,15-11.1,15.6-27.7l-10.8-16.8c0,0-0.1,3.4,6.1,14c0,0,2.9,2.5,2,5.3
				c0,0-1.1,13-12.7,20.7c0,0-3.7,1.8-4.7-3.9C147.7,130.3,139.4,116.2,141,121.1z"/>
			<path class="st1" d="M116,92.3c0,0,7.9,17.7,8.9,21.9c0,0,17.1,19.4,24.6,24.4c0,0,1.3,0.5-7.1-8.6c-8.5-9.1-14.9-15.2-14.9-15.2
				S119.9,96.8,116,92.3z"/>
			<path class="st1" d="M116.6,334.7c0,0,7.3,15.3,16,20.6c0,0,3,0.8,6.8-4.7c3.8-5.5,8.3-9,10-11.5c1.8-2.5,6.7-9.2,6.7-9.2
				s5.8-5.2-2.2-3.9c0,0-9.1,1.3-16.8,2.2c-7.7,0.8-13.4-0.2-19.3,1.5C117.9,329.6,114.7,330.4,116.6,334.7z M119.9,330.7
				c5.1-1.4,9.9-0.6,16.6-1.2c6.7-0.7,14.5-1.8,14.5-1.8c6.9-1,1.9,3.3,1.9,3.3s-4.1,5.7-5.7,7.9c-1.5,2.2-5.3,5.2-8.5,9.9
				c-3.2,4.7-5.8,3.9-5.8,3.9c-7.6-4.6-14-17.7-14-17.7C117.2,331.2,119.9,330.7,119.9,330.7z"/>
			<path class="st1" d="M131.8,358.3c0,0-7.6,19.4-11.3,17.7c0,0-15-11.1-15.6-27.7l10.8-16.8c0,0,0.1,3.4-6.1,14c0,0-2.9,2.5-2,5.3
				c0,0,1.1,13,12.7,20.7c0,0,3.7,1.8,4.7-3.9C125.2,367.5,133.5,353.4,131.8,358.3z"/>
			<path class="st1" d="M156.9,329.4c0,0-7.9,17.7-8.9,21.9c0,0-17.1,19.4-24.6,24.4c0,0-1.3,0.5,7.1-8.6
				c8.5-9.1,14.9-15.2,14.9-15.2S153,334,156.9,329.4z"/>
			<path class="st1" d="M5.8,13.3c0,0,12.9,11.1,23,12.5c0,0,3.1-0.4,4.3-6.9c1.2-6.6,3.9-11.5,4.5-14.6c0.6-3,2.4-11.1,2.4-11.1
				s3.3-7-3.5-2.6c0,0-7.8,4.8-14.5,8.6C15.3,3.1,9.7,4.4,5,8.3C5,8.2,2.3,10.1,5.8,13.3z M7.2,8.2c4-3.4,8.9-4.5,14.7-7.8
				S34.5-7,34.5-7c5.8-3.8,3,2.3,3,2.3S36,2.1,35.5,4.8c-0.6,2.6-2.9,6.9-3.9,12.5c-1,5.6-3.8,5.9-3.8,5.9C19.1,22.1,8,12.7,8,12.7
				C5,9.9,7.2,8.2,7.2,8.2z"/>
			<path class="st1" d="M29.2,28.8c0,0,0.8,20.8-3.2,20.7c0,0-18.2-4.1-25.3-19.2l3.2-19.7c0,0,1.4,3.1,0,15.2c0,0-1.6,3.5,0.3,5.6
				c0,0,6.2,11.4,19.9,13.9c0,0,4,0.1,2.7-5.5C26.7,40,28.8,23.7,29.2,28.8z"/>
			<path class="st1" d="M40.6-7.5c0,0-0.2,19.3,0.6,23.6c0,0-7.9,24.6-12.8,32.2c0,0-1,0.9,3.1-10.8c4.1-11.7,7.6-19.9,7.6-19.9
				S38.9-1.9,40.6-7.5z"/>
			<path class="st1" d="M122.7,152.4c-0.8-5.8-5.8-14.6-15.7-14.6c-9.8,0-12.8-1.8-12.8-1.8s-4.8-5.1,1.5,8.4
				c7.1,15.4,16.8,14.6,20.5,14.6c5.4,0,8.7,1.5,8.7,1.5C123.3,157.9,122.7,152.4,122.7,152.4z M115,157.2
				c-3.2,0-11.4,0.7-17.5-12.2c-5.3-11.3-1.2-7-1.2-7s2.6,1.5,11,1.5c8.4,0,12.9,7.3,13.5,12.2c0,0,0.4,2.9,1.2,5.3
				c-0.8-0.3-2.2-0.9-3.9-1.8c-3.8-6.1-5.5-12.9-5.5-12.9c0.8,5.9,2.5,9.8,3.8,11.9c-1.2-0.7-2.4-1.4-3.8-2.3c-3.4-4.6-5-9.4-5-9.4
				c0.7,3.6,1.9,6.2,2.9,8c-3.4-2.3-7.2-5.2-11-8.7c0,0,2.9,3.6,7.6,7.6h-0.1c-4,0-7.4-2-7.4-2c2.4,2.2,6.7,2.8,8.6,3
				c1.3,1,2.7,2.2,4.2,3.2l-0.2-0.1c-4.1,1.1-8.1-0.4-8.1-0.4c3.1,2,7.5,1.7,9.6,1.4c1.6,1,3.3,2.1,5.1,2.9
				C117.7,157.2,116.4,157.2,115,157.2z M121.9,158.1l0.3-0.4c0.1,0.2,0.2,0.5,0.4,0.7C122.6,158.4,122.3,158.3,121.9,158.1z"/>
			<path class="st1" d="M212.8,48.2c-0.8-5.8-5.8-14.6-15.7-14.6c-9.8,0-12.8-1.8-12.8-1.8s-4.8-5.1,1.5,8.4
				c7.1,15.4,16.8,14.6,20.5,14.6c5.4,0,8.7,1.5,8.7,1.5C213.6,53.7,212.8,48.2,212.8,48.2z M205.2,52.9c-3.2,0-11.4,0.7-17.5-12.2
				c-5.3-11.3-1.2-7-1.2-7s2.6,1.5,11,1.5c8.4,0,12.9,7.3,13.5,12.2c0,0,0.4,2.9,1.2,5.3c-0.8-0.3-2.2-0.9-3.9-1.8
				c-3.8-6.1-5.5-12.9-5.5-12.9c0.8,5.9,2.5,9.8,3.8,11.9c-1.2-0.7-2.4-1.4-3.8-2.3c-3.4-4.6-5-9.4-5-9.4c0.7,3.6,1.9,6.2,2.9,8
				c-3.4-2.3-7.2-5.2-11-8.7c0,0,2.9,3.6,7.6,7.6h-0.1c-4,0-7.4-2-7.4-2c2.4,2.2,6.7,2.8,8.6,3c1.3,1,2.7,2.2,4.2,3.2l-0.2-0.1
				c-4.1,1.1-8.1-0.4-8.1-0.4c3.1,2,7.5,1.7,9.6,1.4c1.6,1,3.3,2.1,5.1,2.9C207.9,53,206.6,52.9,205.2,52.9z M212.1,54l0.3-0.4
				c0.1,0.2,0.2,0.5,0.4,0.7C212.7,54.2,212.6,54.1,212.1,54z"/>
			<path class="st1" d="M212.5,66c-5.4,2.3-12.6,9.4-10,19c2.5,9.4,1.6,12.9,1.6,12.9s-3.7,5.9,7.7-3.6c13-10.9,9.8-20,8.8-23.6
				c-1.4-5.3-0.8-8.8-0.8-8.8C217.5,63.8,212.5,66,212.5,66z M219,72.1c0.8,3,3.7,10.9-7.2,20.2c-9.5,8.1-6.5,3-6.5,3
				s0.8-2.9-1.4-11c-2.2-8.2,3.8-14.4,8.3-16.2c0,0,2.7-1.1,4.7-2.5c-0.1,0.8-0.3,2.3-0.8,4.3c-4.9,5.3-11,8.7-11,8.7
				c5.4-2.3,8.8-5,10.5-6.7c-0.3,1.3-0.7,2.7-1.1,4.3c-3.6,4.5-7.7,7.2-7.7,7.2c3.3-1.6,5.5-3.4,6.9-4.9c-1.3,3.8-3.1,8.3-5.6,12.9
				c0,0,2.7-3.8,5.3-9.4v0.1c1.1,3.9,0,7.6,0,7.6c1.4-2.9,0.9-7.1,0.7-9.1c0.7-1.5,1.4-3.2,2-4.9v0.2c2.2,3.7,1.7,7.9,1.7,7.9
				c1.1-3.6-0.4-7.7-1.1-9.7c0.6-1.8,1.1-3.8,1.5-5.6C218.4,69.6,218.7,70.8,219,72.1z M218.2,65.2l-0.5-0.2
				c0.2-0.2,0.4-0.3,0.6-0.5C218.2,64.5,218.2,64.8,218.2,65.2z"/>
			<path class="st1" d="M25.1,142c-5.9-0.4-15.5,2.9-17.4,12.6c-1.9,9.6-4.2,12.2-4.2,12.2s-5.9,3.7,8.5,0.2
				c16.5-4,17.5-13.7,18.2-17.3c1-5.4,3.1-8.4,3.1-8.4C30.7,142.3,25.1,142,25.1,142z M28.3,150.4c-0.6,3.1-1.5,11.4-15.3,14.9
				c-12.1,3.1-7.1-0.1-7.1-0.1s2-2.3,3.6-10.5c1.6-8.4,9.7-11.3,14.5-10.9c0,0,3,0.2,5.3-0.2c-0.5,0.8-1.3,2-2.5,3.6
				c-6.8,2.5-13.7,3-13.7,3c6,0.3,10-0.7,12.4-1.4c-0.8,1-1.8,2.2-2.9,3.4c-5.2,2.4-10.1,3.1-10.1,3.1c3.7,0,6.5-0.7,8.4-1.3
				c-2.9,2.9-6.4,6.1-10.7,9.1c0,0,4.1-2.2,8.9-6l-0.1,0.1c-0.8,4-3.3,6.9-3.3,6.9c2.6-2.1,4-6,4.6-7.9c1.3-1,2.6-2.3,3.9-3.6
				l-0.1,0.2c0.4,4.2-2,7.8-2,7.8c2.5-2.7,3.1-7.1,3.2-9.2c1.3-1.4,2.6-2.9,3.8-4.4C28.9,147.8,28.6,149,28.3,150.4z M30.6,143.8
				l-0.4-0.4c0.3-0.1,0.5-0.1,0.7-0.2C31,143.3,30.8,143.4,30.6,143.8z"/>
			<path class="st1" d="M162.6,289.7c-5.9-0.4-15.5,2.9-17.4,12.6c-1.9,9.6-4.2,12.2-4.2,12.2s-5.9,3.7,8.5,0.2
				c16.5-4,17.5-13.7,18.2-17.3c1-5.4,3.1-8.4,3.1-8.4C168.2,290.1,162.6,289.7,162.6,289.7z M165.8,298.1
				c-0.6,3.1-1.5,11.4-15.3,14.9c-12.1,3.1-7.1-0.1-7.1-0.1s2-2.3,3.6-10.5c1.6-8.4,9.7-11.3,14.5-10.9c0,0,3,0.2,5.3-0.2
				c-0.5,0.8-1.3,2-2.5,3.6c-6.8,2.5-13.7,3-13.7,3c6,0.3,10-0.7,12.4-1.4c-0.8,1-1.8,2.2-2.9,3.4c-5.2,2.4-10.1,3.1-10.1,3.1
				c3.7,0,6.5-0.7,8.4-1.3c-2.9,2.9-6.4,6.1-10.7,9.1c0,0,4.1-2.2,8.9-6l-0.1,0.1c-0.8,4-3.3,6.9-3.3,6.9c2.5-2.1,4-6,4.6-7.9
				c1.3-1,2.6-2.3,3.9-3.6l-0.1,0.2c0.4,4.2-2,7.8-2,7.8c2.5-2.7,3.1-7.1,3.2-9.2c1.3-1.4,2.6-2.9,3.8-4.4
				C166.5,295.5,166.1,296.7,165.8,298.1z M168.1,291.5l-0.4-0.4c0.3-0.1,0.5-0.1,0.7-0.2C168.4,290.9,168.4,291.1,168.1,291.5z"/>
			<path class="st1" d="M227.7,149.4c-5.9-0.4-15.5,2.9-17.4,12.6c-1.9,9.6-4.2,12.2-4.2,12.2s-5.9,3.7,8.5,0.2
				c16.5-4,17.5-13.7,18.2-17.3c1-5.4,3.1-8.4,3.1-8.4C233.1,149.6,227.7,149.4,227.7,149.4z M230.8,157.7
				c-0.6,3.1-1.5,11.4-15.3,14.9c-12.1,3.1-7.1-0.1-7.1-0.1s2-2.3,3.6-10.5c1.6-8.4,9.7-11.3,14.5-10.9c0,0,3,0.2,5.3-0.2
				c-0.5,0.8-1.3,2-2.5,3.6c-6.8,2.5-13.7,3-13.7,3c6,0.3,10-0.7,12.4-1.4c-0.8,1-1.8,2.2-2.9,3.4c-5.2,2.4-10.1,3.1-10.1,3.1
				c3.7,0,6.5-0.7,8.4-1.3c-2.9,2.9-6.4,6.1-10.7,9.1c0,0,4.1-2.2,8.9-6l-0.1,0.1c-0.8,4-3.3,6.9-3.3,6.9c2.5-2.1,4-6,4.6-7.9
				c1.3-1,2.6-2.3,3.9-3.6l-0.1,0.2c0.4,4.2-2,7.8-2,7.8c2.5-2.7,3.1-7.1,3.2-9.2c1.3-1.4,2.6-2.9,3.8-4.4
				C231.4,155.1,231,156.3,230.8,157.7z M233.1,151.1l-0.4-0.4c0.3-0.1,0.5-0.1,0.7-0.2C233.5,150.6,233.3,150.8,233.1,151.1z"/>
		</g>
	</g>
</g>
</svg>
