<?xml version="1.0" encoding="utf-8"?>
<!-- Generator: Adobe Illustrator 24.1.2, SVG Export Plug-In . SVG Version: 6.00 Build 0)  -->
<svg version="1.1" id="Layer_1" xmlns="http://www.w3.org/2000/svg" xmlns:xlink="http://www.w3.org/1999/xlink" x="0px" y="0px"
	 viewBox="0 0 569.1 556.1" style="enable-background:new 0 0 569.1 556.1;" xml:space="preserve">
<style type="text/css">
	.st0{fill:none;stroke:#FFE44D;stroke-width:4.1711;stroke-linecap:round;stroke-linejoin:round;stroke-miterlimit:10;}
	.st1{fill:none;stroke:#FF5252;stroke-width:3.7055;stroke-linecap:round;stroke-linejoin:round;stroke-miterlimit:10;}
	.st2{fill:none;stroke:#3FF0E1;stroke-width:3.8615;stroke-linecap:round;stroke-linejoin:round;stroke-miterlimit:10;}
</style>
<path class="st0" d="M72.3,64.8c-2.9,8.5-7.4,24-9,40.2c-0.4,4,42.8,13.4,44.1,9.5c2.8-8.2,7.2-23.2,8.9-40.2
	C116.7,70.3,73.6,60.8,72.3,64.8z"/>
<circle class="st1" cx="293.3" cy="88.5" r="25"/>
<path class="st2" d="M459.8,72c0,16.1,22.8,40.6,38,41.2c6.9,0.3,9-26.8,7-41.3c-0.5-3.4-3.5-6-7-6C497.9,66,459.8,66.8,459.8,72z"
	/>
<path class="st0" d="M496.6,300.3c2.9-8.5,7.4-24,9-40.2c0.4-4-42.8-13.4-44.1-9.5c-2.8,8.2-7.2,23.2-8.9,40.2
	C452.2,294.8,495.3,304.2,496.6,300.3z"/>
<path class="st0" d="M308.8,491.7c2.9-8.5,7.4-24,9-40.2c0.4-4-42.8-13.4-44.1-9.5c-2.8,8.2-7.2,23.2-8.9,40.2
	C264.4,486.1,307.5,495.6,308.8,491.7z"/>
<circle class="st1" cx="89.8" cy="276.5" r="25"/>
<circle class="st1" cx="480.6" cy="467.6" r="25"/>
<path class="st2" d="M314.2,293c0-16.1-22.8-40.6-38-41.2c-6.9-0.3-9,26.8-7,41.3c0.5,3.4,3.5,6,7,6
	C276.2,299.1,314.2,298.2,314.2,293z"/>
<path class="st2" d="M109,481.6c0-16.1-22.8-40.6-38-41.2c-6.9-0.3-9,26.8-7,41.3c0.5,3.4,3.5,6,7,6C71,487.6,109,486.8,109,481.6z"
	/>
</svg>
