<svg id="watermark-logo" xmlns="http://www.w3.org/2000/svg" xmlns:xlink="http://www.w3.org/1999/xlink" width="104.3" height="38.3" viewBox="0 0 104.3 38.3">
  <defs>
    <clipPath id="clip-path">
      <rect id="Rectangle_27" data-name="Rectangle 27" width="104.3" height="38.3"/>
    </clipPath>
  </defs>
  <g id="Group_8" data-name="Group 8" clip-path="url(#clip-path)">
    <path id="Path_32" data-name="Path 32" d="M49,20.3a3,3,0,1,0-3-3A2.946,2.946,0,0,0,49,20.3Z" fill="#c1c1c1"/>
    <path id="Path_33" data-name="Path 33" d="M62.1,20.3a3,3,0,1,0-3-3A2.946,2.946,0,0,0,62.1,20.3Z" fill="#c1c1c1"/>
    <path id="Path_34" data-name="Path 34" d="M25.6,20.3a3,3,0,1,0-3-3A2.946,2.946,0,0,0,25.6,20.3Z" fill="#c1c1c1"/>
    <path id="Path_35" data-name="Path 35" d="M38,20.3a3,3,0,1,0-3-3A2.946,2.946,0,0,0,38,20.3Z" fill="#c1c1c1"/>
    <path id="Path_36" data-name="Path 36" d="M79.7,20h1.9a2.456,2.456,0,0,0,2.5-2.4A2.616,2.616,0,0,0,81.7,15H79.6a8.4,8.4,0,0,0-7.7,6.7,49.2,49.2,0,0,0,0,9.4,8.412,8.412,0,0,0,7.7,6.7h2a2.5,2.5,0,0,0,0-5H79.9a3.3,3.3,0,0,1-3-2.6c-.1-.9-.1-6.5,0-7.4A2.933,2.933,0,0,1,79.7,20Z" fill="#c1c1c1"/>
    <path id="Path_37" data-name="Path 37" d="M103.8,33.7,99,27.3a.471.471,0,0,1,.1-.6,10.57,10.57,0,0,0,3.1-9.6,2.62,2.62,0,0,0-2.7-2.3,2.535,2.535,0,0,0-2.3,2.9,5.925,5.925,0,0,1-2.8,6.2.338.338,0,0,1-.5-.3V17.3a2.5,2.5,0,1,0-5,0l.1,18a2.5,2.5,0,0,0,5,0V29.9a.349.349,0,0,1,.6-.2l5.3,7.1a2.334,2.334,0,0,0,2,1,2.7,2.7,0,0,0,1.5-.5A2.636,2.636,0,0,0,103.8,33.7Z" fill="#c1c1c1"/>
    <path id="Path_38" data-name="Path 38" d="M49,24.5A2.476,2.476,0,0,0,46.5,27v8.3a2.5,2.5,0,0,0,5,0V27A2.476,2.476,0,0,0,49,24.5Z" fill="#c1c1c1"/>
    <path id="Path_39" data-name="Path 39" d="M62.1,24.5A2.476,2.476,0,0,0,59.6,27v8.3a2.5,2.5,0,1,0,5,0V27A2.54,2.54,0,0,0,62.1,24.5Z" fill="#c1c1c1"/>
    <path id="Path_40" data-name="Path 40" d="M37.8,23.9a2.476,2.476,0,0,0-2.5,2.5v3.3a3.291,3.291,0,0,1-2.7,3,6.054,6.054,0,0,1-1.9,0,3.4,3.4,0,0,1-2.7-3V26.6a2.5,2.5,0,1,0-5,0V30a8.4,8.4,0,0,0,6.7,7.7,13.665,13.665,0,0,0,1.9.2,13.664,13.664,0,0,0,1.9-.2A8.412,8.412,0,0,0,40.2,30V26.4A2.336,2.336,0,0,0,37.8,23.9Z" fill="#c1c1c1"/>
    <path id="Path_41" data-name="Path 41" d="M17.6,22.3a8.412,8.412,0,0,0-7.7-6.7H7.8A8.287,8.287,0,0,0,.2,22.3a49.2,49.2,0,0,0,0,9.4,8.316,8.316,0,0,0,7.7,6.6H10a7.909,7.909,0,0,0,3.4-1l.2.2a2.41,2.41,0,0,0,1.8.7,2.463,2.463,0,0,0,1.9-.9,2.616,2.616,0,0,0-.2-3.5l-2-2.1c.3-1,2.5.6,2.7-.2A71.038,71.038,0,0,0,17.6,22.3Zm-9.5,11a3.3,3.3,0,0,1-3-2.6c-.1-1-.1-6.5,0-7.4a3.4,3.4,0,0,1,3-2.7H9.7a3.3,3.3,0,0,1,3,2.6c.1.9.1,6,0,7.3a2.606,2.606,0,0,0-2,.7,2.382,2.382,0,0,0-.7,2.1Z" fill="#c1c1c1"/>
    <g id="Group_7" data-name="Group 7">
      <path id="Path_42" data-name="Path 42" d="M6.8,4A2.4,2.4,0,0,1,4.1,6.4H2.3V9.5h-1V1.6H4.1A2.4,2.4,0,0,1,6.8,4ZM5.7,4q0-1.5-1.8-1.5H2.3v3H4C5.2,5.5,5.7,5,5.7,4Z" fill="#c1c1c1"/>
      <path id="Path_43" data-name="Path 43" d="M13.8,6.5a2.788,2.788,0,0,1-2.9,3.1C9.1,9.6,8,8.5,8,6.5c0-1.9,1-3.1,2.9-3.1S13.8,4.6,13.8,6.5Zm-4.9,0c0,1.4.7,2.3,1.9,2.3s1.9-.9,1.9-2.3S12,4.2,10.8,4.2,8.9,5.1,8.9,6.5Z" fill="#c1c1c1"/>
      <path id="Path_44" data-name="Path 44" d="M24.1,3.5,22,9.5H21L19.3,4.7,17.7,9.5h-1l-2.1-6h1.1l1.5,4.9L19,3.5h1l1.6,4.9,1.5-4.9h1Z" fill="#c1c1c1"/>
      <path id="Path_45" data-name="Path 45" d="M30.6,6.9H26.1a1.919,1.919,0,0,0,2,1.9c.9,0,1.5-.3,1.7-.9l.8.4a2.638,2.638,0,0,1-2.5,1.3,2.788,2.788,0,0,1-2.9-3.1c0-1.9,1-3.1,2.8-3.1a2.651,2.651,0,0,1,2.7,2.8C30.7,6.5,30.6,6.7,30.6,6.9ZM26.1,6h3.6A1.626,1.626,0,0,0,28,4.3,1.736,1.736,0,0,0,26.1,6Z" fill="#c1c1c1"/>
      <path id="Path_46" data-name="Path 46" d="M36,3.5l-.2.9a1.549,1.549,0,0,0-.8-.2c-.7,0-1.6.6-1.6,2V9.4h-1v-6h.8l.1,1a1.938,1.938,0,0,1,1.9-1.1C35.5,3.4,35.8,3.4,36,3.5Z" fill="#c1c1c1"/>
      <path id="Path_47" data-name="Path 47" d="M42.3,6.9H37.8a1.919,1.919,0,0,0,2,1.9c.9,0,1.5-.3,1.7-.9l.8.4a2.638,2.638,0,0,1-2.5,1.3,2.788,2.788,0,0,1-2.9-3.1c0-1.9,1-3.1,2.8-3.1a2.651,2.651,0,0,1,2.7,2.8A1.952,1.952,0,0,0,42.3,6.9ZM37.8,6h3.6a1.733,1.733,0,0,0-1.8-1.8A1.859,1.859,0,0,0,37.8,6Z" fill="#c1c1c1"/>
      <path id="Path_48" data-name="Path 48" d="M49.5.8V9.6h-.8l-.1-1a2.21,2.21,0,0,1-2.1,1.2c-1.7,0-2.7-1.2-2.7-3.1,0-2,1.1-3.1,2.7-3.1a2.191,2.191,0,0,1,2,1.1V.8Zm-1,5.8V6.5c0-1.4-.7-2.2-1.9-2.2s-1.9.9-1.9,2.3.7,2.3,1.9,2.3A2.017,2.017,0,0,0,48.5,6.6Z" fill="#c1c1c1"/>
      <path id="Path_49" data-name="Path 49" d="M61.5,6.5c0,2-1.1,3.1-2.7,3.1a2.437,2.437,0,0,1-2.1-1.2l-.1,1h-.8V.8h1V4.5a2.4,2.4,0,0,1,2-1.1C60.4,3.4,61.5,4.6,61.5,6.5Zm-1,0c0-1.4-.7-2.3-1.9-2.3a1.984,1.984,0,0,0-1.9,2.2v.1c0,1.4.7,2.2,1.9,2.2C59.8,8.8,60.5,7.9,60.5,6.5Z" fill="#c1c1c1"/>
      <path id="Path_50" data-name="Path 50" d="M65.5,10.5c-.5,1.2-1,1.6-1.9,1.6a1.428,1.428,0,0,1-1.3-.5l.3-.8a1.107,1.107,0,0,0,1,.5c.4,0,.8-.2,1.1-1l.3-.8-2.5-6h1.1l1.5,3.9.4,1.1.4-1.2,1.4-3.8h1Z" fill="#c1c1c1"/>
    </g>
  </g>
</svg>
